M48
; DRILL file {KiCad 9.0.4} date 2025-10-31T22:45:36+0900
; FORMAT={-:-/ absolute / metric / decimal}
; #@! TF.CreationDate,2025-10-31T22:45:36+09:00
; #@! TF.GenerationSoftware,Kicad,Pcbnew,9.0.4
; #@! TF.FileFunction,NonPlated,1,2,NPTH
FMAT,2
METRIC
; #@! TA.AperFunction,NonPlated,NPTH,ComponentDrill
T1C1.702
; #@! TA.AperFunction,NonPlated,NPTH,ComponentDrill
T2C3.000
; #@! TA.AperFunction,NonPlated,NPTH,ComponentDrill
T3C3.250
; #@! TA.AperFunction,NonPlated,NPTH,ComponentDrill
T4C3.988
%
G90
G05
T1
X42.275Y-106.583
X44.904Y-116.396
X45.5Y-62.92
X45.5Y-73.08
X64.5Y-34.42
X64.5Y-44.58
X64.5Y-53.42
X64.5Y-63.58
X64.5Y-72.42
X64.5Y-82.58
X64.5Y-100.92
X64.5Y-111.08
X83.5Y-32.42
X83.5Y-42.58
X83.5Y-51.42
X83.5Y-61.58
X83.5Y-70.42
X83.5Y-80.58
X83.5Y-98.92
X83.5Y-109.08
X102.5Y-27.42
X102.5Y-37.58
X102.5Y-46.42
X102.5Y-56.58
X102.5Y-65.42
X102.5Y-75.58
X121.5Y-30.42
X121.5Y-40.58
X121.5Y-49.42
X121.5Y-59.58
X121.5Y-68.42
X121.5Y-78.58
X140.5Y-40.92
X140.5Y-51.08
X140.5Y-59.92
X140.5Y-70.08
X140.5Y-78.92
X140.5Y-89.08
T2
X38.025Y-110.351
X40.42Y-65.46
X42.122Y-115.827
X42.96Y-71.81
X47.029Y-114.512
X47.839Y-107.721
X48.04Y-71.81
X50.58Y-65.46
X59.42Y-36.96
X59.42Y-55.96
X59.42Y-74.96
X59.42Y-103.46
X61.96Y-43.31
X61.96Y-62.31
X61.96Y-81.31
X61.96Y-109.81
X67.04Y-43.31
X67.04Y-62.31
X67.04Y-81.31
X67.04Y-109.81
X69.58Y-36.96
X69.58Y-55.96
X69.58Y-74.96
X69.58Y-103.46
X78.42Y-34.96
X78.42Y-53.96
X78.42Y-72.96
X78.42Y-101.46
X80.96Y-41.31
X80.96Y-60.31
X80.96Y-79.31
X80.96Y-107.81
X86.04Y-41.31
X86.04Y-60.31
X86.04Y-79.31
X86.04Y-107.81
X88.58Y-34.96
X88.58Y-53.96
X88.58Y-72.96
X88.58Y-101.46
X97.42Y-29.96
X97.42Y-48.96
X97.42Y-67.96
X99.96Y-36.31
X99.96Y-55.31
X99.96Y-74.31
X105.04Y-36.31
X105.04Y-55.31
X105.04Y-74.31
X107.58Y-29.96
X107.58Y-48.96
X107.58Y-67.96
X116.42Y-32.96
X116.42Y-51.96
X116.42Y-70.96
X118.96Y-39.31
X118.96Y-58.31
X118.96Y-77.31
X124.04Y-39.31
X124.04Y-58.31
X124.04Y-77.31
X126.58Y-32.96
X126.58Y-51.96
X126.58Y-70.96
X135.42Y-43.46
X135.42Y-62.46
X135.42Y-81.46
X137.96Y-49.81
X137.96Y-68.81
X137.96Y-87.81
X143.04Y-49.81
X143.04Y-68.81
X143.04Y-87.81
X145.58Y-43.46
X145.58Y-62.46
X145.58Y-81.46
T3
X43.65Y-81.15
X43.65Y-82.42
X43.65Y-92.58
X43.65Y-93.85
T4
X43.59Y-111.49
X45.5Y-68.0
X64.5Y-39.5
X64.5Y-58.5
X64.5Y-77.5
X64.5Y-106.0
X83.5Y-37.5
X83.5Y-56.5
X83.5Y-75.5
X83.5Y-104.0
X102.5Y-32.5
X102.5Y-51.5
X102.5Y-70.5
X121.5Y-35.5
X121.5Y-54.5
X121.5Y-73.5
X140.5Y-46.0
X140.5Y-65.0
X140.5Y-84.0
M30
