%TF.GenerationSoftware,KiCad,Pcbnew,9.0.4*%
%TF.CreationDate,2025-10-31T22:45:31+09:00*%
%TF.ProjectId,KeeNoard-SMD,4b65654e-6f61-4726-942d-534d442e6b69,rev?*%
%TF.SameCoordinates,Original*%
%TF.FileFunction,Legend,Bot*%
%TF.FilePolarity,Positive*%
%FSLAX46Y46*%
G04 Gerber Fmt 4.6, Leading zero omitted, Abs format (unit mm)*
G04 Created by KiCad (PCBNEW 9.0.4) date 2025-10-31 22:45:31*
%MOMM*%
%LPD*%
G01*
G04 APERTURE LIST*
%ADD10C,0.300000*%
%ADD11C,0.250000*%
%ADD12C,0.150000*%
%ADD13C,0.000000*%
%ADD14C,0.120000*%
G04 APERTURE END LIST*
D10*
G36*
X146166721Y-37399308D02*
G01*
X146011028Y-37399308D01*
X146011028Y-37913000D01*
X146858808Y-37913000D01*
X147319706Y-36960709D01*
X147455517Y-37073012D01*
X147455517Y-37399308D01*
X147307750Y-37399308D01*
X147307750Y-37913000D01*
X148480482Y-37913000D01*
X148480482Y-37399308D01*
X148326536Y-37399308D01*
X148326536Y-36021852D01*
X148480482Y-36021852D01*
X148480482Y-35508160D01*
X147307750Y-35508160D01*
X147307750Y-36021852D01*
X147455517Y-36021852D01*
X147455517Y-36414912D01*
X146994081Y-36021852D01*
X147180805Y-36021852D01*
X147180805Y-35508160D01*
X146026477Y-35508160D01*
X146026477Y-36021852D01*
X146183110Y-36021852D01*
X146693577Y-36443659D01*
X146166721Y-37399308D01*
G37*
G36*
X145202532Y-36159269D02*
G01*
X145357354Y-36188991D01*
X145491896Y-36236070D01*
X145609007Y-36299549D01*
X145710927Y-36379448D01*
X145796705Y-36475598D01*
X145864692Y-36588076D01*
X145915172Y-36719380D01*
X145947168Y-36872839D01*
X145958504Y-37052459D01*
X145947168Y-37232078D01*
X145915172Y-37385537D01*
X145864692Y-37516841D01*
X145796705Y-37629319D01*
X145710927Y-37725470D01*
X145609007Y-37805368D01*
X145491896Y-37868847D01*
X145357354Y-37915927D01*
X145202532Y-37945648D01*
X145024080Y-37956121D01*
X144785269Y-37943764D01*
X144571779Y-37908298D01*
X144376913Y-37853589D01*
X144252871Y-37800428D01*
X144252871Y-37298961D01*
X144389751Y-37338626D01*
X144553644Y-37371635D01*
X144725227Y-37392233D01*
X144910031Y-37399308D01*
X145013264Y-37392041D01*
X145084480Y-37373339D01*
X145132084Y-37346515D01*
X145167712Y-37306749D01*
X145190204Y-37253348D01*
X145198445Y-37181822D01*
X145198445Y-37167583D01*
X144200481Y-37167583D01*
X144200481Y-36941633D01*
X144212377Y-36787553D01*
X144849715Y-36787553D01*
X144849715Y-36820196D01*
X145198445Y-36820196D01*
X145198445Y-36787553D01*
X145186252Y-36696722D01*
X145155055Y-36641264D01*
X145103286Y-36607403D01*
X145024080Y-36594784D01*
X144944753Y-36607059D01*
X144893239Y-36639786D01*
X144862102Y-36694280D01*
X144849715Y-36787553D01*
X144212377Y-36787553D01*
X144213346Y-36774997D01*
X144250416Y-36627265D01*
X144310555Y-36495252D01*
X144394190Y-36376492D01*
X144475113Y-36299267D01*
X144574755Y-36237118D01*
X144696407Y-36190113D01*
X144844439Y-36159740D01*
X145024080Y-36148797D01*
X145202532Y-36159269D01*
G37*
G36*
X143373446Y-36159269D02*
G01*
X143528268Y-36188991D01*
X143662810Y-36236070D01*
X143779922Y-36299549D01*
X143881841Y-36379448D01*
X143967619Y-36475598D01*
X144035606Y-36588076D01*
X144086086Y-36719380D01*
X144118082Y-36872839D01*
X144129418Y-37052459D01*
X144118082Y-37232078D01*
X144086086Y-37385537D01*
X144035606Y-37516841D01*
X143967619Y-37629319D01*
X143881841Y-37725470D01*
X143779922Y-37805368D01*
X143662810Y-37868847D01*
X143528268Y-37915927D01*
X143373446Y-37945648D01*
X143194994Y-37956121D01*
X142956184Y-37943764D01*
X142742693Y-37908298D01*
X142547827Y-37853589D01*
X142423785Y-37800428D01*
X142423785Y-37298961D01*
X142560666Y-37338626D01*
X142724558Y-37371635D01*
X142896141Y-37392233D01*
X143080945Y-37399308D01*
X143184178Y-37392041D01*
X143255394Y-37373339D01*
X143302998Y-37346515D01*
X143338627Y-37306749D01*
X143361118Y-37253348D01*
X143369359Y-37181822D01*
X143369359Y-37167583D01*
X142371395Y-37167583D01*
X142371395Y-36941633D01*
X142383291Y-36787553D01*
X143020629Y-36787553D01*
X143020629Y-36820196D01*
X143369359Y-36820196D01*
X143369359Y-36787553D01*
X143357167Y-36696722D01*
X143325969Y-36641264D01*
X143274200Y-36607403D01*
X143194994Y-36594784D01*
X143115667Y-36607059D01*
X143064153Y-36639786D01*
X143033016Y-36694280D01*
X143020629Y-36787553D01*
X142383291Y-36787553D01*
X142384260Y-36774997D01*
X142421331Y-36627265D01*
X142481469Y-36495252D01*
X142565104Y-36376492D01*
X142646028Y-36299267D01*
X142745669Y-36237118D01*
X142867321Y-36190113D01*
X143015353Y-36159740D01*
X143194994Y-36148797D01*
X143373446Y-36159269D01*
G37*
G36*
X140507785Y-35508160D02*
G01*
X139488999Y-35508160D01*
X139488999Y-36021852D01*
X139642946Y-36021852D01*
X139642946Y-37913000D01*
X140515039Y-37913000D01*
X141410910Y-36534065D01*
X141410910Y-37399308D01*
X141263009Y-37399308D01*
X141263009Y-37913000D01*
X142281794Y-37913000D01*
X142281794Y-37399308D01*
X142127848Y-37399308D01*
X142127848Y-36021852D01*
X142281794Y-36021852D01*
X142281794Y-35508160D01*
X141163333Y-35508160D01*
X140359884Y-36733148D01*
X140359884Y-36021852D01*
X140507785Y-36021852D01*
X140507785Y-35508160D01*
G37*
G36*
X138644905Y-36159269D02*
G01*
X138799727Y-36188991D01*
X138934269Y-36236070D01*
X139051380Y-36299549D01*
X139153300Y-36379448D01*
X139239078Y-36475598D01*
X139307065Y-36588076D01*
X139357544Y-36719380D01*
X139389541Y-36872839D01*
X139400877Y-37052459D01*
X139389541Y-37232078D01*
X139357544Y-37385537D01*
X139307065Y-37516841D01*
X139239078Y-37629319D01*
X139153300Y-37725470D01*
X139051380Y-37805368D01*
X138934269Y-37868847D01*
X138799727Y-37915927D01*
X138644905Y-37945648D01*
X138466452Y-37956121D01*
X138288000Y-37945648D01*
X138133178Y-37915927D01*
X137998636Y-37868847D01*
X137881525Y-37805368D01*
X137779605Y-37725470D01*
X137693775Y-37629312D01*
X137625751Y-37516829D01*
X137575246Y-37385525D01*
X137543235Y-37232070D01*
X137531894Y-37052459D01*
X137541580Y-36898512D01*
X138292087Y-36898512D01*
X138292087Y-37206405D01*
X138304317Y-37297340D01*
X138335611Y-37352829D01*
X138387269Y-37386684D01*
X138466452Y-37399308D01*
X138545659Y-37386689D01*
X138597428Y-37352829D01*
X138628621Y-37297354D01*
X138640817Y-37206405D01*
X138640817Y-36898512D01*
X138628621Y-36807564D01*
X138597428Y-36752089D01*
X138545659Y-36718228D01*
X138466452Y-36705609D01*
X138387269Y-36718233D01*
X138335611Y-36752089D01*
X138304317Y-36807577D01*
X138292087Y-36898512D01*
X137541580Y-36898512D01*
X137543020Y-36875618D01*
X137574507Y-36723623D01*
X137624316Y-36592730D01*
X137691554Y-36479818D01*
X137776515Y-36382537D01*
X137877284Y-36301774D01*
X137993952Y-36237502D01*
X138128909Y-36189725D01*
X138285210Y-36159481D01*
X138466452Y-36148797D01*
X138644905Y-36159269D01*
G37*
G36*
X136815133Y-36154888D02*
G01*
X137005441Y-36173514D01*
X137193194Y-36202692D01*
X137363305Y-36239069D01*
X137363305Y-36815360D01*
X137221932Y-36770028D01*
X137067234Y-36734894D01*
X136911082Y-36712646D01*
X136770760Y-36705609D01*
X136615504Y-36717038D01*
X136533124Y-36743357D01*
X136494577Y-36773983D01*
X136468529Y-36817789D01*
X136455076Y-36878900D01*
X136732141Y-36896683D01*
X136947484Y-36936406D01*
X137112327Y-36993131D01*
X137236363Y-37063472D01*
X137327423Y-37145893D01*
X137391012Y-37240909D01*
X137429810Y-37351056D01*
X137443368Y-37480580D01*
X137434102Y-37592892D01*
X137408023Y-37686721D01*
X137366594Y-37765493D01*
X137309706Y-37831728D01*
X137213566Y-37898799D01*
X137093626Y-37940964D01*
X136943244Y-37956121D01*
X136827574Y-37946870D01*
X136728808Y-37920615D01*
X136643949Y-37878610D01*
X136533227Y-37795177D01*
X136460852Y-37713111D01*
X136460852Y-37913000D01*
X135639134Y-37913000D01*
X135639134Y-37399308D01*
X135774676Y-37399308D01*
X135774676Y-37206405D01*
X136460852Y-37206405D01*
X136472663Y-37319988D01*
X136503033Y-37394741D01*
X136535507Y-37431794D01*
X136574687Y-37453372D01*
X136622859Y-37460833D01*
X136674715Y-37452540D01*
X136710713Y-37429802D01*
X136733695Y-37394625D01*
X136741744Y-37348127D01*
X136733293Y-37296993D01*
X136709264Y-37258110D01*
X136667995Y-37228436D01*
X136585943Y-37202535D01*
X136460852Y-37192300D01*
X136460852Y-37206405D01*
X135774676Y-37206405D01*
X135774676Y-36833764D01*
X135788928Y-36659297D01*
X135828353Y-36519112D01*
X135889884Y-36406439D01*
X135973221Y-36316311D01*
X136074946Y-36249828D01*
X136212185Y-36197370D01*
X136394219Y-36162000D01*
X136632128Y-36148797D01*
X136815133Y-36154888D01*
G37*
G36*
X134230378Y-36148797D02*
G01*
X134112299Y-36161290D01*
X134016653Y-36193530D01*
X134016653Y-36790911D01*
X134150977Y-36750149D01*
X134292037Y-36736506D01*
X134416351Y-36748953D01*
X134512803Y-36783171D01*
X134587705Y-36836988D01*
X134642847Y-36910369D01*
X134678172Y-37007471D01*
X134691142Y-37135611D01*
X134691142Y-37399308D01*
X134414012Y-37399308D01*
X134414012Y-37913000D01*
X135543623Y-37913000D01*
X135543623Y-37399308D01*
X135408214Y-37399308D01*
X135408214Y-36705609D01*
X135543623Y-36705609D01*
X135543623Y-36191918D01*
X134691142Y-36191918D01*
X134691142Y-36406852D01*
X134603182Y-36299864D01*
X134500523Y-36218785D01*
X134423107Y-36180765D01*
X134333898Y-36157101D01*
X134230378Y-36148797D01*
G37*
G36*
X133024600Y-36021852D02*
G01*
X132842981Y-36021852D01*
X132842981Y-36393150D01*
X132922861Y-36309424D01*
X133035212Y-36226307D01*
X133119818Y-36183647D01*
X133212745Y-36157712D01*
X133315969Y-36148797D01*
X133469485Y-36164623D01*
X133596670Y-36209402D01*
X133703104Y-36281851D01*
X133792182Y-36384418D01*
X133857367Y-36503662D01*
X133907346Y-36650881D01*
X133939954Y-36831651D01*
X133951770Y-37052459D01*
X133939956Y-37273259D01*
X133907351Y-37454056D01*
X133857371Y-37601324D01*
X133792182Y-37720634D01*
X133703112Y-37823135D01*
X133596682Y-37895544D01*
X133469495Y-37940302D01*
X133315969Y-37956121D01*
X133212745Y-37947206D01*
X133119818Y-37921271D01*
X133035212Y-37878610D01*
X132922861Y-37795494D01*
X132842981Y-37711768D01*
X132842981Y-37913000D01*
X131990366Y-37913000D01*
X131990366Y-37399308D01*
X132125908Y-37399308D01*
X132125908Y-36898512D01*
X132842981Y-36898512D01*
X132842981Y-37206405D01*
X132855211Y-37297340D01*
X132886505Y-37352829D01*
X132938145Y-37386689D01*
X133017211Y-37399308D01*
X133096417Y-37386689D01*
X133148187Y-37352829D01*
X133179380Y-37297354D01*
X133191576Y-37206405D01*
X133191576Y-36898512D01*
X133179380Y-36807564D01*
X133148187Y-36752089D01*
X133096417Y-36718228D01*
X133017211Y-36705609D01*
X132938145Y-36718228D01*
X132886505Y-36752089D01*
X132855211Y-36807577D01*
X132842981Y-36898512D01*
X132125908Y-36898512D01*
X132125908Y-35508160D01*
X133024600Y-35508160D01*
X133024600Y-36021852D01*
G37*
D11*
X142416667Y-35199619D02*
X142416667Y-34199619D01*
X142416667Y-34199619D02*
X142035715Y-34199619D01*
X142035715Y-34199619D02*
X141940477Y-34247238D01*
X141940477Y-34247238D02*
X141892858Y-34294857D01*
X141892858Y-34294857D02*
X141845239Y-34390095D01*
X141845239Y-34390095D02*
X141845239Y-34532952D01*
X141845239Y-34532952D02*
X141892858Y-34628190D01*
X141892858Y-34628190D02*
X141940477Y-34675809D01*
X141940477Y-34675809D02*
X142035715Y-34723428D01*
X142035715Y-34723428D02*
X142416667Y-34723428D01*
X141416667Y-35199619D02*
X141416667Y-34532952D01*
X141416667Y-34723428D02*
X141369048Y-34628190D01*
X141369048Y-34628190D02*
X141321429Y-34580571D01*
X141321429Y-34580571D02*
X141226191Y-34532952D01*
X141226191Y-34532952D02*
X141130953Y-34532952D01*
X140416667Y-35152000D02*
X140511905Y-35199619D01*
X140511905Y-35199619D02*
X140702381Y-35199619D01*
X140702381Y-35199619D02*
X140797619Y-35152000D01*
X140797619Y-35152000D02*
X140845238Y-35056761D01*
X140845238Y-35056761D02*
X140845238Y-34675809D01*
X140845238Y-34675809D02*
X140797619Y-34580571D01*
X140797619Y-34580571D02*
X140702381Y-34532952D01*
X140702381Y-34532952D02*
X140511905Y-34532952D01*
X140511905Y-34532952D02*
X140416667Y-34580571D01*
X140416667Y-34580571D02*
X140369048Y-34675809D01*
X140369048Y-34675809D02*
X140369048Y-34771047D01*
X140369048Y-34771047D02*
X140845238Y-34866285D01*
X139988095Y-35152000D02*
X139892857Y-35199619D01*
X139892857Y-35199619D02*
X139702381Y-35199619D01*
X139702381Y-35199619D02*
X139607143Y-35152000D01*
X139607143Y-35152000D02*
X139559524Y-35056761D01*
X139559524Y-35056761D02*
X139559524Y-35009142D01*
X139559524Y-35009142D02*
X139607143Y-34913904D01*
X139607143Y-34913904D02*
X139702381Y-34866285D01*
X139702381Y-34866285D02*
X139845238Y-34866285D01*
X139845238Y-34866285D02*
X139940476Y-34818666D01*
X139940476Y-34818666D02*
X139988095Y-34723428D01*
X139988095Y-34723428D02*
X139988095Y-34675809D01*
X139988095Y-34675809D02*
X139940476Y-34580571D01*
X139940476Y-34580571D02*
X139845238Y-34532952D01*
X139845238Y-34532952D02*
X139702381Y-34532952D01*
X139702381Y-34532952D02*
X139607143Y-34580571D01*
X139178571Y-35152000D02*
X139083333Y-35199619D01*
X139083333Y-35199619D02*
X138892857Y-35199619D01*
X138892857Y-35199619D02*
X138797619Y-35152000D01*
X138797619Y-35152000D02*
X138750000Y-35056761D01*
X138750000Y-35056761D02*
X138750000Y-35009142D01*
X138750000Y-35009142D02*
X138797619Y-34913904D01*
X138797619Y-34913904D02*
X138892857Y-34866285D01*
X138892857Y-34866285D02*
X139035714Y-34866285D01*
X139035714Y-34866285D02*
X139130952Y-34818666D01*
X139130952Y-34818666D02*
X139178571Y-34723428D01*
X139178571Y-34723428D02*
X139178571Y-34675809D01*
X139178571Y-34675809D02*
X139130952Y-34580571D01*
X139130952Y-34580571D02*
X139035714Y-34532952D01*
X139035714Y-34532952D02*
X138892857Y-34532952D01*
X138892857Y-34532952D02*
X138797619Y-34580571D01*
X137226190Y-34675809D02*
X137083333Y-34723428D01*
X137083333Y-34723428D02*
X137035714Y-34771047D01*
X137035714Y-34771047D02*
X136988095Y-34866285D01*
X136988095Y-34866285D02*
X136988095Y-35009142D01*
X136988095Y-35009142D02*
X137035714Y-35104380D01*
X137035714Y-35104380D02*
X137083333Y-35152000D01*
X137083333Y-35152000D02*
X137178571Y-35199619D01*
X137178571Y-35199619D02*
X137559523Y-35199619D01*
X137559523Y-35199619D02*
X137559523Y-34199619D01*
X137559523Y-34199619D02*
X137226190Y-34199619D01*
X137226190Y-34199619D02*
X137130952Y-34247238D01*
X137130952Y-34247238D02*
X137083333Y-34294857D01*
X137083333Y-34294857D02*
X137035714Y-34390095D01*
X137035714Y-34390095D02*
X137035714Y-34485333D01*
X137035714Y-34485333D02*
X137083333Y-34580571D01*
X137083333Y-34580571D02*
X137130952Y-34628190D01*
X137130952Y-34628190D02*
X137226190Y-34675809D01*
X137226190Y-34675809D02*
X137559523Y-34675809D01*
X135797618Y-34532952D02*
X135797618Y-35199619D01*
X135797618Y-34628190D02*
X135749999Y-34580571D01*
X135749999Y-34580571D02*
X135654761Y-34532952D01*
X135654761Y-34532952D02*
X135511904Y-34532952D01*
X135511904Y-34532952D02*
X135416666Y-34580571D01*
X135416666Y-34580571D02*
X135369047Y-34675809D01*
X135369047Y-34675809D02*
X135369047Y-35199619D01*
X134749999Y-35199619D02*
X134845237Y-35152000D01*
X134845237Y-35152000D02*
X134892856Y-35104380D01*
X134892856Y-35104380D02*
X134940475Y-35009142D01*
X134940475Y-35009142D02*
X134940475Y-34723428D01*
X134940475Y-34723428D02*
X134892856Y-34628190D01*
X134892856Y-34628190D02*
X134845237Y-34580571D01*
X134845237Y-34580571D02*
X134749999Y-34532952D01*
X134749999Y-34532952D02*
X134607142Y-34532952D01*
X134607142Y-34532952D02*
X134511904Y-34580571D01*
X134511904Y-34580571D02*
X134464285Y-34628190D01*
X134464285Y-34628190D02*
X134416666Y-34723428D01*
X134416666Y-34723428D02*
X134416666Y-35009142D01*
X134416666Y-35009142D02*
X134464285Y-35104380D01*
X134464285Y-35104380D02*
X134511904Y-35152000D01*
X134511904Y-35152000D02*
X134607142Y-35199619D01*
X134607142Y-35199619D02*
X134749999Y-35199619D01*
X134130951Y-34532952D02*
X133749999Y-34532952D01*
X133988094Y-34199619D02*
X133988094Y-35056761D01*
X133988094Y-35056761D02*
X133940475Y-35152000D01*
X133940475Y-35152000D02*
X133845237Y-35199619D01*
X133845237Y-35199619D02*
X133749999Y-35199619D01*
X132654760Y-35199619D02*
X132654760Y-34199619D01*
X132654760Y-34199619D02*
X132083332Y-35199619D01*
X132083332Y-35199619D02*
X132083332Y-34199619D01*
X69212093Y-96949619D02*
X69688283Y-96949619D01*
X69688283Y-96949619D02*
X69688283Y-95949619D01*
X68497807Y-96902000D02*
X68593045Y-96949619D01*
X68593045Y-96949619D02*
X68783521Y-96949619D01*
X68783521Y-96949619D02*
X68878759Y-96902000D01*
X68878759Y-96902000D02*
X68926378Y-96806761D01*
X68926378Y-96806761D02*
X68926378Y-96425809D01*
X68926378Y-96425809D02*
X68878759Y-96330571D01*
X68878759Y-96330571D02*
X68783521Y-96282952D01*
X68783521Y-96282952D02*
X68593045Y-96282952D01*
X68593045Y-96282952D02*
X68497807Y-96330571D01*
X68497807Y-96330571D02*
X68450188Y-96425809D01*
X68450188Y-96425809D02*
X68450188Y-96521047D01*
X68450188Y-96521047D02*
X68926378Y-96616285D01*
X68164473Y-96282952D02*
X67783521Y-96282952D01*
X68021616Y-96949619D02*
X68021616Y-96092476D01*
X68021616Y-96092476D02*
X67973997Y-95997238D01*
X67973997Y-95997238D02*
X67878759Y-95949619D01*
X67878759Y-95949619D02*
X67783521Y-95949619D01*
X67593044Y-96282952D02*
X67212092Y-96282952D01*
X67450187Y-95949619D02*
X67450187Y-96806761D01*
X67450187Y-96806761D02*
X67402568Y-96902000D01*
X67402568Y-96902000D02*
X67307330Y-96949619D01*
X67307330Y-96949619D02*
X67212092Y-96949619D01*
X66164472Y-96902000D02*
X66021615Y-96949619D01*
X66021615Y-96949619D02*
X65783520Y-96949619D01*
X65783520Y-96949619D02*
X65688282Y-96902000D01*
X65688282Y-96902000D02*
X65640663Y-96854380D01*
X65640663Y-96854380D02*
X65593044Y-96759142D01*
X65593044Y-96759142D02*
X65593044Y-96663904D01*
X65593044Y-96663904D02*
X65640663Y-96568666D01*
X65640663Y-96568666D02*
X65688282Y-96521047D01*
X65688282Y-96521047D02*
X65783520Y-96473428D01*
X65783520Y-96473428D02*
X65973996Y-96425809D01*
X65973996Y-96425809D02*
X66069234Y-96378190D01*
X66069234Y-96378190D02*
X66116853Y-96330571D01*
X66116853Y-96330571D02*
X66164472Y-96235333D01*
X66164472Y-96235333D02*
X66164472Y-96140095D01*
X66164472Y-96140095D02*
X66116853Y-96044857D01*
X66116853Y-96044857D02*
X66069234Y-95997238D01*
X66069234Y-95997238D02*
X65973996Y-95949619D01*
X65973996Y-95949619D02*
X65735901Y-95949619D01*
X65735901Y-95949619D02*
X65593044Y-95997238D01*
X65164472Y-96949619D02*
X65164472Y-96282952D01*
X65164472Y-95949619D02*
X65212091Y-95997238D01*
X65212091Y-95997238D02*
X65164472Y-96044857D01*
X65164472Y-96044857D02*
X65116853Y-95997238D01*
X65116853Y-95997238D02*
X65164472Y-95949619D01*
X65164472Y-95949619D02*
X65164472Y-96044857D01*
X64259711Y-96949619D02*
X64259711Y-95949619D01*
X64259711Y-96902000D02*
X64354949Y-96949619D01*
X64354949Y-96949619D02*
X64545425Y-96949619D01*
X64545425Y-96949619D02*
X64640663Y-96902000D01*
X64640663Y-96902000D02*
X64688282Y-96854380D01*
X64688282Y-96854380D02*
X64735901Y-96759142D01*
X64735901Y-96759142D02*
X64735901Y-96473428D01*
X64735901Y-96473428D02*
X64688282Y-96378190D01*
X64688282Y-96378190D02*
X64640663Y-96330571D01*
X64640663Y-96330571D02*
X64545425Y-96282952D01*
X64545425Y-96282952D02*
X64354949Y-96282952D01*
X64354949Y-96282952D02*
X64259711Y-96330571D01*
X63402568Y-96902000D02*
X63497806Y-96949619D01*
X63497806Y-96949619D02*
X63688282Y-96949619D01*
X63688282Y-96949619D02*
X63783520Y-96902000D01*
X63783520Y-96902000D02*
X63831139Y-96806761D01*
X63831139Y-96806761D02*
X63831139Y-96425809D01*
X63831139Y-96425809D02*
X63783520Y-96330571D01*
X63783520Y-96330571D02*
X63688282Y-96282952D01*
X63688282Y-96282952D02*
X63497806Y-96282952D01*
X63497806Y-96282952D02*
X63402568Y-96330571D01*
X63402568Y-96330571D02*
X63354949Y-96425809D01*
X63354949Y-96425809D02*
X63354949Y-96521047D01*
X63354949Y-96521047D02*
X63831139Y-96616285D01*
D12*
X60095238Y-88040057D02*
X60190476Y-87992438D01*
X60190476Y-87992438D02*
X60285714Y-87897200D01*
X60285714Y-87897200D02*
X60428571Y-87754342D01*
X60428571Y-87754342D02*
X60523809Y-87706723D01*
X60523809Y-87706723D02*
X60619047Y-87706723D01*
X60571428Y-87944819D02*
X60666666Y-87897200D01*
X60666666Y-87897200D02*
X60761904Y-87801961D01*
X60761904Y-87801961D02*
X60809523Y-87611485D01*
X60809523Y-87611485D02*
X60809523Y-87278152D01*
X60809523Y-87278152D02*
X60761904Y-87087676D01*
X60761904Y-87087676D02*
X60666666Y-86992438D01*
X60666666Y-86992438D02*
X60571428Y-86944819D01*
X60571428Y-86944819D02*
X60380952Y-86944819D01*
X60380952Y-86944819D02*
X60285714Y-86992438D01*
X60285714Y-86992438D02*
X60190476Y-87087676D01*
X60190476Y-87087676D02*
X60142857Y-87278152D01*
X60142857Y-87278152D02*
X60142857Y-87611485D01*
X60142857Y-87611485D02*
X60190476Y-87801961D01*
X60190476Y-87801961D02*
X60285714Y-87897200D01*
X60285714Y-87897200D02*
X60380952Y-87944819D01*
X60380952Y-87944819D02*
X60571428Y-87944819D01*
X59190476Y-87944819D02*
X59761904Y-87944819D01*
X59476190Y-87944819D02*
X59476190Y-86944819D01*
X59476190Y-86944819D02*
X59571428Y-87087676D01*
X59571428Y-87087676D02*
X59666666Y-87182914D01*
X59666666Y-87182914D02*
X59761904Y-87230533D01*
X99157200Y-91190476D02*
X99204819Y-91333333D01*
X99204819Y-91333333D02*
X99204819Y-91571428D01*
X99204819Y-91571428D02*
X99157200Y-91666666D01*
X99157200Y-91666666D02*
X99109580Y-91714285D01*
X99109580Y-91714285D02*
X99014342Y-91761904D01*
X99014342Y-91761904D02*
X98919104Y-91761904D01*
X98919104Y-91761904D02*
X98823866Y-91714285D01*
X98823866Y-91714285D02*
X98776247Y-91666666D01*
X98776247Y-91666666D02*
X98728628Y-91571428D01*
X98728628Y-91571428D02*
X98681009Y-91380952D01*
X98681009Y-91380952D02*
X98633390Y-91285714D01*
X98633390Y-91285714D02*
X98585771Y-91238095D01*
X98585771Y-91238095D02*
X98490533Y-91190476D01*
X98490533Y-91190476D02*
X98395295Y-91190476D01*
X98395295Y-91190476D02*
X98300057Y-91238095D01*
X98300057Y-91238095D02*
X98252438Y-91285714D01*
X98252438Y-91285714D02*
X98204819Y-91380952D01*
X98204819Y-91380952D02*
X98204819Y-91619047D01*
X98204819Y-91619047D02*
X98252438Y-91761904D01*
X98204819Y-92095238D02*
X99204819Y-92333333D01*
X99204819Y-92333333D02*
X98490533Y-92523809D01*
X98490533Y-92523809D02*
X99204819Y-92714285D01*
X99204819Y-92714285D02*
X98204819Y-92952381D01*
X98300057Y-93285714D02*
X98252438Y-93333333D01*
X98252438Y-93333333D02*
X98204819Y-93428571D01*
X98204819Y-93428571D02*
X98204819Y-93666666D01*
X98204819Y-93666666D02*
X98252438Y-93761904D01*
X98252438Y-93761904D02*
X98300057Y-93809523D01*
X98300057Y-93809523D02*
X98395295Y-93857142D01*
X98395295Y-93857142D02*
X98490533Y-93857142D01*
X98490533Y-93857142D02*
X98633390Y-93809523D01*
X98633390Y-93809523D02*
X99204819Y-93238095D01*
X99204819Y-93238095D02*
X99204819Y-93857142D01*
X98204819Y-94476190D02*
X98204819Y-94571428D01*
X98204819Y-94571428D02*
X98252438Y-94666666D01*
X98252438Y-94666666D02*
X98300057Y-94714285D01*
X98300057Y-94714285D02*
X98395295Y-94761904D01*
X98395295Y-94761904D02*
X98585771Y-94809523D01*
X98585771Y-94809523D02*
X98823866Y-94809523D01*
X98823866Y-94809523D02*
X99014342Y-94761904D01*
X99014342Y-94761904D02*
X99109580Y-94714285D01*
X99109580Y-94714285D02*
X99157200Y-94666666D01*
X99157200Y-94666666D02*
X99204819Y-94571428D01*
X99204819Y-94571428D02*
X99204819Y-94476190D01*
X99204819Y-94476190D02*
X99157200Y-94380952D01*
X99157200Y-94380952D02*
X99109580Y-94333333D01*
X99109580Y-94333333D02*
X99014342Y-94285714D01*
X99014342Y-94285714D02*
X98823866Y-94238095D01*
X98823866Y-94238095D02*
X98585771Y-94238095D01*
X98585771Y-94238095D02*
X98395295Y-94285714D01*
X98395295Y-94285714D02*
X98300057Y-94333333D01*
X98300057Y-94333333D02*
X98252438Y-94380952D01*
X98252438Y-94380952D02*
X98204819Y-94476190D01*
X73162200Y-104666667D02*
X73209819Y-104809524D01*
X73209819Y-104809524D02*
X73209819Y-105047619D01*
X73209819Y-105047619D02*
X73162200Y-105142857D01*
X73162200Y-105142857D02*
X73114580Y-105190476D01*
X73114580Y-105190476D02*
X73019342Y-105238095D01*
X73019342Y-105238095D02*
X72924104Y-105238095D01*
X72924104Y-105238095D02*
X72828866Y-105190476D01*
X72828866Y-105190476D02*
X72781247Y-105142857D01*
X72781247Y-105142857D02*
X72733628Y-105047619D01*
X72733628Y-105047619D02*
X72686009Y-104857143D01*
X72686009Y-104857143D02*
X72638390Y-104761905D01*
X72638390Y-104761905D02*
X72590771Y-104714286D01*
X72590771Y-104714286D02*
X72495533Y-104666667D01*
X72495533Y-104666667D02*
X72400295Y-104666667D01*
X72400295Y-104666667D02*
X72305057Y-104714286D01*
X72305057Y-104714286D02*
X72257438Y-104761905D01*
X72257438Y-104761905D02*
X72209819Y-104857143D01*
X72209819Y-104857143D02*
X72209819Y-105095238D01*
X72209819Y-105095238D02*
X72257438Y-105238095D01*
X72209819Y-105571429D02*
X73209819Y-105809524D01*
X73209819Y-105809524D02*
X72495533Y-106000000D01*
X72495533Y-106000000D02*
X73209819Y-106190476D01*
X73209819Y-106190476D02*
X72209819Y-106428572D01*
X72209819Y-107238095D02*
X72209819Y-107047619D01*
X72209819Y-107047619D02*
X72257438Y-106952381D01*
X72257438Y-106952381D02*
X72305057Y-106904762D01*
X72305057Y-106904762D02*
X72447914Y-106809524D01*
X72447914Y-106809524D02*
X72638390Y-106761905D01*
X72638390Y-106761905D02*
X73019342Y-106761905D01*
X73019342Y-106761905D02*
X73114580Y-106809524D01*
X73114580Y-106809524D02*
X73162200Y-106857143D01*
X73162200Y-106857143D02*
X73209819Y-106952381D01*
X73209819Y-106952381D02*
X73209819Y-107142857D01*
X73209819Y-107142857D02*
X73162200Y-107238095D01*
X73162200Y-107238095D02*
X73114580Y-107285714D01*
X73114580Y-107285714D02*
X73019342Y-107333333D01*
X73019342Y-107333333D02*
X72781247Y-107333333D01*
X72781247Y-107333333D02*
X72686009Y-107285714D01*
X72686009Y-107285714D02*
X72638390Y-107238095D01*
X72638390Y-107238095D02*
X72590771Y-107142857D01*
X72590771Y-107142857D02*
X72590771Y-106952381D01*
X72590771Y-106952381D02*
X72638390Y-106857143D01*
X72638390Y-106857143D02*
X72686009Y-106809524D01*
X72686009Y-106809524D02*
X72781247Y-106761905D01*
X67095238Y-88040057D02*
X67190476Y-87992438D01*
X67190476Y-87992438D02*
X67285714Y-87897200D01*
X67285714Y-87897200D02*
X67428571Y-87754342D01*
X67428571Y-87754342D02*
X67523809Y-87706723D01*
X67523809Y-87706723D02*
X67619047Y-87706723D01*
X67571428Y-87944819D02*
X67666666Y-87897200D01*
X67666666Y-87897200D02*
X67761904Y-87801961D01*
X67761904Y-87801961D02*
X67809523Y-87611485D01*
X67809523Y-87611485D02*
X67809523Y-87278152D01*
X67809523Y-87278152D02*
X67761904Y-87087676D01*
X67761904Y-87087676D02*
X67666666Y-86992438D01*
X67666666Y-86992438D02*
X67571428Y-86944819D01*
X67571428Y-86944819D02*
X67380952Y-86944819D01*
X67380952Y-86944819D02*
X67285714Y-86992438D01*
X67285714Y-86992438D02*
X67190476Y-87087676D01*
X67190476Y-87087676D02*
X67142857Y-87278152D01*
X67142857Y-87278152D02*
X67142857Y-87611485D01*
X67142857Y-87611485D02*
X67190476Y-87801961D01*
X67190476Y-87801961D02*
X67285714Y-87897200D01*
X67285714Y-87897200D02*
X67380952Y-87944819D01*
X67380952Y-87944819D02*
X67571428Y-87944819D01*
X66761904Y-87040057D02*
X66714285Y-86992438D01*
X66714285Y-86992438D02*
X66619047Y-86944819D01*
X66619047Y-86944819D02*
X66380952Y-86944819D01*
X66380952Y-86944819D02*
X66285714Y-86992438D01*
X66285714Y-86992438D02*
X66238095Y-87040057D01*
X66238095Y-87040057D02*
X66190476Y-87135295D01*
X66190476Y-87135295D02*
X66190476Y-87230533D01*
X66190476Y-87230533D02*
X66238095Y-87373390D01*
X66238095Y-87373390D02*
X66809523Y-87944819D01*
X66809523Y-87944819D02*
X66190476Y-87944819D01*
X73162200Y-38166667D02*
X73209819Y-38309524D01*
X73209819Y-38309524D02*
X73209819Y-38547619D01*
X73209819Y-38547619D02*
X73162200Y-38642857D01*
X73162200Y-38642857D02*
X73114580Y-38690476D01*
X73114580Y-38690476D02*
X73019342Y-38738095D01*
X73019342Y-38738095D02*
X72924104Y-38738095D01*
X72924104Y-38738095D02*
X72828866Y-38690476D01*
X72828866Y-38690476D02*
X72781247Y-38642857D01*
X72781247Y-38642857D02*
X72733628Y-38547619D01*
X72733628Y-38547619D02*
X72686009Y-38357143D01*
X72686009Y-38357143D02*
X72638390Y-38261905D01*
X72638390Y-38261905D02*
X72590771Y-38214286D01*
X72590771Y-38214286D02*
X72495533Y-38166667D01*
X72495533Y-38166667D02*
X72400295Y-38166667D01*
X72400295Y-38166667D02*
X72305057Y-38214286D01*
X72305057Y-38214286D02*
X72257438Y-38261905D01*
X72257438Y-38261905D02*
X72209819Y-38357143D01*
X72209819Y-38357143D02*
X72209819Y-38595238D01*
X72209819Y-38595238D02*
X72257438Y-38738095D01*
X72209819Y-39071429D02*
X73209819Y-39309524D01*
X73209819Y-39309524D02*
X72495533Y-39500000D01*
X72495533Y-39500000D02*
X73209819Y-39690476D01*
X73209819Y-39690476D02*
X72209819Y-39928572D01*
X72209819Y-40214286D02*
X72209819Y-40833333D01*
X72209819Y-40833333D02*
X72590771Y-40500000D01*
X72590771Y-40500000D02*
X72590771Y-40642857D01*
X72590771Y-40642857D02*
X72638390Y-40738095D01*
X72638390Y-40738095D02*
X72686009Y-40785714D01*
X72686009Y-40785714D02*
X72781247Y-40833333D01*
X72781247Y-40833333D02*
X73019342Y-40833333D01*
X73019342Y-40833333D02*
X73114580Y-40785714D01*
X73114580Y-40785714D02*
X73162200Y-40738095D01*
X73162200Y-40738095D02*
X73209819Y-40642857D01*
X73209819Y-40642857D02*
X73209819Y-40357143D01*
X73209819Y-40357143D02*
X73162200Y-40261905D01*
X73162200Y-40261905D02*
X73114580Y-40214286D01*
X73162200Y-57166667D02*
X73209819Y-57309524D01*
X73209819Y-57309524D02*
X73209819Y-57547619D01*
X73209819Y-57547619D02*
X73162200Y-57642857D01*
X73162200Y-57642857D02*
X73114580Y-57690476D01*
X73114580Y-57690476D02*
X73019342Y-57738095D01*
X73019342Y-57738095D02*
X72924104Y-57738095D01*
X72924104Y-57738095D02*
X72828866Y-57690476D01*
X72828866Y-57690476D02*
X72781247Y-57642857D01*
X72781247Y-57642857D02*
X72733628Y-57547619D01*
X72733628Y-57547619D02*
X72686009Y-57357143D01*
X72686009Y-57357143D02*
X72638390Y-57261905D01*
X72638390Y-57261905D02*
X72590771Y-57214286D01*
X72590771Y-57214286D02*
X72495533Y-57166667D01*
X72495533Y-57166667D02*
X72400295Y-57166667D01*
X72400295Y-57166667D02*
X72305057Y-57214286D01*
X72305057Y-57214286D02*
X72257438Y-57261905D01*
X72257438Y-57261905D02*
X72209819Y-57357143D01*
X72209819Y-57357143D02*
X72209819Y-57595238D01*
X72209819Y-57595238D02*
X72257438Y-57738095D01*
X72209819Y-58071429D02*
X73209819Y-58309524D01*
X73209819Y-58309524D02*
X72495533Y-58500000D01*
X72495533Y-58500000D02*
X73209819Y-58690476D01*
X73209819Y-58690476D02*
X72209819Y-58928572D01*
X72543152Y-59738095D02*
X73209819Y-59738095D01*
X72162200Y-59500000D02*
X72876485Y-59261905D01*
X72876485Y-59261905D02*
X72876485Y-59880952D01*
X111162200Y-68690476D02*
X111209819Y-68833333D01*
X111209819Y-68833333D02*
X111209819Y-69071428D01*
X111209819Y-69071428D02*
X111162200Y-69166666D01*
X111162200Y-69166666D02*
X111114580Y-69214285D01*
X111114580Y-69214285D02*
X111019342Y-69261904D01*
X111019342Y-69261904D02*
X110924104Y-69261904D01*
X110924104Y-69261904D02*
X110828866Y-69214285D01*
X110828866Y-69214285D02*
X110781247Y-69166666D01*
X110781247Y-69166666D02*
X110733628Y-69071428D01*
X110733628Y-69071428D02*
X110686009Y-68880952D01*
X110686009Y-68880952D02*
X110638390Y-68785714D01*
X110638390Y-68785714D02*
X110590771Y-68738095D01*
X110590771Y-68738095D02*
X110495533Y-68690476D01*
X110495533Y-68690476D02*
X110400295Y-68690476D01*
X110400295Y-68690476D02*
X110305057Y-68738095D01*
X110305057Y-68738095D02*
X110257438Y-68785714D01*
X110257438Y-68785714D02*
X110209819Y-68880952D01*
X110209819Y-68880952D02*
X110209819Y-69119047D01*
X110209819Y-69119047D02*
X110257438Y-69261904D01*
X110209819Y-69595238D02*
X111209819Y-69833333D01*
X111209819Y-69833333D02*
X110495533Y-70023809D01*
X110495533Y-70023809D02*
X111209819Y-70214285D01*
X111209819Y-70214285D02*
X110209819Y-70452381D01*
X111209819Y-71357142D02*
X111209819Y-70785714D01*
X111209819Y-71071428D02*
X110209819Y-71071428D01*
X110209819Y-71071428D02*
X110352676Y-70976190D01*
X110352676Y-70976190D02*
X110447914Y-70880952D01*
X110447914Y-70880952D02*
X110495533Y-70785714D01*
X110209819Y-71690476D02*
X110209819Y-72309523D01*
X110209819Y-72309523D02*
X110590771Y-71976190D01*
X110590771Y-71976190D02*
X110590771Y-72119047D01*
X110590771Y-72119047D02*
X110638390Y-72214285D01*
X110638390Y-72214285D02*
X110686009Y-72261904D01*
X110686009Y-72261904D02*
X110781247Y-72309523D01*
X110781247Y-72309523D02*
X111019342Y-72309523D01*
X111019342Y-72309523D02*
X111114580Y-72261904D01*
X111114580Y-72261904D02*
X111162200Y-72214285D01*
X111162200Y-72214285D02*
X111209819Y-72119047D01*
X111209819Y-72119047D02*
X111209819Y-71833333D01*
X111209819Y-71833333D02*
X111162200Y-71738095D01*
X111162200Y-71738095D02*
X111114580Y-71690476D01*
X44171792Y-59835819D02*
X44628935Y-59835819D01*
X44400363Y-59835819D02*
X44400363Y-58835819D01*
X44400363Y-58835819D02*
X44476554Y-58978676D01*
X44476554Y-58978676D02*
X44552744Y-59073914D01*
X44552744Y-59073914D02*
X44628935Y-59121533D01*
X43867030Y-58931057D02*
X43828934Y-58883438D01*
X43828934Y-58883438D02*
X43752744Y-58835819D01*
X43752744Y-58835819D02*
X43562268Y-58835819D01*
X43562268Y-58835819D02*
X43486077Y-58883438D01*
X43486077Y-58883438D02*
X43447982Y-58931057D01*
X43447982Y-58931057D02*
X43409887Y-59026295D01*
X43409887Y-59026295D02*
X43409887Y-59121533D01*
X43409887Y-59121533D02*
X43447982Y-59264390D01*
X43447982Y-59264390D02*
X43905125Y-59835819D01*
X43905125Y-59835819D02*
X43409887Y-59835819D01*
X56889887Y-48261569D02*
X57270839Y-48261569D01*
X57270839Y-48261569D02*
X57308935Y-48737759D01*
X57308935Y-48737759D02*
X57270839Y-48690140D01*
X57270839Y-48690140D02*
X57194649Y-48642521D01*
X57194649Y-48642521D02*
X57004173Y-48642521D01*
X57004173Y-48642521D02*
X56927982Y-48690140D01*
X56927982Y-48690140D02*
X56889887Y-48737759D01*
X56889887Y-48737759D02*
X56851792Y-48832997D01*
X56851792Y-48832997D02*
X56851792Y-49071092D01*
X56851792Y-49071092D02*
X56889887Y-49166330D01*
X56889887Y-49166330D02*
X56927982Y-49213950D01*
X56927982Y-49213950D02*
X57004173Y-49261569D01*
X57004173Y-49261569D02*
X57194649Y-49261569D01*
X57194649Y-49261569D02*
X57270839Y-49213950D01*
X57270839Y-49213950D02*
X57308935Y-49166330D01*
X57118458Y-35561569D02*
X57042268Y-35561569D01*
X57042268Y-35561569D02*
X56966077Y-35609188D01*
X56966077Y-35609188D02*
X56927982Y-35656807D01*
X56927982Y-35656807D02*
X56889887Y-35752045D01*
X56889887Y-35752045D02*
X56851792Y-35942521D01*
X56851792Y-35942521D02*
X56851792Y-36180616D01*
X56851792Y-36180616D02*
X56889887Y-36371092D01*
X56889887Y-36371092D02*
X56927982Y-36466330D01*
X56927982Y-36466330D02*
X56966077Y-36513950D01*
X56966077Y-36513950D02*
X57042268Y-36561569D01*
X57042268Y-36561569D02*
X57118458Y-36561569D01*
X57118458Y-36561569D02*
X57194649Y-36513950D01*
X57194649Y-36513950D02*
X57232744Y-36466330D01*
X57232744Y-36466330D02*
X57270839Y-36371092D01*
X57270839Y-36371092D02*
X57308935Y-36180616D01*
X57308935Y-36180616D02*
X57308935Y-35942521D01*
X57308935Y-35942521D02*
X57270839Y-35752045D01*
X57270839Y-35752045D02*
X57232744Y-35656807D01*
X57232744Y-35656807D02*
X57194649Y-35609188D01*
X57194649Y-35609188D02*
X57118458Y-35561569D01*
X57156554Y-56310140D02*
X57232744Y-56262521D01*
X57232744Y-56262521D02*
X57270839Y-56214902D01*
X57270839Y-56214902D02*
X57308935Y-56119664D01*
X57308935Y-56119664D02*
X57308935Y-56072045D01*
X57308935Y-56072045D02*
X57270839Y-55976807D01*
X57270839Y-55976807D02*
X57232744Y-55929188D01*
X57232744Y-55929188D02*
X57156554Y-55881569D01*
X57156554Y-55881569D02*
X57004173Y-55881569D01*
X57004173Y-55881569D02*
X56927982Y-55929188D01*
X56927982Y-55929188D02*
X56889887Y-55976807D01*
X56889887Y-55976807D02*
X56851792Y-56072045D01*
X56851792Y-56072045D02*
X56851792Y-56119664D01*
X56851792Y-56119664D02*
X56889887Y-56214902D01*
X56889887Y-56214902D02*
X56927982Y-56262521D01*
X56927982Y-56262521D02*
X57004173Y-56310140D01*
X57004173Y-56310140D02*
X57156554Y-56310140D01*
X57156554Y-56310140D02*
X57232744Y-56357759D01*
X57232744Y-56357759D02*
X57270839Y-56405378D01*
X57270839Y-56405378D02*
X57308935Y-56500616D01*
X57308935Y-56500616D02*
X57308935Y-56691092D01*
X57308935Y-56691092D02*
X57270839Y-56786330D01*
X57270839Y-56786330D02*
X57232744Y-56833950D01*
X57232744Y-56833950D02*
X57156554Y-56881569D01*
X57156554Y-56881569D02*
X57004173Y-56881569D01*
X57004173Y-56881569D02*
X56927982Y-56833950D01*
X56927982Y-56833950D02*
X56889887Y-56786330D01*
X56889887Y-56786330D02*
X56851792Y-56691092D01*
X56851792Y-56691092D02*
X56851792Y-56500616D01*
X56851792Y-56500616D02*
X56889887Y-56405378D01*
X56889887Y-56405378D02*
X56927982Y-56357759D01*
X56927982Y-56357759D02*
X57004173Y-56310140D01*
X56927982Y-46054902D02*
X56927982Y-46721569D01*
X57118458Y-45673950D02*
X57308935Y-46388235D01*
X57308935Y-46388235D02*
X56813696Y-46388235D01*
X56927982Y-50801569D02*
X57080363Y-50801569D01*
X57080363Y-50801569D02*
X57156554Y-50849188D01*
X57156554Y-50849188D02*
X57194649Y-50896807D01*
X57194649Y-50896807D02*
X57270839Y-51039664D01*
X57270839Y-51039664D02*
X57308935Y-51230140D01*
X57308935Y-51230140D02*
X57308935Y-51611092D01*
X57308935Y-51611092D02*
X57270839Y-51706330D01*
X57270839Y-51706330D02*
X57232744Y-51753950D01*
X57232744Y-51753950D02*
X57156554Y-51801569D01*
X57156554Y-51801569D02*
X57004173Y-51801569D01*
X57004173Y-51801569D02*
X56927982Y-51753950D01*
X56927982Y-51753950D02*
X56889887Y-51706330D01*
X56889887Y-51706330D02*
X56851792Y-51611092D01*
X56851792Y-51611092D02*
X56851792Y-51372997D01*
X56851792Y-51372997D02*
X56889887Y-51277759D01*
X56889887Y-51277759D02*
X56927982Y-51230140D01*
X56927982Y-51230140D02*
X57004173Y-51182521D01*
X57004173Y-51182521D02*
X57156554Y-51182521D01*
X57156554Y-51182521D02*
X57232744Y-51230140D01*
X57232744Y-51230140D02*
X57270839Y-51277759D01*
X57270839Y-51277759D02*
X57308935Y-51372997D01*
X56851792Y-39101569D02*
X57308935Y-39101569D01*
X57080363Y-39101569D02*
X57080363Y-38101569D01*
X57080363Y-38101569D02*
X57156554Y-38244426D01*
X57156554Y-38244426D02*
X57232744Y-38339664D01*
X57232744Y-38339664D02*
X57308935Y-38387283D01*
X49251792Y-59835819D02*
X49708935Y-59835819D01*
X49480363Y-59835819D02*
X49480363Y-58835819D01*
X49480363Y-58835819D02*
X49556554Y-58978676D01*
X49556554Y-58978676D02*
X49632744Y-59073914D01*
X49632744Y-59073914D02*
X49708935Y-59121533D01*
X48756553Y-58835819D02*
X48680363Y-58835819D01*
X48680363Y-58835819D02*
X48604172Y-58883438D01*
X48604172Y-58883438D02*
X48566077Y-58931057D01*
X48566077Y-58931057D02*
X48527982Y-59026295D01*
X48527982Y-59026295D02*
X48489887Y-59216771D01*
X48489887Y-59216771D02*
X48489887Y-59454866D01*
X48489887Y-59454866D02*
X48527982Y-59645342D01*
X48527982Y-59645342D02*
X48566077Y-59740580D01*
X48566077Y-59740580D02*
X48604172Y-59788200D01*
X48604172Y-59788200D02*
X48680363Y-59835819D01*
X48680363Y-59835819D02*
X48756553Y-59835819D01*
X48756553Y-59835819D02*
X48832744Y-59788200D01*
X48832744Y-59788200D02*
X48870839Y-59740580D01*
X48870839Y-59740580D02*
X48908934Y-59645342D01*
X48908934Y-59645342D02*
X48947030Y-59454866D01*
X48947030Y-59454866D02*
X48947030Y-59216771D01*
X48947030Y-59216771D02*
X48908934Y-59026295D01*
X48908934Y-59026295D02*
X48870839Y-58931057D01*
X48870839Y-58931057D02*
X48832744Y-58883438D01*
X48832744Y-58883438D02*
X48756553Y-58835819D01*
X51778697Y-59835819D02*
X51626316Y-59835819D01*
X51626316Y-59835819D02*
X51550126Y-59788200D01*
X51550126Y-59788200D02*
X51512030Y-59740580D01*
X51512030Y-59740580D02*
X51435840Y-59597723D01*
X51435840Y-59597723D02*
X51397745Y-59407247D01*
X51397745Y-59407247D02*
X51397745Y-59026295D01*
X51397745Y-59026295D02*
X51435840Y-58931057D01*
X51435840Y-58931057D02*
X51473935Y-58883438D01*
X51473935Y-58883438D02*
X51550126Y-58835819D01*
X51550126Y-58835819D02*
X51702507Y-58835819D01*
X51702507Y-58835819D02*
X51778697Y-58883438D01*
X51778697Y-58883438D02*
X51816792Y-58931057D01*
X51816792Y-58931057D02*
X51854888Y-59026295D01*
X51854888Y-59026295D02*
X51854888Y-59264390D01*
X51854888Y-59264390D02*
X51816792Y-59359628D01*
X51816792Y-59359628D02*
X51778697Y-59407247D01*
X51778697Y-59407247D02*
X51702507Y-59454866D01*
X51702507Y-59454866D02*
X51550126Y-59454866D01*
X51550126Y-59454866D02*
X51473935Y-59407247D01*
X51473935Y-59407247D02*
X51435840Y-59359628D01*
X51435840Y-59359628D02*
X51397745Y-59264390D01*
X57308935Y-40736807D02*
X57270839Y-40689188D01*
X57270839Y-40689188D02*
X57194649Y-40641569D01*
X57194649Y-40641569D02*
X57004173Y-40641569D01*
X57004173Y-40641569D02*
X56927982Y-40689188D01*
X56927982Y-40689188D02*
X56889887Y-40736807D01*
X56889887Y-40736807D02*
X56851792Y-40832045D01*
X56851792Y-40832045D02*
X56851792Y-40927283D01*
X56851792Y-40927283D02*
X56889887Y-41070140D01*
X56889887Y-41070140D02*
X57347030Y-41641569D01*
X57347030Y-41641569D02*
X56851792Y-41641569D01*
X41618697Y-59835819D02*
X42075840Y-59835819D01*
X41847268Y-59835819D02*
X41847268Y-58835819D01*
X41847268Y-58835819D02*
X41923459Y-58978676D01*
X41923459Y-58978676D02*
X41999649Y-59073914D01*
X41999649Y-59073914D02*
X42075840Y-59121533D01*
X41352030Y-58835819D02*
X40856792Y-58835819D01*
X40856792Y-58835819D02*
X41123458Y-59216771D01*
X41123458Y-59216771D02*
X41009173Y-59216771D01*
X41009173Y-59216771D02*
X40932982Y-59264390D01*
X40932982Y-59264390D02*
X40894887Y-59312009D01*
X40894887Y-59312009D02*
X40856792Y-59407247D01*
X40856792Y-59407247D02*
X40856792Y-59645342D01*
X40856792Y-59645342D02*
X40894887Y-59740580D01*
X40894887Y-59740580D02*
X40932982Y-59788200D01*
X40932982Y-59788200D02*
X41009173Y-59835819D01*
X41009173Y-59835819D02*
X41237744Y-59835819D01*
X41237744Y-59835819D02*
X41313935Y-59788200D01*
X41313935Y-59788200D02*
X41352030Y-59740580D01*
X57347030Y-53341569D02*
X56813696Y-53341569D01*
X56813696Y-53341569D02*
X57156554Y-54341569D01*
X57347030Y-43181569D02*
X56851792Y-43181569D01*
X56851792Y-43181569D02*
X57118458Y-43562521D01*
X57118458Y-43562521D02*
X57004173Y-43562521D01*
X57004173Y-43562521D02*
X56927982Y-43610140D01*
X56927982Y-43610140D02*
X56889887Y-43657759D01*
X56889887Y-43657759D02*
X56851792Y-43752997D01*
X56851792Y-43752997D02*
X56851792Y-43991092D01*
X56851792Y-43991092D02*
X56889887Y-44086330D01*
X56889887Y-44086330D02*
X56927982Y-44133950D01*
X56927982Y-44133950D02*
X57004173Y-44181569D01*
X57004173Y-44181569D02*
X57232744Y-44181569D01*
X57232744Y-44181569D02*
X57308935Y-44133950D01*
X57308935Y-44133950D02*
X57347030Y-44086330D01*
X46711792Y-59835819D02*
X47168935Y-59835819D01*
X46940363Y-59835819D02*
X46940363Y-58835819D01*
X46940363Y-58835819D02*
X47016554Y-58978676D01*
X47016554Y-58978676D02*
X47092744Y-59073914D01*
X47092744Y-59073914D02*
X47168935Y-59121533D01*
X45949887Y-59835819D02*
X46407030Y-59835819D01*
X46178458Y-59835819D02*
X46178458Y-58835819D01*
X46178458Y-58835819D02*
X46254649Y-58978676D01*
X46254649Y-58978676D02*
X46330839Y-59073914D01*
X46330839Y-59073914D02*
X46407030Y-59121533D01*
X73162200Y-76166667D02*
X73209819Y-76309524D01*
X73209819Y-76309524D02*
X73209819Y-76547619D01*
X73209819Y-76547619D02*
X73162200Y-76642857D01*
X73162200Y-76642857D02*
X73114580Y-76690476D01*
X73114580Y-76690476D02*
X73019342Y-76738095D01*
X73019342Y-76738095D02*
X72924104Y-76738095D01*
X72924104Y-76738095D02*
X72828866Y-76690476D01*
X72828866Y-76690476D02*
X72781247Y-76642857D01*
X72781247Y-76642857D02*
X72733628Y-76547619D01*
X72733628Y-76547619D02*
X72686009Y-76357143D01*
X72686009Y-76357143D02*
X72638390Y-76261905D01*
X72638390Y-76261905D02*
X72590771Y-76214286D01*
X72590771Y-76214286D02*
X72495533Y-76166667D01*
X72495533Y-76166667D02*
X72400295Y-76166667D01*
X72400295Y-76166667D02*
X72305057Y-76214286D01*
X72305057Y-76214286D02*
X72257438Y-76261905D01*
X72257438Y-76261905D02*
X72209819Y-76357143D01*
X72209819Y-76357143D02*
X72209819Y-76595238D01*
X72209819Y-76595238D02*
X72257438Y-76738095D01*
X72209819Y-77071429D02*
X73209819Y-77309524D01*
X73209819Y-77309524D02*
X72495533Y-77500000D01*
X72495533Y-77500000D02*
X73209819Y-77690476D01*
X73209819Y-77690476D02*
X72209819Y-77928572D01*
X72209819Y-78785714D02*
X72209819Y-78309524D01*
X72209819Y-78309524D02*
X72686009Y-78261905D01*
X72686009Y-78261905D02*
X72638390Y-78309524D01*
X72638390Y-78309524D02*
X72590771Y-78404762D01*
X72590771Y-78404762D02*
X72590771Y-78642857D01*
X72590771Y-78642857D02*
X72638390Y-78738095D01*
X72638390Y-78738095D02*
X72686009Y-78785714D01*
X72686009Y-78785714D02*
X72781247Y-78833333D01*
X72781247Y-78833333D02*
X73019342Y-78833333D01*
X73019342Y-78833333D02*
X73114580Y-78785714D01*
X73114580Y-78785714D02*
X73162200Y-78738095D01*
X73162200Y-78738095D02*
X73209819Y-78642857D01*
X73209819Y-78642857D02*
X73209819Y-78404762D01*
X73209819Y-78404762D02*
X73162200Y-78309524D01*
X73162200Y-78309524D02*
X73114580Y-78261905D01*
X111162200Y-49690476D02*
X111209819Y-49833333D01*
X111209819Y-49833333D02*
X111209819Y-50071428D01*
X111209819Y-50071428D02*
X111162200Y-50166666D01*
X111162200Y-50166666D02*
X111114580Y-50214285D01*
X111114580Y-50214285D02*
X111019342Y-50261904D01*
X111019342Y-50261904D02*
X110924104Y-50261904D01*
X110924104Y-50261904D02*
X110828866Y-50214285D01*
X110828866Y-50214285D02*
X110781247Y-50166666D01*
X110781247Y-50166666D02*
X110733628Y-50071428D01*
X110733628Y-50071428D02*
X110686009Y-49880952D01*
X110686009Y-49880952D02*
X110638390Y-49785714D01*
X110638390Y-49785714D02*
X110590771Y-49738095D01*
X110590771Y-49738095D02*
X110495533Y-49690476D01*
X110495533Y-49690476D02*
X110400295Y-49690476D01*
X110400295Y-49690476D02*
X110305057Y-49738095D01*
X110305057Y-49738095D02*
X110257438Y-49785714D01*
X110257438Y-49785714D02*
X110209819Y-49880952D01*
X110209819Y-49880952D02*
X110209819Y-50119047D01*
X110209819Y-50119047D02*
X110257438Y-50261904D01*
X110209819Y-50595238D02*
X111209819Y-50833333D01*
X111209819Y-50833333D02*
X110495533Y-51023809D01*
X110495533Y-51023809D02*
X111209819Y-51214285D01*
X111209819Y-51214285D02*
X110209819Y-51452381D01*
X111209819Y-52357142D02*
X111209819Y-51785714D01*
X111209819Y-52071428D02*
X110209819Y-52071428D01*
X110209819Y-52071428D02*
X110352676Y-51976190D01*
X110352676Y-51976190D02*
X110447914Y-51880952D01*
X110447914Y-51880952D02*
X110495533Y-51785714D01*
X110305057Y-52738095D02*
X110257438Y-52785714D01*
X110257438Y-52785714D02*
X110209819Y-52880952D01*
X110209819Y-52880952D02*
X110209819Y-53119047D01*
X110209819Y-53119047D02*
X110257438Y-53214285D01*
X110257438Y-53214285D02*
X110305057Y-53261904D01*
X110305057Y-53261904D02*
X110400295Y-53309523D01*
X110400295Y-53309523D02*
X110495533Y-53309523D01*
X110495533Y-53309523D02*
X110638390Y-53261904D01*
X110638390Y-53261904D02*
X111209819Y-52690476D01*
X111209819Y-52690476D02*
X111209819Y-53309523D01*
X130162200Y-52690476D02*
X130209819Y-52833333D01*
X130209819Y-52833333D02*
X130209819Y-53071428D01*
X130209819Y-53071428D02*
X130162200Y-53166666D01*
X130162200Y-53166666D02*
X130114580Y-53214285D01*
X130114580Y-53214285D02*
X130019342Y-53261904D01*
X130019342Y-53261904D02*
X129924104Y-53261904D01*
X129924104Y-53261904D02*
X129828866Y-53214285D01*
X129828866Y-53214285D02*
X129781247Y-53166666D01*
X129781247Y-53166666D02*
X129733628Y-53071428D01*
X129733628Y-53071428D02*
X129686009Y-52880952D01*
X129686009Y-52880952D02*
X129638390Y-52785714D01*
X129638390Y-52785714D02*
X129590771Y-52738095D01*
X129590771Y-52738095D02*
X129495533Y-52690476D01*
X129495533Y-52690476D02*
X129400295Y-52690476D01*
X129400295Y-52690476D02*
X129305057Y-52738095D01*
X129305057Y-52738095D02*
X129257438Y-52785714D01*
X129257438Y-52785714D02*
X129209819Y-52880952D01*
X129209819Y-52880952D02*
X129209819Y-53119047D01*
X129209819Y-53119047D02*
X129257438Y-53261904D01*
X129209819Y-53595238D02*
X130209819Y-53833333D01*
X130209819Y-53833333D02*
X129495533Y-54023809D01*
X129495533Y-54023809D02*
X130209819Y-54214285D01*
X130209819Y-54214285D02*
X129209819Y-54452381D01*
X130209819Y-55357142D02*
X130209819Y-54785714D01*
X130209819Y-55071428D02*
X129209819Y-55071428D01*
X129209819Y-55071428D02*
X129352676Y-54976190D01*
X129352676Y-54976190D02*
X129447914Y-54880952D01*
X129447914Y-54880952D02*
X129495533Y-54785714D01*
X129209819Y-56261904D02*
X129209819Y-55785714D01*
X129209819Y-55785714D02*
X129686009Y-55738095D01*
X129686009Y-55738095D02*
X129638390Y-55785714D01*
X129638390Y-55785714D02*
X129590771Y-55880952D01*
X129590771Y-55880952D02*
X129590771Y-56119047D01*
X129590771Y-56119047D02*
X129638390Y-56214285D01*
X129638390Y-56214285D02*
X129686009Y-56261904D01*
X129686009Y-56261904D02*
X129781247Y-56309523D01*
X129781247Y-56309523D02*
X130019342Y-56309523D01*
X130019342Y-56309523D02*
X130114580Y-56261904D01*
X130114580Y-56261904D02*
X130162200Y-56214285D01*
X130162200Y-56214285D02*
X130209819Y-56119047D01*
X130209819Y-56119047D02*
X130209819Y-55880952D01*
X130209819Y-55880952D02*
X130162200Y-55785714D01*
X130162200Y-55785714D02*
X130114580Y-55738095D01*
X92162200Y-102190476D02*
X92209819Y-102333333D01*
X92209819Y-102333333D02*
X92209819Y-102571428D01*
X92209819Y-102571428D02*
X92162200Y-102666666D01*
X92162200Y-102666666D02*
X92114580Y-102714285D01*
X92114580Y-102714285D02*
X92019342Y-102761904D01*
X92019342Y-102761904D02*
X91924104Y-102761904D01*
X91924104Y-102761904D02*
X91828866Y-102714285D01*
X91828866Y-102714285D02*
X91781247Y-102666666D01*
X91781247Y-102666666D02*
X91733628Y-102571428D01*
X91733628Y-102571428D02*
X91686009Y-102380952D01*
X91686009Y-102380952D02*
X91638390Y-102285714D01*
X91638390Y-102285714D02*
X91590771Y-102238095D01*
X91590771Y-102238095D02*
X91495533Y-102190476D01*
X91495533Y-102190476D02*
X91400295Y-102190476D01*
X91400295Y-102190476D02*
X91305057Y-102238095D01*
X91305057Y-102238095D02*
X91257438Y-102285714D01*
X91257438Y-102285714D02*
X91209819Y-102380952D01*
X91209819Y-102380952D02*
X91209819Y-102619047D01*
X91209819Y-102619047D02*
X91257438Y-102761904D01*
X91209819Y-103095238D02*
X92209819Y-103333333D01*
X92209819Y-103333333D02*
X91495533Y-103523809D01*
X91495533Y-103523809D02*
X92209819Y-103714285D01*
X92209819Y-103714285D02*
X91209819Y-103952381D01*
X92209819Y-104857142D02*
X92209819Y-104285714D01*
X92209819Y-104571428D02*
X91209819Y-104571428D01*
X91209819Y-104571428D02*
X91352676Y-104476190D01*
X91352676Y-104476190D02*
X91447914Y-104380952D01*
X91447914Y-104380952D02*
X91495533Y-104285714D01*
X91209819Y-105476190D02*
X91209819Y-105571428D01*
X91209819Y-105571428D02*
X91257438Y-105666666D01*
X91257438Y-105666666D02*
X91305057Y-105714285D01*
X91305057Y-105714285D02*
X91400295Y-105761904D01*
X91400295Y-105761904D02*
X91590771Y-105809523D01*
X91590771Y-105809523D02*
X91828866Y-105809523D01*
X91828866Y-105809523D02*
X92019342Y-105761904D01*
X92019342Y-105761904D02*
X92114580Y-105714285D01*
X92114580Y-105714285D02*
X92162200Y-105666666D01*
X92162200Y-105666666D02*
X92209819Y-105571428D01*
X92209819Y-105571428D02*
X92209819Y-105476190D01*
X92209819Y-105476190D02*
X92162200Y-105380952D01*
X92162200Y-105380952D02*
X92114580Y-105333333D01*
X92114580Y-105333333D02*
X92019342Y-105285714D01*
X92019342Y-105285714D02*
X91828866Y-105238095D01*
X91828866Y-105238095D02*
X91590771Y-105238095D01*
X91590771Y-105238095D02*
X91400295Y-105285714D01*
X91400295Y-105285714D02*
X91305057Y-105333333D01*
X91305057Y-105333333D02*
X91257438Y-105380952D01*
X91257438Y-105380952D02*
X91209819Y-105476190D01*
X149162200Y-82190476D02*
X149209819Y-82333333D01*
X149209819Y-82333333D02*
X149209819Y-82571428D01*
X149209819Y-82571428D02*
X149162200Y-82666666D01*
X149162200Y-82666666D02*
X149114580Y-82714285D01*
X149114580Y-82714285D02*
X149019342Y-82761904D01*
X149019342Y-82761904D02*
X148924104Y-82761904D01*
X148924104Y-82761904D02*
X148828866Y-82714285D01*
X148828866Y-82714285D02*
X148781247Y-82666666D01*
X148781247Y-82666666D02*
X148733628Y-82571428D01*
X148733628Y-82571428D02*
X148686009Y-82380952D01*
X148686009Y-82380952D02*
X148638390Y-82285714D01*
X148638390Y-82285714D02*
X148590771Y-82238095D01*
X148590771Y-82238095D02*
X148495533Y-82190476D01*
X148495533Y-82190476D02*
X148400295Y-82190476D01*
X148400295Y-82190476D02*
X148305057Y-82238095D01*
X148305057Y-82238095D02*
X148257438Y-82285714D01*
X148257438Y-82285714D02*
X148209819Y-82380952D01*
X148209819Y-82380952D02*
X148209819Y-82619047D01*
X148209819Y-82619047D02*
X148257438Y-82761904D01*
X148209819Y-83095238D02*
X149209819Y-83333333D01*
X149209819Y-83333333D02*
X148495533Y-83523809D01*
X148495533Y-83523809D02*
X149209819Y-83714285D01*
X149209819Y-83714285D02*
X148209819Y-83952381D01*
X149209819Y-84857142D02*
X149209819Y-84285714D01*
X149209819Y-84571428D02*
X148209819Y-84571428D01*
X148209819Y-84571428D02*
X148352676Y-84476190D01*
X148352676Y-84476190D02*
X148447914Y-84380952D01*
X148447914Y-84380952D02*
X148495533Y-84285714D01*
X149209819Y-85333333D02*
X149209819Y-85523809D01*
X149209819Y-85523809D02*
X149162200Y-85619047D01*
X149162200Y-85619047D02*
X149114580Y-85666666D01*
X149114580Y-85666666D02*
X148971723Y-85761904D01*
X148971723Y-85761904D02*
X148781247Y-85809523D01*
X148781247Y-85809523D02*
X148400295Y-85809523D01*
X148400295Y-85809523D02*
X148305057Y-85761904D01*
X148305057Y-85761904D02*
X148257438Y-85714285D01*
X148257438Y-85714285D02*
X148209819Y-85619047D01*
X148209819Y-85619047D02*
X148209819Y-85428571D01*
X148209819Y-85428571D02*
X148257438Y-85333333D01*
X148257438Y-85333333D02*
X148305057Y-85285714D01*
X148305057Y-85285714D02*
X148400295Y-85238095D01*
X148400295Y-85238095D02*
X148638390Y-85238095D01*
X148638390Y-85238095D02*
X148733628Y-85285714D01*
X148733628Y-85285714D02*
X148781247Y-85333333D01*
X148781247Y-85333333D02*
X148828866Y-85428571D01*
X148828866Y-85428571D02*
X148828866Y-85619047D01*
X148828866Y-85619047D02*
X148781247Y-85714285D01*
X148781247Y-85714285D02*
X148733628Y-85761904D01*
X148733628Y-85761904D02*
X148638390Y-85809523D01*
X92162200Y-55166667D02*
X92209819Y-55309524D01*
X92209819Y-55309524D02*
X92209819Y-55547619D01*
X92209819Y-55547619D02*
X92162200Y-55642857D01*
X92162200Y-55642857D02*
X92114580Y-55690476D01*
X92114580Y-55690476D02*
X92019342Y-55738095D01*
X92019342Y-55738095D02*
X91924104Y-55738095D01*
X91924104Y-55738095D02*
X91828866Y-55690476D01*
X91828866Y-55690476D02*
X91781247Y-55642857D01*
X91781247Y-55642857D02*
X91733628Y-55547619D01*
X91733628Y-55547619D02*
X91686009Y-55357143D01*
X91686009Y-55357143D02*
X91638390Y-55261905D01*
X91638390Y-55261905D02*
X91590771Y-55214286D01*
X91590771Y-55214286D02*
X91495533Y-55166667D01*
X91495533Y-55166667D02*
X91400295Y-55166667D01*
X91400295Y-55166667D02*
X91305057Y-55214286D01*
X91305057Y-55214286D02*
X91257438Y-55261905D01*
X91257438Y-55261905D02*
X91209819Y-55357143D01*
X91209819Y-55357143D02*
X91209819Y-55595238D01*
X91209819Y-55595238D02*
X91257438Y-55738095D01*
X91209819Y-56071429D02*
X92209819Y-56309524D01*
X92209819Y-56309524D02*
X91495533Y-56500000D01*
X91495533Y-56500000D02*
X92209819Y-56690476D01*
X92209819Y-56690476D02*
X91209819Y-56928572D01*
X91638390Y-57452381D02*
X91590771Y-57357143D01*
X91590771Y-57357143D02*
X91543152Y-57309524D01*
X91543152Y-57309524D02*
X91447914Y-57261905D01*
X91447914Y-57261905D02*
X91400295Y-57261905D01*
X91400295Y-57261905D02*
X91305057Y-57309524D01*
X91305057Y-57309524D02*
X91257438Y-57357143D01*
X91257438Y-57357143D02*
X91209819Y-57452381D01*
X91209819Y-57452381D02*
X91209819Y-57642857D01*
X91209819Y-57642857D02*
X91257438Y-57738095D01*
X91257438Y-57738095D02*
X91305057Y-57785714D01*
X91305057Y-57785714D02*
X91400295Y-57833333D01*
X91400295Y-57833333D02*
X91447914Y-57833333D01*
X91447914Y-57833333D02*
X91543152Y-57785714D01*
X91543152Y-57785714D02*
X91590771Y-57738095D01*
X91590771Y-57738095D02*
X91638390Y-57642857D01*
X91638390Y-57642857D02*
X91638390Y-57452381D01*
X91638390Y-57452381D02*
X91686009Y-57357143D01*
X91686009Y-57357143D02*
X91733628Y-57309524D01*
X91733628Y-57309524D02*
X91828866Y-57261905D01*
X91828866Y-57261905D02*
X92019342Y-57261905D01*
X92019342Y-57261905D02*
X92114580Y-57309524D01*
X92114580Y-57309524D02*
X92162200Y-57357143D01*
X92162200Y-57357143D02*
X92209819Y-57452381D01*
X92209819Y-57452381D02*
X92209819Y-57642857D01*
X92209819Y-57642857D02*
X92162200Y-57738095D01*
X92162200Y-57738095D02*
X92114580Y-57785714D01*
X92114580Y-57785714D02*
X92019342Y-57833333D01*
X92019342Y-57833333D02*
X91828866Y-57833333D01*
X91828866Y-57833333D02*
X91733628Y-57785714D01*
X91733628Y-57785714D02*
X91686009Y-57738095D01*
X91686009Y-57738095D02*
X91638390Y-57642857D01*
X111162200Y-30690476D02*
X111209819Y-30833333D01*
X111209819Y-30833333D02*
X111209819Y-31071428D01*
X111209819Y-31071428D02*
X111162200Y-31166666D01*
X111162200Y-31166666D02*
X111114580Y-31214285D01*
X111114580Y-31214285D02*
X111019342Y-31261904D01*
X111019342Y-31261904D02*
X110924104Y-31261904D01*
X110924104Y-31261904D02*
X110828866Y-31214285D01*
X110828866Y-31214285D02*
X110781247Y-31166666D01*
X110781247Y-31166666D02*
X110733628Y-31071428D01*
X110733628Y-31071428D02*
X110686009Y-30880952D01*
X110686009Y-30880952D02*
X110638390Y-30785714D01*
X110638390Y-30785714D02*
X110590771Y-30738095D01*
X110590771Y-30738095D02*
X110495533Y-30690476D01*
X110495533Y-30690476D02*
X110400295Y-30690476D01*
X110400295Y-30690476D02*
X110305057Y-30738095D01*
X110305057Y-30738095D02*
X110257438Y-30785714D01*
X110257438Y-30785714D02*
X110209819Y-30880952D01*
X110209819Y-30880952D02*
X110209819Y-31119047D01*
X110209819Y-31119047D02*
X110257438Y-31261904D01*
X110209819Y-31595238D02*
X111209819Y-31833333D01*
X111209819Y-31833333D02*
X110495533Y-32023809D01*
X110495533Y-32023809D02*
X111209819Y-32214285D01*
X111209819Y-32214285D02*
X110209819Y-32452381D01*
X111209819Y-33357142D02*
X111209819Y-32785714D01*
X111209819Y-33071428D02*
X110209819Y-33071428D01*
X110209819Y-33071428D02*
X110352676Y-32976190D01*
X110352676Y-32976190D02*
X110447914Y-32880952D01*
X110447914Y-32880952D02*
X110495533Y-32785714D01*
X111209819Y-34309523D02*
X111209819Y-33738095D01*
X111209819Y-34023809D02*
X110209819Y-34023809D01*
X110209819Y-34023809D02*
X110352676Y-33928571D01*
X110352676Y-33928571D02*
X110447914Y-33833333D01*
X110447914Y-33833333D02*
X110495533Y-33738095D01*
X108595238Y-85300057D02*
X108690476Y-85252438D01*
X108690476Y-85252438D02*
X108785714Y-85157200D01*
X108785714Y-85157200D02*
X108928571Y-85014342D01*
X108928571Y-85014342D02*
X109023809Y-84966723D01*
X109023809Y-84966723D02*
X109119047Y-84966723D01*
X109071428Y-85204819D02*
X109166666Y-85157200D01*
X109166666Y-85157200D02*
X109261904Y-85061961D01*
X109261904Y-85061961D02*
X109309523Y-84871485D01*
X109309523Y-84871485D02*
X109309523Y-84538152D01*
X109309523Y-84538152D02*
X109261904Y-84347676D01*
X109261904Y-84347676D02*
X109166666Y-84252438D01*
X109166666Y-84252438D02*
X109071428Y-84204819D01*
X109071428Y-84204819D02*
X108880952Y-84204819D01*
X108880952Y-84204819D02*
X108785714Y-84252438D01*
X108785714Y-84252438D02*
X108690476Y-84347676D01*
X108690476Y-84347676D02*
X108642857Y-84538152D01*
X108642857Y-84538152D02*
X108642857Y-84871485D01*
X108642857Y-84871485D02*
X108690476Y-85061961D01*
X108690476Y-85061961D02*
X108785714Y-85157200D01*
X108785714Y-85157200D02*
X108880952Y-85204819D01*
X108880952Y-85204819D02*
X109071428Y-85204819D01*
X108309523Y-84204819D02*
X107690476Y-84204819D01*
X107690476Y-84204819D02*
X108023809Y-84585771D01*
X108023809Y-84585771D02*
X107880952Y-84585771D01*
X107880952Y-84585771D02*
X107785714Y-84633390D01*
X107785714Y-84633390D02*
X107738095Y-84681009D01*
X107738095Y-84681009D02*
X107690476Y-84776247D01*
X107690476Y-84776247D02*
X107690476Y-85014342D01*
X107690476Y-85014342D02*
X107738095Y-85109580D01*
X107738095Y-85109580D02*
X107785714Y-85157200D01*
X107785714Y-85157200D02*
X107880952Y-85204819D01*
X107880952Y-85204819D02*
X108166666Y-85204819D01*
X108166666Y-85204819D02*
X108261904Y-85157200D01*
X108261904Y-85157200D02*
X108309523Y-85109580D01*
X102595238Y-85300057D02*
X102690476Y-85252438D01*
X102690476Y-85252438D02*
X102785714Y-85157200D01*
X102785714Y-85157200D02*
X102928571Y-85014342D01*
X102928571Y-85014342D02*
X103023809Y-84966723D01*
X103023809Y-84966723D02*
X103119047Y-84966723D01*
X103071428Y-85204819D02*
X103166666Y-85157200D01*
X103166666Y-85157200D02*
X103261904Y-85061961D01*
X103261904Y-85061961D02*
X103309523Y-84871485D01*
X103309523Y-84871485D02*
X103309523Y-84538152D01*
X103309523Y-84538152D02*
X103261904Y-84347676D01*
X103261904Y-84347676D02*
X103166666Y-84252438D01*
X103166666Y-84252438D02*
X103071428Y-84204819D01*
X103071428Y-84204819D02*
X102880952Y-84204819D01*
X102880952Y-84204819D02*
X102785714Y-84252438D01*
X102785714Y-84252438D02*
X102690476Y-84347676D01*
X102690476Y-84347676D02*
X102642857Y-84538152D01*
X102642857Y-84538152D02*
X102642857Y-84871485D01*
X102642857Y-84871485D02*
X102690476Y-85061961D01*
X102690476Y-85061961D02*
X102785714Y-85157200D01*
X102785714Y-85157200D02*
X102880952Y-85204819D01*
X102880952Y-85204819D02*
X103071428Y-85204819D01*
X102261904Y-84300057D02*
X102214285Y-84252438D01*
X102214285Y-84252438D02*
X102119047Y-84204819D01*
X102119047Y-84204819D02*
X101880952Y-84204819D01*
X101880952Y-84204819D02*
X101785714Y-84252438D01*
X101785714Y-84252438D02*
X101738095Y-84300057D01*
X101738095Y-84300057D02*
X101690476Y-84395295D01*
X101690476Y-84395295D02*
X101690476Y-84490533D01*
X101690476Y-84490533D02*
X101738095Y-84633390D01*
X101738095Y-84633390D02*
X102309523Y-85204819D01*
X102309523Y-85204819D02*
X101690476Y-85204819D01*
X130162200Y-71690476D02*
X130209819Y-71833333D01*
X130209819Y-71833333D02*
X130209819Y-72071428D01*
X130209819Y-72071428D02*
X130162200Y-72166666D01*
X130162200Y-72166666D02*
X130114580Y-72214285D01*
X130114580Y-72214285D02*
X130019342Y-72261904D01*
X130019342Y-72261904D02*
X129924104Y-72261904D01*
X129924104Y-72261904D02*
X129828866Y-72214285D01*
X129828866Y-72214285D02*
X129781247Y-72166666D01*
X129781247Y-72166666D02*
X129733628Y-72071428D01*
X129733628Y-72071428D02*
X129686009Y-71880952D01*
X129686009Y-71880952D02*
X129638390Y-71785714D01*
X129638390Y-71785714D02*
X129590771Y-71738095D01*
X129590771Y-71738095D02*
X129495533Y-71690476D01*
X129495533Y-71690476D02*
X129400295Y-71690476D01*
X129400295Y-71690476D02*
X129305057Y-71738095D01*
X129305057Y-71738095D02*
X129257438Y-71785714D01*
X129257438Y-71785714D02*
X129209819Y-71880952D01*
X129209819Y-71880952D02*
X129209819Y-72119047D01*
X129209819Y-72119047D02*
X129257438Y-72261904D01*
X129209819Y-72595238D02*
X130209819Y-72833333D01*
X130209819Y-72833333D02*
X129495533Y-73023809D01*
X129495533Y-73023809D02*
X130209819Y-73214285D01*
X130209819Y-73214285D02*
X129209819Y-73452381D01*
X130209819Y-74357142D02*
X130209819Y-73785714D01*
X130209819Y-74071428D02*
X129209819Y-74071428D01*
X129209819Y-74071428D02*
X129352676Y-73976190D01*
X129352676Y-73976190D02*
X129447914Y-73880952D01*
X129447914Y-73880952D02*
X129495533Y-73785714D01*
X129209819Y-75214285D02*
X129209819Y-75023809D01*
X129209819Y-75023809D02*
X129257438Y-74928571D01*
X129257438Y-74928571D02*
X129305057Y-74880952D01*
X129305057Y-74880952D02*
X129447914Y-74785714D01*
X129447914Y-74785714D02*
X129638390Y-74738095D01*
X129638390Y-74738095D02*
X130019342Y-74738095D01*
X130019342Y-74738095D02*
X130114580Y-74785714D01*
X130114580Y-74785714D02*
X130162200Y-74833333D01*
X130162200Y-74833333D02*
X130209819Y-74928571D01*
X130209819Y-74928571D02*
X130209819Y-75119047D01*
X130209819Y-75119047D02*
X130162200Y-75214285D01*
X130162200Y-75214285D02*
X130114580Y-75261904D01*
X130114580Y-75261904D02*
X130019342Y-75309523D01*
X130019342Y-75309523D02*
X129781247Y-75309523D01*
X129781247Y-75309523D02*
X129686009Y-75261904D01*
X129686009Y-75261904D02*
X129638390Y-75214285D01*
X129638390Y-75214285D02*
X129590771Y-75119047D01*
X129590771Y-75119047D02*
X129590771Y-74928571D01*
X129590771Y-74928571D02*
X129638390Y-74833333D01*
X129638390Y-74833333D02*
X129686009Y-74785714D01*
X129686009Y-74785714D02*
X129781247Y-74738095D01*
X92162200Y-74166667D02*
X92209819Y-74309524D01*
X92209819Y-74309524D02*
X92209819Y-74547619D01*
X92209819Y-74547619D02*
X92162200Y-74642857D01*
X92162200Y-74642857D02*
X92114580Y-74690476D01*
X92114580Y-74690476D02*
X92019342Y-74738095D01*
X92019342Y-74738095D02*
X91924104Y-74738095D01*
X91924104Y-74738095D02*
X91828866Y-74690476D01*
X91828866Y-74690476D02*
X91781247Y-74642857D01*
X91781247Y-74642857D02*
X91733628Y-74547619D01*
X91733628Y-74547619D02*
X91686009Y-74357143D01*
X91686009Y-74357143D02*
X91638390Y-74261905D01*
X91638390Y-74261905D02*
X91590771Y-74214286D01*
X91590771Y-74214286D02*
X91495533Y-74166667D01*
X91495533Y-74166667D02*
X91400295Y-74166667D01*
X91400295Y-74166667D02*
X91305057Y-74214286D01*
X91305057Y-74214286D02*
X91257438Y-74261905D01*
X91257438Y-74261905D02*
X91209819Y-74357143D01*
X91209819Y-74357143D02*
X91209819Y-74595238D01*
X91209819Y-74595238D02*
X91257438Y-74738095D01*
X91209819Y-75071429D02*
X92209819Y-75309524D01*
X92209819Y-75309524D02*
X91495533Y-75500000D01*
X91495533Y-75500000D02*
X92209819Y-75690476D01*
X92209819Y-75690476D02*
X91209819Y-75928572D01*
X92209819Y-76357143D02*
X92209819Y-76547619D01*
X92209819Y-76547619D02*
X92162200Y-76642857D01*
X92162200Y-76642857D02*
X92114580Y-76690476D01*
X92114580Y-76690476D02*
X91971723Y-76785714D01*
X91971723Y-76785714D02*
X91781247Y-76833333D01*
X91781247Y-76833333D02*
X91400295Y-76833333D01*
X91400295Y-76833333D02*
X91305057Y-76785714D01*
X91305057Y-76785714D02*
X91257438Y-76738095D01*
X91257438Y-76738095D02*
X91209819Y-76642857D01*
X91209819Y-76642857D02*
X91209819Y-76452381D01*
X91209819Y-76452381D02*
X91257438Y-76357143D01*
X91257438Y-76357143D02*
X91305057Y-76309524D01*
X91305057Y-76309524D02*
X91400295Y-76261905D01*
X91400295Y-76261905D02*
X91638390Y-76261905D01*
X91638390Y-76261905D02*
X91733628Y-76309524D01*
X91733628Y-76309524D02*
X91781247Y-76357143D01*
X91781247Y-76357143D02*
X91828866Y-76452381D01*
X91828866Y-76452381D02*
X91828866Y-76642857D01*
X91828866Y-76642857D02*
X91781247Y-76738095D01*
X91781247Y-76738095D02*
X91733628Y-76785714D01*
X91733628Y-76785714D02*
X91638390Y-76833333D01*
X149162200Y-44190476D02*
X149209819Y-44333333D01*
X149209819Y-44333333D02*
X149209819Y-44571428D01*
X149209819Y-44571428D02*
X149162200Y-44666666D01*
X149162200Y-44666666D02*
X149114580Y-44714285D01*
X149114580Y-44714285D02*
X149019342Y-44761904D01*
X149019342Y-44761904D02*
X148924104Y-44761904D01*
X148924104Y-44761904D02*
X148828866Y-44714285D01*
X148828866Y-44714285D02*
X148781247Y-44666666D01*
X148781247Y-44666666D02*
X148733628Y-44571428D01*
X148733628Y-44571428D02*
X148686009Y-44380952D01*
X148686009Y-44380952D02*
X148638390Y-44285714D01*
X148638390Y-44285714D02*
X148590771Y-44238095D01*
X148590771Y-44238095D02*
X148495533Y-44190476D01*
X148495533Y-44190476D02*
X148400295Y-44190476D01*
X148400295Y-44190476D02*
X148305057Y-44238095D01*
X148305057Y-44238095D02*
X148257438Y-44285714D01*
X148257438Y-44285714D02*
X148209819Y-44380952D01*
X148209819Y-44380952D02*
X148209819Y-44619047D01*
X148209819Y-44619047D02*
X148257438Y-44761904D01*
X148209819Y-45095238D02*
X149209819Y-45333333D01*
X149209819Y-45333333D02*
X148495533Y-45523809D01*
X148495533Y-45523809D02*
X149209819Y-45714285D01*
X149209819Y-45714285D02*
X148209819Y-45952381D01*
X149209819Y-46857142D02*
X149209819Y-46285714D01*
X149209819Y-46571428D02*
X148209819Y-46571428D01*
X148209819Y-46571428D02*
X148352676Y-46476190D01*
X148352676Y-46476190D02*
X148447914Y-46380952D01*
X148447914Y-46380952D02*
X148495533Y-46285714D01*
X148209819Y-47190476D02*
X148209819Y-47857142D01*
X148209819Y-47857142D02*
X149209819Y-47428571D01*
X54162200Y-66666667D02*
X54209819Y-66809524D01*
X54209819Y-66809524D02*
X54209819Y-67047619D01*
X54209819Y-67047619D02*
X54162200Y-67142857D01*
X54162200Y-67142857D02*
X54114580Y-67190476D01*
X54114580Y-67190476D02*
X54019342Y-67238095D01*
X54019342Y-67238095D02*
X53924104Y-67238095D01*
X53924104Y-67238095D02*
X53828866Y-67190476D01*
X53828866Y-67190476D02*
X53781247Y-67142857D01*
X53781247Y-67142857D02*
X53733628Y-67047619D01*
X53733628Y-67047619D02*
X53686009Y-66857143D01*
X53686009Y-66857143D02*
X53638390Y-66761905D01*
X53638390Y-66761905D02*
X53590771Y-66714286D01*
X53590771Y-66714286D02*
X53495533Y-66666667D01*
X53495533Y-66666667D02*
X53400295Y-66666667D01*
X53400295Y-66666667D02*
X53305057Y-66714286D01*
X53305057Y-66714286D02*
X53257438Y-66761905D01*
X53257438Y-66761905D02*
X53209819Y-66857143D01*
X53209819Y-66857143D02*
X53209819Y-67095238D01*
X53209819Y-67095238D02*
X53257438Y-67238095D01*
X53209819Y-67571429D02*
X54209819Y-67809524D01*
X54209819Y-67809524D02*
X53495533Y-68000000D01*
X53495533Y-68000000D02*
X54209819Y-68190476D01*
X54209819Y-68190476D02*
X53209819Y-68428572D01*
X54209819Y-69333333D02*
X54209819Y-68761905D01*
X54209819Y-69047619D02*
X53209819Y-69047619D01*
X53209819Y-69047619D02*
X53352676Y-68952381D01*
X53352676Y-68952381D02*
X53447914Y-68857143D01*
X53447914Y-68857143D02*
X53495533Y-68761905D01*
X92162200Y-36166667D02*
X92209819Y-36309524D01*
X92209819Y-36309524D02*
X92209819Y-36547619D01*
X92209819Y-36547619D02*
X92162200Y-36642857D01*
X92162200Y-36642857D02*
X92114580Y-36690476D01*
X92114580Y-36690476D02*
X92019342Y-36738095D01*
X92019342Y-36738095D02*
X91924104Y-36738095D01*
X91924104Y-36738095D02*
X91828866Y-36690476D01*
X91828866Y-36690476D02*
X91781247Y-36642857D01*
X91781247Y-36642857D02*
X91733628Y-36547619D01*
X91733628Y-36547619D02*
X91686009Y-36357143D01*
X91686009Y-36357143D02*
X91638390Y-36261905D01*
X91638390Y-36261905D02*
X91590771Y-36214286D01*
X91590771Y-36214286D02*
X91495533Y-36166667D01*
X91495533Y-36166667D02*
X91400295Y-36166667D01*
X91400295Y-36166667D02*
X91305057Y-36214286D01*
X91305057Y-36214286D02*
X91257438Y-36261905D01*
X91257438Y-36261905D02*
X91209819Y-36357143D01*
X91209819Y-36357143D02*
X91209819Y-36595238D01*
X91209819Y-36595238D02*
X91257438Y-36738095D01*
X91209819Y-37071429D02*
X92209819Y-37309524D01*
X92209819Y-37309524D02*
X91495533Y-37500000D01*
X91495533Y-37500000D02*
X92209819Y-37690476D01*
X92209819Y-37690476D02*
X91209819Y-37928572D01*
X91209819Y-38214286D02*
X91209819Y-38880952D01*
X91209819Y-38880952D02*
X92209819Y-38452381D01*
X74095238Y-88040057D02*
X74190476Y-87992438D01*
X74190476Y-87992438D02*
X74285714Y-87897200D01*
X74285714Y-87897200D02*
X74428571Y-87754342D01*
X74428571Y-87754342D02*
X74523809Y-87706723D01*
X74523809Y-87706723D02*
X74619047Y-87706723D01*
X74571428Y-87944819D02*
X74666666Y-87897200D01*
X74666666Y-87897200D02*
X74761904Y-87801961D01*
X74761904Y-87801961D02*
X74809523Y-87611485D01*
X74809523Y-87611485D02*
X74809523Y-87278152D01*
X74809523Y-87278152D02*
X74761904Y-87087676D01*
X74761904Y-87087676D02*
X74666666Y-86992438D01*
X74666666Y-86992438D02*
X74571428Y-86944819D01*
X74571428Y-86944819D02*
X74380952Y-86944819D01*
X74380952Y-86944819D02*
X74285714Y-86992438D01*
X74285714Y-86992438D02*
X74190476Y-87087676D01*
X74190476Y-87087676D02*
X74142857Y-87278152D01*
X74142857Y-87278152D02*
X74142857Y-87611485D01*
X74142857Y-87611485D02*
X74190476Y-87801961D01*
X74190476Y-87801961D02*
X74285714Y-87897200D01*
X74285714Y-87897200D02*
X74380952Y-87944819D01*
X74380952Y-87944819D02*
X74571428Y-87944819D01*
X73809523Y-86944819D02*
X73190476Y-86944819D01*
X73190476Y-86944819D02*
X73523809Y-87325771D01*
X73523809Y-87325771D02*
X73380952Y-87325771D01*
X73380952Y-87325771D02*
X73285714Y-87373390D01*
X73285714Y-87373390D02*
X73238095Y-87421009D01*
X73238095Y-87421009D02*
X73190476Y-87516247D01*
X73190476Y-87516247D02*
X73190476Y-87754342D01*
X73190476Y-87754342D02*
X73238095Y-87849580D01*
X73238095Y-87849580D02*
X73285714Y-87897200D01*
X73285714Y-87897200D02*
X73380952Y-87944819D01*
X73380952Y-87944819D02*
X73666666Y-87944819D01*
X73666666Y-87944819D02*
X73761904Y-87897200D01*
X73761904Y-87897200D02*
X73809523Y-87849580D01*
X149162200Y-63190476D02*
X149209819Y-63333333D01*
X149209819Y-63333333D02*
X149209819Y-63571428D01*
X149209819Y-63571428D02*
X149162200Y-63666666D01*
X149162200Y-63666666D02*
X149114580Y-63714285D01*
X149114580Y-63714285D02*
X149019342Y-63761904D01*
X149019342Y-63761904D02*
X148924104Y-63761904D01*
X148924104Y-63761904D02*
X148828866Y-63714285D01*
X148828866Y-63714285D02*
X148781247Y-63666666D01*
X148781247Y-63666666D02*
X148733628Y-63571428D01*
X148733628Y-63571428D02*
X148686009Y-63380952D01*
X148686009Y-63380952D02*
X148638390Y-63285714D01*
X148638390Y-63285714D02*
X148590771Y-63238095D01*
X148590771Y-63238095D02*
X148495533Y-63190476D01*
X148495533Y-63190476D02*
X148400295Y-63190476D01*
X148400295Y-63190476D02*
X148305057Y-63238095D01*
X148305057Y-63238095D02*
X148257438Y-63285714D01*
X148257438Y-63285714D02*
X148209819Y-63380952D01*
X148209819Y-63380952D02*
X148209819Y-63619047D01*
X148209819Y-63619047D02*
X148257438Y-63761904D01*
X148209819Y-64095238D02*
X149209819Y-64333333D01*
X149209819Y-64333333D02*
X148495533Y-64523809D01*
X148495533Y-64523809D02*
X149209819Y-64714285D01*
X149209819Y-64714285D02*
X148209819Y-64952381D01*
X149209819Y-65857142D02*
X149209819Y-65285714D01*
X149209819Y-65571428D02*
X148209819Y-65571428D01*
X148209819Y-65571428D02*
X148352676Y-65476190D01*
X148352676Y-65476190D02*
X148447914Y-65380952D01*
X148447914Y-65380952D02*
X148495533Y-65285714D01*
X148638390Y-66428571D02*
X148590771Y-66333333D01*
X148590771Y-66333333D02*
X148543152Y-66285714D01*
X148543152Y-66285714D02*
X148447914Y-66238095D01*
X148447914Y-66238095D02*
X148400295Y-66238095D01*
X148400295Y-66238095D02*
X148305057Y-66285714D01*
X148305057Y-66285714D02*
X148257438Y-66333333D01*
X148257438Y-66333333D02*
X148209819Y-66428571D01*
X148209819Y-66428571D02*
X148209819Y-66619047D01*
X148209819Y-66619047D02*
X148257438Y-66714285D01*
X148257438Y-66714285D02*
X148305057Y-66761904D01*
X148305057Y-66761904D02*
X148400295Y-66809523D01*
X148400295Y-66809523D02*
X148447914Y-66809523D01*
X148447914Y-66809523D02*
X148543152Y-66761904D01*
X148543152Y-66761904D02*
X148590771Y-66714285D01*
X148590771Y-66714285D02*
X148638390Y-66619047D01*
X148638390Y-66619047D02*
X148638390Y-66428571D01*
X148638390Y-66428571D02*
X148686009Y-66333333D01*
X148686009Y-66333333D02*
X148733628Y-66285714D01*
X148733628Y-66285714D02*
X148828866Y-66238095D01*
X148828866Y-66238095D02*
X149019342Y-66238095D01*
X149019342Y-66238095D02*
X149114580Y-66285714D01*
X149114580Y-66285714D02*
X149162200Y-66333333D01*
X149162200Y-66333333D02*
X149209819Y-66428571D01*
X149209819Y-66428571D02*
X149209819Y-66619047D01*
X149209819Y-66619047D02*
X149162200Y-66714285D01*
X149162200Y-66714285D02*
X149114580Y-66761904D01*
X149114580Y-66761904D02*
X149019342Y-66809523D01*
X149019342Y-66809523D02*
X148828866Y-66809523D01*
X148828866Y-66809523D02*
X148733628Y-66761904D01*
X148733628Y-66761904D02*
X148686009Y-66714285D01*
X148686009Y-66714285D02*
X148638390Y-66619047D01*
X51515155Y-110746333D02*
X51432185Y-110620669D01*
X51432185Y-110620669D02*
X51370561Y-110390686D01*
X51370561Y-110390686D02*
X51391908Y-110286369D01*
X51391908Y-110286369D02*
X51425580Y-110228047D01*
X51425580Y-110228047D02*
X51505248Y-110157401D01*
X51505248Y-110157401D02*
X51597241Y-110132752D01*
X51597241Y-110132752D02*
X51701559Y-110154099D01*
X51701559Y-110154099D02*
X51759880Y-110187771D01*
X51759880Y-110187771D02*
X51830526Y-110267439D01*
X51830526Y-110267439D02*
X51925821Y-110439100D01*
X51925821Y-110439100D02*
X51996467Y-110518768D01*
X51996467Y-110518768D02*
X52054788Y-110552440D01*
X52054788Y-110552440D02*
X52159106Y-110573787D01*
X52159106Y-110573787D02*
X52251099Y-110549138D01*
X52251099Y-110549138D02*
X52330767Y-110478492D01*
X52330767Y-110478492D02*
X52364439Y-110420171D01*
X52364439Y-110420171D02*
X52385786Y-110315853D01*
X52385786Y-110315853D02*
X52324162Y-110085871D01*
X52324162Y-110085871D02*
X52241192Y-109960206D01*
X52200915Y-109625906D02*
X51173366Y-109654743D01*
X51173366Y-109654743D02*
X51814014Y-109285886D01*
X51814014Y-109285886D02*
X51074768Y-109286771D01*
X51074768Y-109286771D02*
X51979070Y-108797970D01*
X51800804Y-108500644D02*
X51834476Y-108442323D01*
X51834476Y-108442323D02*
X51855823Y-108338005D01*
X51855823Y-108338005D02*
X51794200Y-108108023D01*
X51794200Y-108108023D02*
X51723554Y-108028354D01*
X51723554Y-108028354D02*
X51665232Y-107994683D01*
X51665232Y-107994683D02*
X51560915Y-107973336D01*
X51560915Y-107973336D02*
X51468922Y-107997985D01*
X51468922Y-107997985D02*
X51343257Y-108080956D01*
X51343257Y-108080956D02*
X50939196Y-108780810D01*
X50939196Y-108780810D02*
X50778975Y-108182856D01*
X130162200Y-33690476D02*
X130209819Y-33833333D01*
X130209819Y-33833333D02*
X130209819Y-34071428D01*
X130209819Y-34071428D02*
X130162200Y-34166666D01*
X130162200Y-34166666D02*
X130114580Y-34214285D01*
X130114580Y-34214285D02*
X130019342Y-34261904D01*
X130019342Y-34261904D02*
X129924104Y-34261904D01*
X129924104Y-34261904D02*
X129828866Y-34214285D01*
X129828866Y-34214285D02*
X129781247Y-34166666D01*
X129781247Y-34166666D02*
X129733628Y-34071428D01*
X129733628Y-34071428D02*
X129686009Y-33880952D01*
X129686009Y-33880952D02*
X129638390Y-33785714D01*
X129638390Y-33785714D02*
X129590771Y-33738095D01*
X129590771Y-33738095D02*
X129495533Y-33690476D01*
X129495533Y-33690476D02*
X129400295Y-33690476D01*
X129400295Y-33690476D02*
X129305057Y-33738095D01*
X129305057Y-33738095D02*
X129257438Y-33785714D01*
X129257438Y-33785714D02*
X129209819Y-33880952D01*
X129209819Y-33880952D02*
X129209819Y-34119047D01*
X129209819Y-34119047D02*
X129257438Y-34261904D01*
X129209819Y-34595238D02*
X130209819Y-34833333D01*
X130209819Y-34833333D02*
X129495533Y-35023809D01*
X129495533Y-35023809D02*
X130209819Y-35214285D01*
X130209819Y-35214285D02*
X129209819Y-35452381D01*
X130209819Y-36357142D02*
X130209819Y-35785714D01*
X130209819Y-36071428D02*
X129209819Y-36071428D01*
X129209819Y-36071428D02*
X129352676Y-35976190D01*
X129352676Y-35976190D02*
X129447914Y-35880952D01*
X129447914Y-35880952D02*
X129495533Y-35785714D01*
X129543152Y-37214285D02*
X130209819Y-37214285D01*
X129162200Y-36976190D02*
X129876485Y-36738095D01*
X129876485Y-36738095D02*
X129876485Y-37357142D01*
X96595238Y-85300057D02*
X96690476Y-85252438D01*
X96690476Y-85252438D02*
X96785714Y-85157200D01*
X96785714Y-85157200D02*
X96928571Y-85014342D01*
X96928571Y-85014342D02*
X97023809Y-84966723D01*
X97023809Y-84966723D02*
X97119047Y-84966723D01*
X97071428Y-85204819D02*
X97166666Y-85157200D01*
X97166666Y-85157200D02*
X97261904Y-85061961D01*
X97261904Y-85061961D02*
X97309523Y-84871485D01*
X97309523Y-84871485D02*
X97309523Y-84538152D01*
X97309523Y-84538152D02*
X97261904Y-84347676D01*
X97261904Y-84347676D02*
X97166666Y-84252438D01*
X97166666Y-84252438D02*
X97071428Y-84204819D01*
X97071428Y-84204819D02*
X96880952Y-84204819D01*
X96880952Y-84204819D02*
X96785714Y-84252438D01*
X96785714Y-84252438D02*
X96690476Y-84347676D01*
X96690476Y-84347676D02*
X96642857Y-84538152D01*
X96642857Y-84538152D02*
X96642857Y-84871485D01*
X96642857Y-84871485D02*
X96690476Y-85061961D01*
X96690476Y-85061961D02*
X96785714Y-85157200D01*
X96785714Y-85157200D02*
X96880952Y-85204819D01*
X96880952Y-85204819D02*
X97071428Y-85204819D01*
X95690476Y-85204819D02*
X96261904Y-85204819D01*
X95976190Y-85204819D02*
X95976190Y-84204819D01*
X95976190Y-84204819D02*
X96071428Y-84347676D01*
X96071428Y-84347676D02*
X96166666Y-84442914D01*
X96166666Y-84442914D02*
X96261904Y-84490533D01*
%TO.C,D10*%
X116500000Y-98000000D02*
X117500000Y-98000000D01*
X116500000Y-99000000D02*
X117500000Y-99000000D01*
X116999999Y-98899999D02*
X116500000Y-98000000D01*
X117500000Y-98000000D02*
X116999999Y-98899999D01*
D13*
G36*
X117800551Y-101135870D02*
G01*
X117800551Y-101698440D01*
X116200300Y-101698438D01*
X116200301Y-101135868D01*
X117800551Y-101135870D01*
G37*
G36*
X117800292Y-101701338D02*
G01*
X117651433Y-101701337D01*
X116199291Y-101701336D01*
X116199293Y-95449781D01*
X116350768Y-95449781D01*
X116350768Y-101553024D01*
X117651430Y-101553025D01*
X117651433Y-95449780D01*
X116350768Y-95449781D01*
X116199293Y-95449781D01*
X116199293Y-95301470D01*
X117800294Y-95301470D01*
X117800292Y-101701338D01*
G37*
D12*
%TO.C,D+2*%
X81499998Y-89500000D02*
X82499998Y-89500000D01*
X81499998Y-90500000D02*
X82499998Y-90500000D01*
X81999999Y-90399999D02*
X81499998Y-89500000D01*
X82499998Y-89500000D02*
X81999999Y-90399999D01*
D13*
G36*
X82800550Y-92635869D02*
G01*
X82800550Y-93198438D01*
X81200297Y-93198440D01*
X81200299Y-92635868D01*
X82800550Y-92635869D01*
G37*
G36*
X82800292Y-86801469D02*
G01*
X82800290Y-93201338D01*
X82651431Y-93201336D01*
X81199289Y-93201340D01*
X81199289Y-93053024D01*
X81350765Y-93053024D01*
X82651430Y-93053027D01*
X82651427Y-86949781D01*
X81350766Y-86949781D01*
X81350765Y-93053024D01*
X81199289Y-93053024D01*
X81199290Y-86801468D01*
X82800292Y-86801469D01*
G37*
D12*
%TO.C,D11*%
X116500000Y-87500000D02*
X117500000Y-87500000D01*
X116500000Y-88500000D02*
X117500000Y-88500000D01*
X116999999Y-88399999D02*
X116500000Y-87500000D01*
X117500000Y-87500000D02*
X116999999Y-88399999D01*
D13*
G36*
X117800551Y-90635870D02*
G01*
X117800551Y-91198440D01*
X116200300Y-91198438D01*
X116200301Y-90635868D01*
X117800551Y-90635870D01*
G37*
G36*
X117800292Y-91201338D02*
G01*
X117651433Y-91201337D01*
X116199291Y-91201336D01*
X116199293Y-84949781D01*
X116350768Y-84949781D01*
X116350768Y-91053024D01*
X117651430Y-91053025D01*
X117651433Y-84949780D01*
X116350768Y-84949781D01*
X116199293Y-84949781D01*
X116199293Y-84801470D01*
X117800294Y-84801470D01*
X117800292Y-91201338D01*
G37*
D14*
%TO.C,Q1*%
X56599892Y-93924301D02*
X57440382Y-93083811D01*
X57575699Y-94900108D02*
X56599892Y-93924301D01*
X58416189Y-94059618D02*
X57575699Y-94900108D01*
X57440382Y-93083811D02*
G75*
G02*
X58416189Y-94059618I2559618J1583811D01*
G01*
%TO.C,SW20*%
X96600000Y-86900000D02*
X96600000Y-91000000D01*
X96600000Y-95000000D02*
X96600000Y-99100000D01*
X99000000Y-86900000D02*
X96600000Y-86900000D01*
X102500000Y-93500000D02*
X102500000Y-92500000D01*
X103000000Y-93000000D02*
X102000000Y-93000000D01*
X103800000Y-86900000D02*
X101200000Y-86900000D01*
X106300000Y-100500000D02*
X106600000Y-100800000D01*
X106600000Y-100200000D02*
X106300000Y-100500000D01*
X106600000Y-100800000D02*
X106600000Y-100200000D01*
X108400000Y-86900000D02*
X106000000Y-86900000D01*
X108400000Y-91000000D02*
X108400000Y-86900000D01*
X108400000Y-95000000D02*
X108400000Y-99100000D01*
X108400000Y-99100000D02*
X96600000Y-99100000D01*
X105500000Y-93000000D02*
G75*
G02*
X99500000Y-93000000I-3000000J0D01*
G01*
X99500000Y-93000000D02*
G75*
G02*
X105500000Y-93000000I3000000J0D01*
G01*
D12*
%TO.C,SW6*%
X57500000Y-99000000D02*
X57896000Y-99000000D01*
X57500000Y-100000000D02*
X57500000Y-99000000D01*
X57500000Y-113000000D02*
X57500000Y-112000000D01*
X57515000Y-100920000D02*
X57515000Y-109810000D01*
X57896000Y-100920000D02*
X57515000Y-100920000D01*
X58500000Y-113000000D02*
X57500000Y-113000000D01*
X60055000Y-112350000D02*
X60436000Y-112350000D01*
X61325000Y-100920000D02*
X60944000Y-100920000D01*
X61960000Y-106000000D02*
X61960000Y-103714000D01*
X63484000Y-112350000D02*
X63865000Y-112350000D01*
X63865000Y-110191000D02*
X63865000Y-108459343D01*
X63865000Y-112350000D02*
X63865000Y-111969000D01*
X70500000Y-99000000D02*
X71500000Y-99000000D01*
X71500000Y-99000000D02*
X71500000Y-100000000D01*
X71500000Y-112000000D02*
X71500000Y-113000000D01*
X71500000Y-113000000D02*
X70500000Y-113000000D01*
X60055000Y-112350000D02*
G75*
G02*
X57515000Y-109810000I0J2540000D01*
G01*
X63865000Y-108459343D02*
G75*
G02*
X61960001Y-106000000I635002J2459345D01*
G01*
D14*
%TO.C,Q2*%
X63599892Y-93924301D02*
X64440382Y-93083811D01*
X64575699Y-94900108D02*
X63599892Y-93924301D01*
X65416189Y-94059618D02*
X64575699Y-94900108D01*
X64440382Y-93083811D02*
G75*
G02*
X65416189Y-94059618I2559618J1583811D01*
G01*
D12*
%TO.C,SW3*%
X57500000Y-32500000D02*
X57896000Y-32500000D01*
X57500000Y-33500000D02*
X57500000Y-32500000D01*
X57500000Y-46500000D02*
X57500000Y-45500000D01*
X57515000Y-34420000D02*
X57515000Y-43310000D01*
X57896000Y-34420000D02*
X57515000Y-34420000D01*
X58500000Y-46500000D02*
X57500000Y-46500000D01*
X60055000Y-45850000D02*
X60436000Y-45850000D01*
X61325000Y-34420000D02*
X60944000Y-34420000D01*
X61960000Y-39500000D02*
X61960000Y-37214000D01*
X63484000Y-45850000D02*
X63865000Y-45850000D01*
X63865000Y-43691000D02*
X63865000Y-41959343D01*
X63865000Y-45850000D02*
X63865000Y-45469000D01*
X70500000Y-32500000D02*
X71500000Y-32500000D01*
X71500000Y-32500000D02*
X71500000Y-33500000D01*
X71500000Y-45500000D02*
X71500000Y-46500000D01*
X71500000Y-46500000D02*
X70500000Y-46500000D01*
X60055000Y-45850000D02*
G75*
G02*
X57515000Y-43310000I0J2540000D01*
G01*
X63865000Y-41959343D02*
G75*
G02*
X61960001Y-39500000I635002J2459345D01*
G01*
%TO.C,D13*%
X140999996Y-97999997D02*
X141999996Y-97999997D01*
X140999996Y-98999997D02*
X141999996Y-98999997D01*
X141499995Y-98899996D02*
X140999996Y-97999997D01*
X141999996Y-97999997D02*
X141499995Y-98899996D01*
D13*
G36*
X142300547Y-101135867D02*
G01*
X142300547Y-101698437D01*
X140700296Y-101698435D01*
X140700297Y-101135865D01*
X142300547Y-101135867D01*
G37*
G36*
X142300288Y-101701335D02*
G01*
X142151429Y-101701334D01*
X140699287Y-101701333D01*
X140699289Y-95449778D01*
X140850764Y-95449778D01*
X140850764Y-101553021D01*
X142151426Y-101553022D01*
X142151429Y-95449777D01*
X140850764Y-95449778D01*
X140699289Y-95449778D01*
X140699289Y-95301467D01*
X142300290Y-95301467D01*
X142300288Y-101701335D01*
G37*
D12*
%TO.C,SW4*%
X57500000Y-51500000D02*
X57896000Y-51500000D01*
X57500000Y-52500000D02*
X57500000Y-51500000D01*
X57500000Y-65500000D02*
X57500000Y-64500000D01*
X57515000Y-53420000D02*
X57515000Y-62310000D01*
X57896000Y-53420000D02*
X57515000Y-53420000D01*
X58500000Y-65500000D02*
X57500000Y-65500000D01*
X60055000Y-64850000D02*
X60436000Y-64850000D01*
X61325000Y-53420000D02*
X60944000Y-53420000D01*
X61960000Y-58500000D02*
X61960000Y-56214000D01*
X63484000Y-64850000D02*
X63865000Y-64850000D01*
X63865000Y-62691000D02*
X63865000Y-60959343D01*
X63865000Y-64850000D02*
X63865000Y-64469000D01*
X70500000Y-51500000D02*
X71500000Y-51500000D01*
X71500000Y-51500000D02*
X71500000Y-52500000D01*
X71500000Y-64500000D02*
X71500000Y-65500000D01*
X71500000Y-65500000D02*
X70500000Y-65500000D01*
X60055000Y-64850000D02*
G75*
G02*
X57515000Y-62310000I0J2540000D01*
G01*
X63865000Y-60959343D02*
G75*
G02*
X61960001Y-58500000I635002J2459345D01*
G01*
%TO.C,D14*%
X118999997Y-87500005D02*
X119999997Y-87500005D01*
X118999997Y-88500005D02*
X119999997Y-88500005D01*
X119499996Y-88400004D02*
X118999997Y-87500005D01*
X119999997Y-87500005D02*
X119499996Y-88400004D01*
D13*
G36*
X120300548Y-90635875D02*
G01*
X120300548Y-91198445D01*
X118700297Y-91198443D01*
X118700298Y-90635873D01*
X120300548Y-90635875D01*
G37*
G36*
X120300289Y-91201343D02*
G01*
X120151430Y-91201342D01*
X118699288Y-91201341D01*
X118699290Y-84949786D01*
X118850765Y-84949786D01*
X118850765Y-91053029D01*
X120151427Y-91053030D01*
X120151430Y-84949785D01*
X118850765Y-84949786D01*
X118699290Y-84949786D01*
X118699290Y-84801475D01*
X120300291Y-84801475D01*
X120300289Y-91201343D01*
G37*
D12*
%TO.C,SW13*%
X95500000Y-63500000D02*
X95896000Y-63500000D01*
X95500000Y-64500000D02*
X95500000Y-63500000D01*
X95500000Y-77500000D02*
X95500000Y-76500000D01*
X95515000Y-65420000D02*
X95515000Y-74310000D01*
X95896000Y-65420000D02*
X95515000Y-65420000D01*
X96500000Y-77500000D02*
X95500000Y-77500000D01*
X98055000Y-76850000D02*
X98436000Y-76850000D01*
X99325000Y-65420000D02*
X98944000Y-65420000D01*
X99960000Y-70500000D02*
X99960000Y-68214000D01*
X101484000Y-76850000D02*
X101865000Y-76850000D01*
X101865000Y-74691000D02*
X101865000Y-72959343D01*
X101865000Y-76850000D02*
X101865000Y-76469000D01*
X108500000Y-63500000D02*
X109500000Y-63500000D01*
X109500000Y-63500000D02*
X109500000Y-64500000D01*
X109500000Y-76500000D02*
X109500000Y-77500000D01*
X109500000Y-77500000D02*
X108500000Y-77500000D01*
X98055000Y-76850000D02*
G75*
G02*
X95515000Y-74310000I0J2540000D01*
G01*
X101865000Y-72959343D02*
G75*
G02*
X99960001Y-70500000I635002J2459345D01*
G01*
%TO.C,D8*%
X122500000Y-98000000D02*
X123500000Y-98000000D01*
X122500000Y-99000000D02*
X123500000Y-99000000D01*
X122999999Y-98899999D02*
X122500000Y-98000000D01*
X123500000Y-98000000D02*
X122999999Y-98899999D01*
D13*
G36*
X123800551Y-101135870D02*
G01*
X123800551Y-101698440D01*
X122200300Y-101698438D01*
X122200301Y-101135868D01*
X123800551Y-101135870D01*
G37*
G36*
X123800292Y-101701338D02*
G01*
X123651433Y-101701337D01*
X122199291Y-101701336D01*
X122199293Y-95449781D01*
X122350768Y-95449781D01*
X122350768Y-101553024D01*
X123651430Y-101553025D01*
X123651433Y-95449780D01*
X122350768Y-95449781D01*
X122199293Y-95449781D01*
X122199293Y-95301470D01*
X123800294Y-95301470D01*
X123800292Y-101701338D01*
G37*
D12*
%TO.C,SW5*%
X57500000Y-70500000D02*
X57896000Y-70500000D01*
X57500000Y-71500000D02*
X57500000Y-70500000D01*
X57500000Y-84500000D02*
X57500000Y-83500000D01*
X57515000Y-72420000D02*
X57515000Y-81310000D01*
X57896000Y-72420000D02*
X57515000Y-72420000D01*
X58500000Y-84500000D02*
X57500000Y-84500000D01*
X60055000Y-83850000D02*
X60436000Y-83850000D01*
X61325000Y-72420000D02*
X60944000Y-72420000D01*
X61960000Y-77500000D02*
X61960000Y-75214000D01*
X63484000Y-83850000D02*
X63865000Y-83850000D01*
X63865000Y-81691000D02*
X63865000Y-79959343D01*
X63865000Y-83850000D02*
X63865000Y-83469000D01*
X70500000Y-70500000D02*
X71500000Y-70500000D01*
X71500000Y-70500000D02*
X71500000Y-71500000D01*
X71500000Y-83500000D02*
X71500000Y-84500000D01*
X71500000Y-84500000D02*
X70500000Y-84500000D01*
X60055000Y-83850000D02*
G75*
G02*
X57515000Y-81310000I0J2540000D01*
G01*
X63865000Y-79959343D02*
G75*
G02*
X61960001Y-77500000I635002J2459345D01*
G01*
%TO.C,D3*%
X111500001Y-87500003D02*
X112500001Y-87500003D01*
X111500001Y-88500003D02*
X112500001Y-88500003D01*
X112000000Y-88400002D02*
X111500001Y-87500003D01*
X112500001Y-87500003D02*
X112000000Y-88400002D01*
D13*
G36*
X112800552Y-90635873D02*
G01*
X112800552Y-91198443D01*
X111200301Y-91198441D01*
X111200302Y-90635871D01*
X112800552Y-90635873D01*
G37*
G36*
X112800293Y-91201341D02*
G01*
X112651434Y-91201340D01*
X111199292Y-91201339D01*
X111199294Y-84949784D01*
X111350769Y-84949784D01*
X111350769Y-91053027D01*
X112651431Y-91053028D01*
X112651434Y-84949783D01*
X111350769Y-84949784D01*
X111199294Y-84949784D01*
X111199294Y-84801473D01*
X112800295Y-84801473D01*
X112800293Y-91201341D01*
G37*
D12*
%TO.C,D4*%
X120000000Y-98000000D02*
X121000000Y-98000000D01*
X120000000Y-99000000D02*
X121000000Y-99000000D01*
X120499999Y-98899999D02*
X120000000Y-98000000D01*
X121000000Y-98000000D02*
X120499999Y-98899999D01*
D13*
G36*
X121300551Y-101135870D02*
G01*
X121300551Y-101698440D01*
X119700300Y-101698438D01*
X119700301Y-101135868D01*
X121300551Y-101135870D01*
G37*
G36*
X121300292Y-101701338D02*
G01*
X121151433Y-101701337D01*
X119699291Y-101701336D01*
X119699293Y-95449781D01*
X119850768Y-95449781D01*
X119850768Y-101553024D01*
X121151430Y-101553025D01*
X121151433Y-95449780D01*
X119850768Y-95449781D01*
X119699293Y-95449781D01*
X119699293Y-95301470D01*
X121300294Y-95301470D01*
X121300292Y-101701338D01*
G37*
D12*
%TO.C,D+3*%
X78999996Y-89500000D02*
X79999996Y-89500000D01*
X78999996Y-90500000D02*
X79999996Y-90500000D01*
X79499997Y-90399999D02*
X78999996Y-89500000D01*
X79999996Y-89500000D02*
X79499997Y-90399999D01*
D13*
G36*
X80300548Y-92635869D02*
G01*
X80300548Y-93198438D01*
X78700295Y-93198440D01*
X78700297Y-92635868D01*
X80300548Y-92635869D01*
G37*
G36*
X80300290Y-86801469D02*
G01*
X80300288Y-93201338D01*
X80151429Y-93201336D01*
X78699287Y-93201340D01*
X78699287Y-93053024D01*
X78850763Y-93053024D01*
X80151428Y-93053027D01*
X80151425Y-86949781D01*
X78850764Y-86949781D01*
X78850763Y-93053024D01*
X78699287Y-93053024D01*
X78699288Y-86801468D01*
X80300290Y-86801469D01*
G37*
D12*
%TO.C,SW12*%
X95500000Y-44500000D02*
X95896000Y-44500000D01*
X95500000Y-45500000D02*
X95500000Y-44500000D01*
X95500000Y-58500000D02*
X95500000Y-57500000D01*
X95515000Y-46420000D02*
X95515000Y-55310000D01*
X95896000Y-46420000D02*
X95515000Y-46420000D01*
X96500000Y-58500000D02*
X95500000Y-58500000D01*
X98055000Y-57850000D02*
X98436000Y-57850000D01*
X99325000Y-46420000D02*
X98944000Y-46420000D01*
X99960000Y-51500000D02*
X99960000Y-49214000D01*
X101484000Y-57850000D02*
X101865000Y-57850000D01*
X101865000Y-55691000D02*
X101865000Y-53959343D01*
X101865000Y-57850000D02*
X101865000Y-57469000D01*
X108500000Y-44500000D02*
X109500000Y-44500000D01*
X109500000Y-44500000D02*
X109500000Y-45500000D01*
X109500000Y-57500000D02*
X109500000Y-58500000D01*
X109500000Y-58500000D02*
X108500000Y-58500000D01*
X98055000Y-57850000D02*
G75*
G02*
X95515000Y-55310000I0J2540000D01*
G01*
X101865000Y-53959343D02*
G75*
G02*
X99960001Y-51500000I635002J2459345D01*
G01*
%TO.C,SW15*%
X114500000Y-47500000D02*
X114896000Y-47500000D01*
X114500000Y-48500000D02*
X114500000Y-47500000D01*
X114500000Y-61500000D02*
X114500000Y-60500000D01*
X114515000Y-49420000D02*
X114515000Y-58310000D01*
X114896000Y-49420000D02*
X114515000Y-49420000D01*
X115500000Y-61500000D02*
X114500000Y-61500000D01*
X117055000Y-60850000D02*
X117436000Y-60850000D01*
X118325000Y-49420000D02*
X117944000Y-49420000D01*
X118960000Y-54500000D02*
X118960000Y-52214000D01*
X120484000Y-60850000D02*
X120865000Y-60850000D01*
X120865000Y-58691000D02*
X120865000Y-56959343D01*
X120865000Y-60850000D02*
X120865000Y-60469000D01*
X127500000Y-47500000D02*
X128500000Y-47500000D01*
X128500000Y-47500000D02*
X128500000Y-48500000D01*
X128500000Y-60500000D02*
X128500000Y-61500000D01*
X128500000Y-61500000D02*
X127500000Y-61500000D01*
X117055000Y-60850000D02*
G75*
G02*
X114515000Y-58310000I0J2540000D01*
G01*
X120865000Y-56959343D02*
G75*
G02*
X118960001Y-54500000I635002J2459345D01*
G01*
%TO.C,SW10*%
X76500000Y-97000000D02*
X76896000Y-97000000D01*
X76500000Y-98000000D02*
X76500000Y-97000000D01*
X76500000Y-111000000D02*
X76500000Y-110000000D01*
X76515000Y-98920000D02*
X76515000Y-107810000D01*
X76896000Y-98920000D02*
X76515000Y-98920000D01*
X77500000Y-111000000D02*
X76500000Y-111000000D01*
X79055000Y-110350000D02*
X79436000Y-110350000D01*
X80325000Y-98920000D02*
X79944000Y-98920000D01*
X80960000Y-104000000D02*
X80960000Y-101714000D01*
X82484000Y-110350000D02*
X82865000Y-110350000D01*
X82865000Y-108191000D02*
X82865000Y-106459343D01*
X82865000Y-110350000D02*
X82865000Y-109969000D01*
X89500000Y-97000000D02*
X90500000Y-97000000D01*
X90500000Y-97000000D02*
X90500000Y-98000000D01*
X90500000Y-110000000D02*
X90500000Y-111000000D01*
X90500000Y-111000000D02*
X89500000Y-111000000D01*
X79055000Y-110350000D02*
G75*
G02*
X76515000Y-107810000I0J2540000D01*
G01*
X82865000Y-106459343D02*
G75*
G02*
X80960001Y-104000000I635002J2459345D01*
G01*
%TO.C,SW19*%
X133500000Y-77000000D02*
X133896000Y-77000000D01*
X133500000Y-78000000D02*
X133500000Y-77000000D01*
X133500000Y-91000000D02*
X133500000Y-90000000D01*
X133515000Y-78920000D02*
X133515000Y-87810000D01*
X133896000Y-78920000D02*
X133515000Y-78920000D01*
X134500000Y-91000000D02*
X133500000Y-91000000D01*
X136055000Y-90350000D02*
X136436000Y-90350000D01*
X137325000Y-78920000D02*
X136944000Y-78920000D01*
X137960000Y-84000000D02*
X137960000Y-81714000D01*
X139484000Y-90350000D02*
X139865000Y-90350000D01*
X139865000Y-88191000D02*
X139865000Y-86459343D01*
X139865000Y-90350000D02*
X139865000Y-89969000D01*
X146500000Y-77000000D02*
X147500000Y-77000000D01*
X147500000Y-77000000D02*
X147500000Y-78000000D01*
X147500000Y-90000000D02*
X147500000Y-91000000D01*
X147500000Y-91000000D02*
X146500000Y-91000000D01*
X136055000Y-90350000D02*
G75*
G02*
X133515000Y-87810000I0J2540000D01*
G01*
X139865000Y-86459343D02*
G75*
G02*
X137960001Y-84000000I635002J2459345D01*
G01*
%TO.C,D17*%
X121499998Y-87500004D02*
X122499998Y-87500004D01*
X121499998Y-88500004D02*
X122499998Y-88500004D01*
X121999997Y-88400003D02*
X121499998Y-87500004D01*
X122499998Y-87500004D02*
X121999997Y-88400003D01*
D13*
G36*
X122800549Y-90635874D02*
G01*
X122800549Y-91198444D01*
X121200298Y-91198442D01*
X121200299Y-90635872D01*
X122800549Y-90635874D01*
G37*
G36*
X122800290Y-91201342D02*
G01*
X122651431Y-91201341D01*
X121199289Y-91201340D01*
X121199291Y-84949785D01*
X121350766Y-84949785D01*
X121350766Y-91053028D01*
X122651428Y-91053029D01*
X122651431Y-84949784D01*
X121350766Y-84949785D01*
X121199291Y-84949785D01*
X121199291Y-84801474D01*
X122800292Y-84801474D01*
X122800290Y-91201342D01*
G37*
D12*
%TO.C,SW8*%
X76500000Y-49500000D02*
X76896000Y-49500000D01*
X76500000Y-50500000D02*
X76500000Y-49500000D01*
X76500000Y-63500000D02*
X76500000Y-62500000D01*
X76515000Y-51420000D02*
X76515000Y-60310000D01*
X76896000Y-51420000D02*
X76515000Y-51420000D01*
X77500000Y-63500000D02*
X76500000Y-63500000D01*
X79055000Y-62850000D02*
X79436000Y-62850000D01*
X80325000Y-51420000D02*
X79944000Y-51420000D01*
X80960000Y-56500000D02*
X80960000Y-54214000D01*
X82484000Y-62850000D02*
X82865000Y-62850000D01*
X82865000Y-60691000D02*
X82865000Y-58959343D01*
X82865000Y-62850000D02*
X82865000Y-62469000D01*
X89500000Y-49500000D02*
X90500000Y-49500000D01*
X90500000Y-49500000D02*
X90500000Y-50500000D01*
X90500000Y-62500000D02*
X90500000Y-63500000D01*
X90500000Y-63500000D02*
X89500000Y-63500000D01*
X79055000Y-62850000D02*
G75*
G02*
X76515000Y-60310000I0J2540000D01*
G01*
X82865000Y-58959343D02*
G75*
G02*
X80960001Y-56500000I635002J2459345D01*
G01*
%TO.C,D+1*%
X83999997Y-89500002D02*
X84999997Y-89500002D01*
X83999997Y-90500002D02*
X84999997Y-90500002D01*
X84499998Y-90400001D02*
X83999997Y-89500002D01*
X84999997Y-89500002D02*
X84499998Y-90400001D01*
D13*
G36*
X85300549Y-92635871D02*
G01*
X85300549Y-93198440D01*
X83700296Y-93198442D01*
X83700298Y-92635870D01*
X85300549Y-92635871D01*
G37*
G36*
X85300291Y-86801471D02*
G01*
X85300289Y-93201340D01*
X85151430Y-93201338D01*
X83699288Y-93201342D01*
X83699288Y-93053026D01*
X83850764Y-93053026D01*
X85151429Y-93053029D01*
X85151426Y-86949783D01*
X83850765Y-86949783D01*
X83850764Y-93053026D01*
X83699288Y-93053026D01*
X83699289Y-86801470D01*
X85300291Y-86801471D01*
G37*
D12*
%TO.C,SW11*%
X95500000Y-25500000D02*
X95896000Y-25500000D01*
X95500000Y-26500000D02*
X95500000Y-25500000D01*
X95500000Y-39500000D02*
X95500000Y-38500000D01*
X95515000Y-27420000D02*
X95515000Y-36310000D01*
X95896000Y-27420000D02*
X95515000Y-27420000D01*
X96500000Y-39500000D02*
X95500000Y-39500000D01*
X98055000Y-38850000D02*
X98436000Y-38850000D01*
X99325000Y-27420000D02*
X98944000Y-27420000D01*
X99960000Y-32500000D02*
X99960000Y-30214000D01*
X101484000Y-38850000D02*
X101865000Y-38850000D01*
X101865000Y-36691000D02*
X101865000Y-34959343D01*
X101865000Y-38850000D02*
X101865000Y-38469000D01*
X108500000Y-25500000D02*
X109500000Y-25500000D01*
X109500000Y-25500000D02*
X109500000Y-26500000D01*
X109500000Y-38500000D02*
X109500000Y-39500000D01*
X109500000Y-39500000D02*
X108500000Y-39500000D01*
X98055000Y-38850000D02*
G75*
G02*
X95515000Y-36310000I0J2540000D01*
G01*
X101865000Y-34959343D02*
G75*
G02*
X99960001Y-32500000I635002J2459345D01*
G01*
D14*
%TO.C,Q3*%
X106500000Y-80690000D02*
X105850000Y-80690000D01*
X106500000Y-80690000D02*
X105850000Y-80690000D01*
X106500000Y-80690000D02*
X107150000Y-80690000D01*
X106500000Y-83810000D02*
X105850000Y-83810000D01*
X106500000Y-83810000D02*
X107150000Y-83810000D01*
X105577500Y-84090000D02*
X105097500Y-84090000D01*
X105337500Y-83760000D01*
X105577500Y-84090000D01*
G36*
X105577500Y-84090000D02*
G01*
X105097500Y-84090000D01*
X105337500Y-83760000D01*
X105577500Y-84090000D01*
G37*
%TO.C,J2_RECV1*%
X49492000Y-95751000D02*
X50000000Y-95243000D01*
X50000000Y-95243000D02*
X50508000Y-95751000D01*
X50508000Y-95751000D02*
X49492000Y-95751000D01*
X54280000Y-78855000D02*
X42350000Y-78855000D01*
X54280000Y-78855000D02*
X54280000Y-94875000D01*
X54280000Y-94875000D02*
X45290000Y-94875000D01*
D12*
%TO.C,D6*%
X114000000Y-98000000D02*
X115000000Y-98000000D01*
X114000000Y-99000000D02*
X115000000Y-99000000D01*
X114499999Y-98899999D02*
X114000000Y-98000000D01*
X115000000Y-98000000D02*
X114499999Y-98899999D01*
D13*
G36*
X115300551Y-101135870D02*
G01*
X115300551Y-101698440D01*
X113700300Y-101698438D01*
X113700301Y-101135868D01*
X115300551Y-101135870D01*
G37*
G36*
X115300292Y-101701338D02*
G01*
X115151433Y-101701337D01*
X113699291Y-101701336D01*
X113699293Y-95449781D01*
X113850768Y-95449781D01*
X113850768Y-101553024D01*
X115151430Y-101553025D01*
X115151433Y-95449780D01*
X113850768Y-95449781D01*
X113699293Y-95449781D01*
X113699293Y-95301470D01*
X115300294Y-95301470D01*
X115300292Y-101701338D01*
G37*
D14*
%TO.C,Q2*%
X102500000Y-80690000D02*
X101850000Y-80690000D01*
X102500000Y-80690000D02*
X101850000Y-80690000D01*
X102500000Y-80690000D02*
X103150000Y-80690000D01*
X102500000Y-83810000D02*
X101850000Y-83810000D01*
X102500000Y-83810000D02*
X103150000Y-83810000D01*
X101577500Y-84090000D02*
X101097500Y-84090000D01*
X101337500Y-83760000D01*
X101577500Y-84090000D01*
G36*
X101577500Y-84090000D02*
G01*
X101097500Y-84090000D01*
X101337500Y-83760000D01*
X101577500Y-84090000D01*
G37*
D12*
%TO.C,SW16*%
X114500000Y-66500000D02*
X114896000Y-66500000D01*
X114500000Y-67500000D02*
X114500000Y-66500000D01*
X114500000Y-80500000D02*
X114500000Y-79500000D01*
X114515000Y-68420000D02*
X114515000Y-77310000D01*
X114896000Y-68420000D02*
X114515000Y-68420000D01*
X115500000Y-80500000D02*
X114500000Y-80500000D01*
X117055000Y-79850000D02*
X117436000Y-79850000D01*
X118325000Y-68420000D02*
X117944000Y-68420000D01*
X118960000Y-73500000D02*
X118960000Y-71214000D01*
X120484000Y-79850000D02*
X120865000Y-79850000D01*
X120865000Y-77691000D02*
X120865000Y-75959343D01*
X120865000Y-79850000D02*
X120865000Y-79469000D01*
X127500000Y-66500000D02*
X128500000Y-66500000D01*
X128500000Y-66500000D02*
X128500000Y-67500000D01*
X128500000Y-79500000D02*
X128500000Y-80500000D01*
X128500000Y-80500000D02*
X127500000Y-80500000D01*
X117055000Y-79850000D02*
G75*
G02*
X114515000Y-77310000I0J2540000D01*
G01*
X120865000Y-75959343D02*
G75*
G02*
X118960001Y-73500000I635002J2459345D01*
G01*
%TO.C,SW9*%
X76500000Y-68500000D02*
X76896000Y-68500000D01*
X76500000Y-69500000D02*
X76500000Y-68500000D01*
X76500000Y-82500000D02*
X76500000Y-81500000D01*
X76515000Y-70420000D02*
X76515000Y-79310000D01*
X76896000Y-70420000D02*
X76515000Y-70420000D01*
X77500000Y-82500000D02*
X76500000Y-82500000D01*
X79055000Y-81850000D02*
X79436000Y-81850000D01*
X80325000Y-70420000D02*
X79944000Y-70420000D01*
X80960000Y-75500000D02*
X80960000Y-73214000D01*
X82484000Y-81850000D02*
X82865000Y-81850000D01*
X82865000Y-79691000D02*
X82865000Y-77959343D01*
X82865000Y-81850000D02*
X82865000Y-81469000D01*
X89500000Y-68500000D02*
X90500000Y-68500000D01*
X90500000Y-68500000D02*
X90500000Y-69500000D01*
X90500000Y-81500000D02*
X90500000Y-82500000D01*
X90500000Y-82500000D02*
X89500000Y-82500000D01*
X79055000Y-81850000D02*
G75*
G02*
X76515000Y-79310000I0J2540000D01*
G01*
X82865000Y-77959343D02*
G75*
G02*
X80960001Y-75500000I635002J2459345D01*
G01*
%TO.C,D7*%
X114000001Y-87500003D02*
X115000001Y-87500003D01*
X114000001Y-88500003D02*
X115000001Y-88500003D01*
X114500000Y-88400002D02*
X114000001Y-87500003D01*
X115000001Y-87500003D02*
X114500000Y-88400002D01*
D13*
G36*
X115300552Y-90635873D02*
G01*
X115300552Y-91198443D01*
X113700301Y-91198441D01*
X113700302Y-90635871D01*
X115300552Y-90635873D01*
G37*
G36*
X115300293Y-91201341D02*
G01*
X115151434Y-91201340D01*
X113699292Y-91201339D01*
X113699294Y-84949784D01*
X113850769Y-84949784D01*
X113850769Y-91053027D01*
X115151431Y-91053028D01*
X115151434Y-84949783D01*
X113850769Y-84949784D01*
X113699294Y-84949784D01*
X113699294Y-84801473D01*
X115300295Y-84801473D01*
X115300293Y-91201341D01*
G37*
D12*
%TO.C,SW17*%
X133500000Y-39000000D02*
X133896000Y-39000000D01*
X133500000Y-40000000D02*
X133500000Y-39000000D01*
X133500000Y-53000000D02*
X133500000Y-52000000D01*
X133515000Y-40920000D02*
X133515000Y-49810000D01*
X133896000Y-40920000D02*
X133515000Y-40920000D01*
X134500000Y-53000000D02*
X133500000Y-53000000D01*
X136055000Y-52350000D02*
X136436000Y-52350000D01*
X137325000Y-40920000D02*
X136944000Y-40920000D01*
X137960000Y-46000000D02*
X137960000Y-43714000D01*
X139484000Y-52350000D02*
X139865000Y-52350000D01*
X139865000Y-50191000D02*
X139865000Y-48459343D01*
X139865000Y-52350000D02*
X139865000Y-51969000D01*
X146500000Y-39000000D02*
X147500000Y-39000000D01*
X147500000Y-39000000D02*
X147500000Y-40000000D01*
X147500000Y-52000000D02*
X147500000Y-53000000D01*
X147500000Y-53000000D02*
X146500000Y-53000000D01*
X136055000Y-52350000D02*
G75*
G02*
X133515000Y-49810000I0J2540000D01*
G01*
X139865000Y-48459343D02*
G75*
G02*
X137960001Y-46000000I635002J2459345D01*
G01*
%TO.C,D16*%
X143499995Y-98000001D02*
X144499995Y-98000001D01*
X143499995Y-99000001D02*
X144499995Y-99000001D01*
X143999994Y-98900000D02*
X143499995Y-98000001D01*
X144499995Y-98000001D02*
X143999994Y-98900000D01*
D13*
G36*
X144800546Y-101135871D02*
G01*
X144800546Y-101698441D01*
X143200295Y-101698439D01*
X143200296Y-101135869D01*
X144800546Y-101135871D01*
G37*
G36*
X144800287Y-101701339D02*
G01*
X144651428Y-101701338D01*
X143199286Y-101701337D01*
X143199288Y-95449782D01*
X143350763Y-95449782D01*
X143350763Y-101553025D01*
X144651425Y-101553026D01*
X144651428Y-95449781D01*
X143350763Y-95449782D01*
X143199288Y-95449782D01*
X143199288Y-95301471D01*
X144800289Y-95301471D01*
X144800287Y-101701339D01*
G37*
D12*
%TO.C,SW1*%
X38500000Y-61000000D02*
X38896000Y-61000000D01*
X38500000Y-62000000D02*
X38500000Y-61000000D01*
X38500000Y-75000000D02*
X38500000Y-74000000D01*
X38515000Y-62920000D02*
X38515000Y-71810000D01*
X38896000Y-62920000D02*
X38515000Y-62920000D01*
X39500000Y-75000000D02*
X38500000Y-75000000D01*
X41055000Y-74350000D02*
X41436000Y-74350000D01*
X42325000Y-62920000D02*
X41944000Y-62920000D01*
X42960000Y-68000000D02*
X42960000Y-65714000D01*
X44484000Y-74350000D02*
X44865000Y-74350000D01*
X44865000Y-72191000D02*
X44865000Y-70459343D01*
X44865000Y-74350000D02*
X44865000Y-73969000D01*
X51500000Y-61000000D02*
X52500000Y-61000000D01*
X52500000Y-61000000D02*
X52500000Y-62000000D01*
X52500000Y-74000000D02*
X52500000Y-75000000D01*
X52500000Y-75000000D02*
X51500000Y-75000000D01*
X41055000Y-74350000D02*
G75*
G02*
X38515000Y-71810000I0J2540000D01*
G01*
X44865000Y-70459343D02*
G75*
G02*
X42960001Y-68000000I635002J2459345D01*
G01*
%TO.C,D19*%
X145999998Y-97999998D02*
X146999998Y-97999998D01*
X145999998Y-98999998D02*
X146999998Y-98999998D01*
X146499997Y-98899997D02*
X145999998Y-97999998D01*
X146999998Y-97999998D02*
X146499997Y-98899997D01*
D13*
G36*
X147300549Y-101135868D02*
G01*
X147300549Y-101698438D01*
X145700298Y-101698436D01*
X145700299Y-101135866D01*
X147300549Y-101135868D01*
G37*
G36*
X147300290Y-101701336D02*
G01*
X147151431Y-101701335D01*
X145699289Y-101701334D01*
X145699291Y-95449779D01*
X145850766Y-95449779D01*
X145850766Y-101553022D01*
X147151428Y-101553023D01*
X147151431Y-95449778D01*
X145850766Y-95449779D01*
X145699291Y-95449779D01*
X145699291Y-95301468D01*
X147300292Y-95301468D01*
X147300290Y-101701336D01*
G37*
D12*
%TO.C,D9*%
X138499999Y-98000000D02*
X139499999Y-98000000D01*
X138499999Y-99000000D02*
X139499999Y-99000000D01*
X138999998Y-98899999D02*
X138499999Y-98000000D01*
X139499999Y-98000000D02*
X138999998Y-98899999D01*
D13*
G36*
X139800550Y-101135870D02*
G01*
X139800550Y-101698440D01*
X138200299Y-101698438D01*
X138200300Y-101135868D01*
X139800550Y-101135870D01*
G37*
G36*
X139800291Y-101701338D02*
G01*
X139651432Y-101701337D01*
X138199290Y-101701336D01*
X138199292Y-95449781D01*
X138350767Y-95449781D01*
X138350767Y-101553024D01*
X139651429Y-101553025D01*
X139651432Y-95449780D01*
X138350767Y-95449781D01*
X138199292Y-95449781D01*
X138199292Y-95301470D01*
X139800293Y-95301470D01*
X139800291Y-101701338D01*
G37*
D12*
%TO.C,SW7*%
X76500000Y-30500000D02*
X76896000Y-30500000D01*
X76500000Y-31500000D02*
X76500000Y-30500000D01*
X76500000Y-44500000D02*
X76500000Y-43500000D01*
X76515000Y-32420000D02*
X76515000Y-41310000D01*
X76896000Y-32420000D02*
X76515000Y-32420000D01*
X77500000Y-44500000D02*
X76500000Y-44500000D01*
X79055000Y-43850000D02*
X79436000Y-43850000D01*
X80325000Y-32420000D02*
X79944000Y-32420000D01*
X80960000Y-37500000D02*
X80960000Y-35214000D01*
X82484000Y-43850000D02*
X82865000Y-43850000D01*
X82865000Y-41691000D02*
X82865000Y-39959343D01*
X82865000Y-43850000D02*
X82865000Y-43469000D01*
X89500000Y-30500000D02*
X90500000Y-30500000D01*
X90500000Y-30500000D02*
X90500000Y-31500000D01*
X90500000Y-43500000D02*
X90500000Y-44500000D01*
X90500000Y-44500000D02*
X89500000Y-44500000D01*
X79055000Y-43850000D02*
G75*
G02*
X76515000Y-41310000I0J2540000D01*
G01*
X82865000Y-39959343D02*
G75*
G02*
X80960001Y-37500000I635002J2459345D01*
G01*
D14*
%TO.C,Q3*%
X70599892Y-93924301D02*
X71440382Y-93083811D01*
X71575699Y-94900108D02*
X70599892Y-93924301D01*
X72416189Y-94059618D02*
X71575699Y-94900108D01*
X71440382Y-93083811D02*
G75*
G02*
X72416189Y-94059618I2559618J1583811D01*
G01*
D12*
%TO.C,D5*%
X136000000Y-98000003D02*
X137000000Y-98000003D01*
X136000000Y-99000003D02*
X137000000Y-99000003D01*
X136499999Y-98900002D02*
X136000000Y-98000003D01*
X137000000Y-98000003D02*
X136499999Y-98900002D01*
D13*
G36*
X137300551Y-101135873D02*
G01*
X137300551Y-101698443D01*
X135700300Y-101698441D01*
X135700301Y-101135871D01*
X137300551Y-101135873D01*
G37*
G36*
X137300292Y-101701341D02*
G01*
X137151433Y-101701340D01*
X135699291Y-101701339D01*
X135699293Y-95449784D01*
X135850768Y-95449784D01*
X135850768Y-101553027D01*
X137151430Y-101553028D01*
X137151433Y-95449783D01*
X135850768Y-95449784D01*
X135699293Y-95449784D01*
X135699293Y-95301473D01*
X137300294Y-95301473D01*
X137300292Y-101701341D01*
G37*
D12*
%TO.C,SW18*%
X133500000Y-58000000D02*
X133896000Y-58000000D01*
X133500000Y-59000000D02*
X133500000Y-58000000D01*
X133500000Y-72000000D02*
X133500000Y-71000000D01*
X133515000Y-59920000D02*
X133515000Y-68810000D01*
X133896000Y-59920000D02*
X133515000Y-59920000D01*
X134500000Y-72000000D02*
X133500000Y-72000000D01*
X136055000Y-71350000D02*
X136436000Y-71350000D01*
X137325000Y-59920000D02*
X136944000Y-59920000D01*
X137960000Y-65000000D02*
X137960000Y-62714000D01*
X139484000Y-71350000D02*
X139865000Y-71350000D01*
X139865000Y-69191000D02*
X139865000Y-67459343D01*
X139865000Y-71350000D02*
X139865000Y-70969000D01*
X146500000Y-58000000D02*
X147500000Y-58000000D01*
X147500000Y-58000000D02*
X147500000Y-59000000D01*
X147500000Y-71000000D02*
X147500000Y-72000000D01*
X147500000Y-72000000D02*
X146500000Y-72000000D01*
X136055000Y-71350000D02*
G75*
G02*
X133515000Y-68810000I0J2540000D01*
G01*
X139865000Y-67459343D02*
G75*
G02*
X137960001Y-65000000I635002J2459345D01*
G01*
%TO.C,SW2*%
X35016457Y-106539846D02*
X35398964Y-106437353D01*
X35275276Y-107505771D02*
X35016457Y-106539846D01*
X35527878Y-108390541D02*
X37828780Y-116977621D01*
X35895896Y-108291931D02*
X35527878Y-108390541D01*
X38639924Y-120062807D02*
X38381104Y-119096881D01*
X39208056Y-107404440D02*
X38840038Y-107503050D01*
X39605849Y-119803988D02*
X38639924Y-120062807D01*
X40939632Y-118773673D02*
X41307649Y-118675063D01*
X41136219Y-112146993D02*
X40544559Y-109938887D01*
X44061019Y-115702138D02*
X43612833Y-114029486D01*
X44251791Y-117886182D02*
X44619809Y-117787572D01*
X44619809Y-117787572D02*
X44521199Y-117419554D01*
X47573493Y-103175198D02*
X48539418Y-102916379D01*
X48539418Y-102916379D02*
X48798238Y-103882305D01*
X51904066Y-115473415D02*
X52162885Y-116439340D01*
X52162885Y-116439340D02*
X51196959Y-116698160D01*
X40939632Y-118773673D02*
G75*
G02*
X37828779Y-116977621I-657401J2453452D01*
G01*
X43612833Y-114029486D02*
G75*
G02*
X41136220Y-112146993I-23161J2539895D01*
G01*
%TO.C,SW14*%
X114500000Y-28500000D02*
X114896000Y-28500000D01*
X114500000Y-29500000D02*
X114500000Y-28500000D01*
X114500000Y-42500000D02*
X114500000Y-41500000D01*
X114515000Y-30420000D02*
X114515000Y-39310000D01*
X114896000Y-30420000D02*
X114515000Y-30420000D01*
X115500000Y-42500000D02*
X114500000Y-42500000D01*
X117055000Y-41850000D02*
X117436000Y-41850000D01*
X118325000Y-30420000D02*
X117944000Y-30420000D01*
X118960000Y-35500000D02*
X118960000Y-33214000D01*
X120484000Y-41850000D02*
X120865000Y-41850000D01*
X120865000Y-39691000D02*
X120865000Y-37959343D01*
X120865000Y-41850000D02*
X120865000Y-41469000D01*
X127500000Y-28500000D02*
X128500000Y-28500000D01*
X128500000Y-28500000D02*
X128500000Y-29500000D01*
X128500000Y-41500000D02*
X128500000Y-42500000D01*
X128500000Y-42500000D02*
X127500000Y-42500000D01*
X117055000Y-41850000D02*
G75*
G02*
X114515000Y-39310000I0J2540000D01*
G01*
X120865000Y-37959343D02*
G75*
G02*
X118960001Y-35500000I635002J2459345D01*
G01*
D14*
%TO.C,Q1*%
X98500000Y-80690000D02*
X97850000Y-80690000D01*
X98500000Y-80690000D02*
X97850000Y-80690000D01*
X98500000Y-80690000D02*
X99150000Y-80690000D01*
X98500000Y-83810000D02*
X97850000Y-83810000D01*
X98500000Y-83810000D02*
X99150000Y-83810000D01*
X97577500Y-84090000D02*
X97097500Y-84090000D01*
X97337500Y-83760000D01*
X97577500Y-84090000D01*
G36*
X97577500Y-84090000D02*
G01*
X97097500Y-84090000D01*
X97337500Y-83760000D01*
X97577500Y-84090000D01*
G37*
D12*
%TO.C,D1*%
X133499999Y-98000000D02*
X134499999Y-98000000D01*
X133499999Y-99000000D02*
X134499999Y-99000000D01*
X133999998Y-98899999D02*
X133499999Y-98000000D01*
X134499999Y-98000000D02*
X133999998Y-98899999D01*
D13*
G36*
X134800550Y-101135870D02*
G01*
X134800550Y-101698440D01*
X133200299Y-101698438D01*
X133200300Y-101135868D01*
X134800550Y-101135870D01*
G37*
G36*
X134800291Y-101701338D02*
G01*
X134651432Y-101701337D01*
X133199290Y-101701336D01*
X133199292Y-95449781D01*
X133350767Y-95449781D01*
X133350767Y-101553024D01*
X134651429Y-101553025D01*
X134651432Y-95449780D01*
X133350767Y-95449781D01*
X133199292Y-95449781D01*
X133199292Y-95301470D01*
X134800293Y-95301470D01*
X134800291Y-101701338D01*
G37*
D12*
%TO.C,D++1*%
X87500002Y-89500003D02*
X88500002Y-89500003D01*
X87500002Y-90500003D02*
X88500002Y-90500003D01*
X88000001Y-90400002D02*
X87500002Y-89500003D01*
X88500002Y-89500003D02*
X88000001Y-90400002D01*
D13*
G36*
X88800553Y-92635873D02*
G01*
X88800553Y-93198443D01*
X87200302Y-93198441D01*
X87200303Y-92635871D01*
X88800553Y-92635873D01*
G37*
G36*
X88800294Y-93201341D02*
G01*
X88651435Y-93201340D01*
X87199293Y-93201339D01*
X87199295Y-86949784D01*
X87350770Y-86949784D01*
X87350770Y-93053027D01*
X88651432Y-93053028D01*
X88651435Y-86949783D01*
X87350770Y-86949784D01*
X87199295Y-86949784D01*
X87199295Y-86801473D01*
X88800296Y-86801473D01*
X88800294Y-93201341D01*
G37*
D12*
%TO.C,D15*%
X127499999Y-98000000D02*
X128499999Y-98000000D01*
X127499999Y-99000000D02*
X128499999Y-99000000D01*
X127999998Y-98899999D02*
X127499999Y-98000000D01*
X128499999Y-98000000D02*
X127999998Y-98899999D01*
D13*
G36*
X128800550Y-101135870D02*
G01*
X128800550Y-101698440D01*
X127200299Y-101698438D01*
X127200300Y-101135868D01*
X128800550Y-101135870D01*
G37*
G36*
X128800291Y-101701338D02*
G01*
X128651432Y-101701337D01*
X127199290Y-101701336D01*
X127199292Y-95449781D01*
X127350767Y-95449781D01*
X127350767Y-101553024D01*
X128651429Y-101553025D01*
X128651432Y-95449780D01*
X127350767Y-95449781D01*
X127199292Y-95449781D01*
X127199292Y-95301470D01*
X128800293Y-95301470D01*
X128800291Y-101701338D01*
G37*
D12*
%TO.C,D12*%
X125000000Y-97999996D02*
X126000000Y-97999996D01*
X125000000Y-98999996D02*
X126000000Y-98999996D01*
X125499999Y-98899995D02*
X125000000Y-97999996D01*
X126000000Y-97999996D02*
X125499999Y-98899995D01*
D13*
G36*
X126300551Y-101135866D02*
G01*
X126300551Y-101698436D01*
X124700300Y-101698434D01*
X124700301Y-101135864D01*
X126300551Y-101135866D01*
G37*
G36*
X126300292Y-101701334D02*
G01*
X126151433Y-101701333D01*
X124699291Y-101701332D01*
X124699293Y-95449777D01*
X124850768Y-95449777D01*
X124850768Y-101553020D01*
X126151430Y-101553021D01*
X126151433Y-95449776D01*
X124850768Y-95449777D01*
X124699293Y-95449777D01*
X124699293Y-95301466D01*
X126300294Y-95301466D01*
X126300292Y-101701334D01*
G37*
D12*
%TO.C,D++2*%
X90000000Y-89499999D02*
X91000000Y-89499999D01*
X90000000Y-90499999D02*
X91000000Y-90499999D01*
X90499999Y-90399998D02*
X90000000Y-89499999D01*
X91000000Y-89499999D02*
X90499999Y-90399998D01*
D13*
G36*
X91300551Y-92635869D02*
G01*
X91300551Y-93198439D01*
X89700300Y-93198437D01*
X89700301Y-92635867D01*
X91300551Y-92635869D01*
G37*
G36*
X91300292Y-93201337D02*
G01*
X91151433Y-93201336D01*
X89699291Y-93201335D01*
X89699293Y-86949780D01*
X89850768Y-86949780D01*
X89850768Y-93053023D01*
X91151430Y-93053024D01*
X91151433Y-86949779D01*
X89850768Y-86949780D01*
X89699293Y-86949780D01*
X89699293Y-86801469D01*
X91300294Y-86801469D01*
X91300292Y-93201337D01*
G37*
D12*
%TO.C,D18*%
X129999999Y-97999996D02*
X130999999Y-97999996D01*
X129999999Y-98999996D02*
X130999999Y-98999996D01*
X130499998Y-98899995D02*
X129999999Y-97999996D01*
X130999999Y-97999996D02*
X130499998Y-98899995D01*
D13*
G36*
X131300550Y-101135866D02*
G01*
X131300550Y-101698436D01*
X129700299Y-101698434D01*
X129700300Y-101135864D01*
X131300550Y-101135866D01*
G37*
G36*
X131300291Y-101701334D02*
G01*
X131151432Y-101701333D01*
X129699290Y-101701332D01*
X129699292Y-95449777D01*
X129850767Y-95449777D01*
X129850767Y-101553020D01*
X131151429Y-101553021D01*
X131151432Y-95449776D01*
X129850767Y-95449777D01*
X129699292Y-95449777D01*
X129699292Y-95301466D01*
X131300293Y-95301466D01*
X131300291Y-101701334D01*
G37*
D12*
%TO.C,D++3*%
X92500004Y-89500001D02*
X93500004Y-89500001D01*
X92500004Y-90500001D02*
X93500004Y-90500001D01*
X93000003Y-90400000D02*
X92500004Y-89500001D01*
X93500004Y-89500001D02*
X93000003Y-90400000D01*
D13*
G36*
X93800555Y-92635871D02*
G01*
X93800555Y-93198441D01*
X92200304Y-93198439D01*
X92200305Y-92635869D01*
X93800555Y-92635871D01*
G37*
G36*
X93800296Y-93201339D02*
G01*
X93651437Y-93201338D01*
X92199295Y-93201337D01*
X92199297Y-86949782D01*
X92350772Y-86949782D01*
X92350772Y-93053025D01*
X93651434Y-93053026D01*
X93651437Y-86949781D01*
X92350772Y-86949782D01*
X92199297Y-86949782D01*
X92199297Y-86801471D01*
X93800298Y-86801471D01*
X93800296Y-93201339D01*
G37*
D12*
%TO.C,D2*%
X111500000Y-98000000D02*
X112500000Y-98000000D01*
X111500000Y-99000000D02*
X112500000Y-99000000D01*
X111999999Y-98899999D02*
X111500000Y-98000000D01*
X112500000Y-98000000D02*
X111999999Y-98899999D01*
D13*
G36*
X112800551Y-101135870D02*
G01*
X112800551Y-101698440D01*
X111200300Y-101698438D01*
X111200301Y-101135868D01*
X112800551Y-101135870D01*
G37*
G36*
X112800292Y-101701338D02*
G01*
X112651433Y-101701337D01*
X111199291Y-101701336D01*
X111199293Y-95449781D01*
X111350768Y-95449781D01*
X111350768Y-101553024D01*
X112651430Y-101553025D01*
X112651433Y-95449780D01*
X111350768Y-95449781D01*
X111199293Y-95449781D01*
X111199293Y-95301470D01*
X112800294Y-95301470D01*
X112800292Y-101701338D01*
G37*
%TD*%
M02*
