%TF.GenerationSoftware,KiCad,Pcbnew,9.0.4*%
%TF.CreationDate,2025-10-31T22:45:31+09:00*%
%TF.ProjectId,KeeNoard-SMD,4b65654e-6f61-4726-942d-534d442e6b69,rev?*%
%TF.SameCoordinates,Original*%
%TF.FileFunction,Soldermask,Top*%
%TF.FilePolarity,Negative*%
%FSLAX46Y46*%
G04 Gerber Fmt 4.6, Leading zero omitted, Abs format (unit mm)*
G04 Created by KiCad (PCBNEW 9.0.4) date 2025-10-31 22:45:31*
%MOMM*%
%LPD*%
G01*
G04 APERTURE LIST*
G04 Aperture macros list*
%AMRoundRect*
0 Rectangle with rounded corners*
0 $1 Rounding radius*
0 $2 $3 $4 $5 $6 $7 $8 $9 X,Y pos of 4 corners*
0 Add a 4 corners polygon primitive as box body*
4,1,4,$2,$3,$4,$5,$6,$7,$8,$9,$2,$3,0*
0 Add four circle primitives for the rounded corners*
1,1,$1+$1,$2,$3*
1,1,$1+$1,$4,$5*
1,1,$1+$1,$6,$7*
1,1,$1+$1,$8,$9*
0 Add four rect primitives between the rounded corners*
20,1,$1+$1,$2,$3,$4,$5,0*
20,1,$1+$1,$4,$5,$6,$7,0*
20,1,$1+$1,$6,$7,$8,$9,0*
20,1,$1+$1,$8,$9,$2,$3,0*%
%AMRotRect*
0 Rectangle, with rotation*
0 The origin of the aperture is its center*
0 $1 length*
0 $2 width*
0 $3 Rotation angle, in degrees counterclockwise*
0 Add horizontal line*
21,1,$1,$2,0,0,$3*%
%AMOutline5P*
0 Free polygon, 5 corners , with rotation*
0 The origin of the aperture is its center*
0 number of corners: always 5*
0 $1 to $10 corner X, Y*
0 $11 Rotation angle, in degrees counterclockwise*
0 create outline with 5 corners*
4,1,5,$1,$2,$3,$4,$5,$6,$7,$8,$9,$10,$1,$2,$11*%
%AMOutline6P*
0 Free polygon, 6 corners , with rotation*
0 The origin of the aperture is its center*
0 number of corners: always 6*
0 $1 to $12 corner X, Y*
0 $13 Rotation angle, in degrees counterclockwise*
0 create outline with 6 corners*
4,1,6,$1,$2,$3,$4,$5,$6,$7,$8,$9,$10,$11,$12,$1,$2,$13*%
%AMOutline7P*
0 Free polygon, 7 corners , with rotation*
0 The origin of the aperture is its center*
0 number of corners: always 7*
0 $1 to $14 corner X, Y*
0 $15 Rotation angle, in degrees counterclockwise*
0 create outline with 7 corners*
4,1,7,$1,$2,$3,$4,$5,$6,$7,$8,$9,$10,$11,$12,$13,$14,$1,$2,$15*%
%AMOutline8P*
0 Free polygon, 8 corners , with rotation*
0 The origin of the aperture is its center*
0 number of corners: always 8*
0 $1 to $16 corner X, Y*
0 $17 Rotation angle, in degrees counterclockwise*
0 create outline with 8 corners*
4,1,8,$1,$2,$3,$4,$5,$6,$7,$8,$9,$10,$11,$12,$13,$14,$15,$16,$1,$2,$17*%
%AMFreePoly0*
4,1,6,1.000000,0.000000,0.500000,-0.750000,-0.500000,-0.750000,-0.500000,0.750000,0.500000,0.750000,1.000000,0.000000,1.000000,0.000000,$1*%
%AMFreePoly1*
4,1,6,0.500000,-0.750000,-0.650000,-0.750000,-0.150000,0.000000,-0.650000,0.750000,0.500000,0.750000,0.500000,-0.750000,0.500000,-0.750000,$1*%
G04 Aperture macros list end*
%ADD10C,0.000000*%
%ADD11R,1.397000X1.397000*%
%ADD12R,0.940000X1.400000*%
%ADD13C,1.397000*%
%ADD14FreePoly0,270.000000*%
%ADD15FreePoly1,270.000000*%
%ADD16C,1.200000*%
%ADD17O,1.500000X1.200000*%
%ADD18R,2.000000X2.000000*%
%ADD19C,2.000000*%
%ADD20R,2.000000X3.200000*%
%ADD21C,1.701800*%
%ADD22C,3.000000*%
%ADD23C,3.987800*%
%ADD24R,2.500000X2.550000*%
%ADD25C,2.286000*%
%ADD26O,3.000000X1.500000*%
%ADD27O,1.500000X3.000000*%
%ADD28O,2.600000X1.500000*%
%ADD29Outline8P,-1.300000X0.450000X-1.000000X0.750000X1.000000X0.750000X1.300000X0.450000X1.300000X-0.450000X1.000000X-0.750000X-1.000000X-0.750000X-1.300000X-0.450000X0.000000*%
%ADD30R,3.000000X1.500000*%
%ADD31RoundRect,0.150000X-0.587500X-0.150000X0.587500X-0.150000X0.587500X0.150000X-0.587500X0.150000X0*%
%ADD32C,3.250000*%
%ADD33R,1.500000X1.500000*%
%ADD34C,1.500000*%
%ADD35RotRect,2.550000X2.500000X285.000000*%
G04 APERTURE END LIST*
D10*
%TO.C,JP1*%
G36*
X38750000Y-101225000D02*
G01*
X37250000Y-101225000D01*
X37250000Y-98775000D01*
X38750000Y-98775000D01*
X38750000Y-101225000D01*
G37*
%TO.C,JP6*%
G36*
X51250000Y-101225000D02*
G01*
X49750000Y-101225000D01*
X49750000Y-98775000D01*
X51250000Y-98775000D01*
X51250000Y-101225000D01*
G37*
%TO.C,JP5*%
G36*
X48750000Y-101225000D02*
G01*
X47250000Y-101225000D01*
X47250000Y-98775000D01*
X48750000Y-98775000D01*
X48750000Y-101225000D01*
G37*
%TO.C,JP7*%
G36*
X53750000Y-101225000D02*
G01*
X52250000Y-101225000D01*
X52250000Y-98775000D01*
X53750000Y-98775000D01*
X53750000Y-101225000D01*
G37*
%TO.C,JP4*%
G36*
X46250000Y-101225000D02*
G01*
X44750000Y-101225000D01*
X44750000Y-98775000D01*
X46250000Y-98775000D01*
X46250000Y-101225000D01*
G37*
%TO.C,JP2*%
G36*
X41250000Y-101225000D02*
G01*
X39750000Y-101225000D01*
X39750000Y-98775000D01*
X41250000Y-98775000D01*
X41250000Y-101225000D01*
G37*
%TO.C,JP3*%
G36*
X43750000Y-101225000D02*
G01*
X42250000Y-101225000D01*
X42250000Y-98775000D01*
X43750000Y-98775000D01*
X43750000Y-101225000D01*
G37*
%TD*%
D11*
%TO.C,D10*%
X117000000Y-102309999D03*
D12*
X116999998Y-100274998D03*
X117000002Y-96725002D03*
D13*
X117000000Y-94690001D03*
%TD*%
D14*
%TO.C,JP1*%
X38000000Y-99275000D03*
D15*
X38000000Y-100725000D03*
%TD*%
D11*
%TO.C,D+2*%
X81999998Y-93809999D03*
D12*
X82000000Y-91774998D03*
X81999996Y-88225002D03*
D13*
X81999998Y-86190001D03*
%TD*%
D11*
%TO.C,D11*%
X117000000Y-91809999D03*
D12*
X116999998Y-89774998D03*
X117000002Y-86225002D03*
D13*
X117000000Y-84190001D03*
%TD*%
D16*
%TO.C,Q1*%
X61270000Y-91500000D03*
X60000000Y-90230000D03*
X60000000Y-92770000D03*
D17*
X58730000Y-91500000D03*
%TD*%
D18*
%TO.C,SW20*%
X100000000Y-100500000D03*
X105000000Y-100500000D03*
D19*
X102500000Y-100500000D03*
X102500000Y-100500000D03*
D20*
X96900000Y-93000000D03*
X108100000Y-93000000D03*
D19*
X105000000Y-86000000D03*
X100000000Y-86000000D03*
%TD*%
D21*
%TO.C,SW6*%
X64500000Y-100920000D03*
D22*
X69580000Y-103460000D03*
X59420000Y-103460000D03*
D23*
X64500000Y-106000000D03*
D22*
X67040000Y-109810000D03*
X61960000Y-109810000D03*
D21*
X64500000Y-111080000D03*
D24*
X69580000Y-99710000D03*
D25*
X67040000Y-102190000D03*
X61960000Y-102190000D03*
X69580000Y-108540000D03*
X59420000Y-108540000D03*
D24*
X67040000Y-113560000D03*
%TD*%
D16*
%TO.C,Q2*%
X68270000Y-91500000D03*
X67000000Y-90230000D03*
X67000000Y-92770000D03*
D17*
X65730000Y-91500000D03*
%TD*%
D21*
%TO.C,SW3*%
X64500000Y-34420000D03*
D22*
X69580000Y-36960000D03*
X59420000Y-36960000D03*
D23*
X64500000Y-39500000D03*
D22*
X67040000Y-43310000D03*
X61960000Y-43310000D03*
D21*
X64500000Y-44580000D03*
D24*
X69580000Y-33210000D03*
D25*
X67040000Y-35690000D03*
X61960000Y-35690000D03*
X69580000Y-42040000D03*
X59420000Y-42040000D03*
D24*
X67040000Y-47060000D03*
%TD*%
D11*
%TO.C,D13*%
X141499996Y-102309996D03*
D12*
X141499994Y-100274995D03*
X141499998Y-96724999D03*
D13*
X141499996Y-94689998D03*
%TD*%
D21*
%TO.C,SW4*%
X64500000Y-53420000D03*
D22*
X69580000Y-55960000D03*
X59420000Y-55960000D03*
D23*
X64500000Y-58500000D03*
D22*
X67040000Y-62310000D03*
X61960000Y-62310000D03*
D21*
X64500000Y-63580000D03*
D24*
X69580000Y-52210000D03*
D25*
X67040000Y-54690000D03*
X61960000Y-54690000D03*
X69580000Y-61040000D03*
X59420000Y-61040000D03*
D24*
X67040000Y-66060000D03*
%TD*%
D11*
%TO.C,D14*%
X119499997Y-91810004D03*
D12*
X119499995Y-89775003D03*
X119499999Y-86225007D03*
D13*
X119499997Y-84190006D03*
%TD*%
D21*
%TO.C,SW13*%
X102500000Y-65420000D03*
D22*
X107580000Y-67960000D03*
X97420000Y-67960000D03*
D23*
X102500000Y-70500000D03*
D22*
X105040000Y-74310000D03*
X99960000Y-74310000D03*
D21*
X102500000Y-75580000D03*
D24*
X107580000Y-64210000D03*
D25*
X105040000Y-66690000D03*
X99960000Y-66690000D03*
X107580000Y-73040000D03*
X97420000Y-73040000D03*
D24*
X105040000Y-78060000D03*
%TD*%
D14*
%TO.C,JP6*%
X50500000Y-99275000D03*
D15*
X50500000Y-100725000D03*
%TD*%
D11*
%TO.C,D8*%
X123000000Y-102309999D03*
D12*
X122999998Y-100274998D03*
X123000002Y-96725002D03*
D13*
X123000000Y-94690001D03*
%TD*%
D26*
%TO.C,U1*%
X54870000Y-36090000D03*
X54870000Y-38630000D03*
X54870000Y-41170000D03*
X54870000Y-43710000D03*
X54870000Y-46250000D03*
X54870000Y-48790000D03*
X54870000Y-51330000D03*
X54870000Y-53870000D03*
X54870000Y-56410000D03*
D27*
X51580000Y-57160000D03*
X49040000Y-57160000D03*
X46500000Y-57160000D03*
X43960000Y-57160000D03*
X41420000Y-57160000D03*
D28*
X38330000Y-56410000D03*
X38330000Y-53870000D03*
X38330000Y-51330000D03*
X38330000Y-48790000D03*
X38330000Y-46250000D03*
X38330000Y-43710000D03*
D29*
X38330000Y-41170000D03*
D30*
X38130000Y-38630000D03*
D29*
X38330000Y-36090000D03*
%TD*%
D21*
%TO.C,SW5*%
X64500000Y-72420000D03*
D22*
X69580000Y-74960000D03*
X59420000Y-74960000D03*
D23*
X64500000Y-77500000D03*
D22*
X67040000Y-81310000D03*
X61960000Y-81310000D03*
D21*
X64500000Y-82580000D03*
D24*
X69580000Y-71210000D03*
D25*
X67040000Y-73690000D03*
X61960000Y-73690000D03*
X69580000Y-80040000D03*
X59420000Y-80040000D03*
D24*
X67040000Y-85060000D03*
%TD*%
D11*
%TO.C,D3*%
X112000001Y-91810002D03*
D12*
X111999999Y-89775001D03*
X112000003Y-86225005D03*
D13*
X112000001Y-84190004D03*
%TD*%
D11*
%TO.C,D4*%
X120500000Y-102309999D03*
D12*
X120499998Y-100274998D03*
X120500002Y-96725002D03*
D13*
X120500000Y-94690001D03*
%TD*%
D11*
%TO.C,D+3*%
X79499996Y-93809999D03*
D12*
X79499998Y-91774998D03*
X79499994Y-88225002D03*
D13*
X79499996Y-86190001D03*
%TD*%
D21*
%TO.C,SW12*%
X102500000Y-46420000D03*
D22*
X107580000Y-48960000D03*
X97420000Y-48960000D03*
D23*
X102500000Y-51500000D03*
D22*
X105040000Y-55310000D03*
X99960000Y-55310000D03*
D21*
X102500000Y-56580000D03*
D24*
X107580000Y-45210000D03*
D25*
X105040000Y-47690000D03*
X99960000Y-47690000D03*
X107580000Y-54040000D03*
X97420000Y-54040000D03*
D24*
X105040000Y-59060000D03*
%TD*%
D21*
%TO.C,SW15*%
X121500000Y-49420000D03*
D22*
X126580000Y-51960000D03*
X116420000Y-51960000D03*
D23*
X121500000Y-54500000D03*
D22*
X124040000Y-58310000D03*
X118960000Y-58310000D03*
D21*
X121500000Y-59580000D03*
D24*
X126580000Y-48210000D03*
D25*
X124040000Y-50690000D03*
X118960000Y-50690000D03*
X126580000Y-57040000D03*
X116420000Y-57040000D03*
D24*
X124040000Y-62060000D03*
%TD*%
D21*
%TO.C,SW10*%
X83500000Y-98920000D03*
D22*
X88580000Y-101460000D03*
X78420000Y-101460000D03*
D23*
X83500000Y-104000000D03*
D22*
X86040000Y-107810000D03*
X80960000Y-107810000D03*
D21*
X83500000Y-109080000D03*
D24*
X88580000Y-97710000D03*
D25*
X86040000Y-100190000D03*
X80960000Y-100190000D03*
X88580000Y-106540000D03*
X78420000Y-106540000D03*
D24*
X86040000Y-111560000D03*
%TD*%
D21*
%TO.C,SW19*%
X140500000Y-78920000D03*
D22*
X145580000Y-81460000D03*
X135420000Y-81460000D03*
D23*
X140500000Y-84000000D03*
D22*
X143040000Y-87810000D03*
X137960000Y-87810000D03*
D21*
X140500000Y-89080000D03*
D24*
X145580000Y-77710000D03*
D25*
X143040000Y-80190000D03*
X137960000Y-80190000D03*
X145580000Y-86540000D03*
X135420000Y-86540000D03*
D24*
X143040000Y-91560000D03*
%TD*%
D14*
%TO.C,JP5*%
X48000000Y-99275000D03*
D15*
X48000000Y-100725000D03*
%TD*%
D11*
%TO.C,D17*%
X121999998Y-91810003D03*
D12*
X121999996Y-89775002D03*
X122000000Y-86225006D03*
D13*
X121999998Y-84190005D03*
%TD*%
D21*
%TO.C,SW8*%
X83500000Y-51420000D03*
D22*
X88580000Y-53960000D03*
X78420000Y-53960000D03*
D23*
X83500000Y-56500000D03*
D22*
X86040000Y-60310000D03*
X80960000Y-60310000D03*
D21*
X83500000Y-61580000D03*
D24*
X88580000Y-50210000D03*
D25*
X86040000Y-52690000D03*
X80960000Y-52690000D03*
X88580000Y-59040000D03*
X78420000Y-59040000D03*
D24*
X86040000Y-64060000D03*
%TD*%
D11*
%TO.C,D+1*%
X84499997Y-93810001D03*
D12*
X84499999Y-91775000D03*
X84499995Y-88225004D03*
D13*
X84499997Y-86190003D03*
%TD*%
D21*
%TO.C,SW11*%
X102500000Y-27420000D03*
D22*
X107580000Y-29960000D03*
X97420000Y-29960000D03*
D23*
X102500000Y-32500000D03*
D22*
X105040000Y-36310000D03*
X99960000Y-36310000D03*
D21*
X102500000Y-37580000D03*
D24*
X107580000Y-26210000D03*
D25*
X105040000Y-28690000D03*
X99960000Y-28690000D03*
X107580000Y-35040000D03*
X97420000Y-35040000D03*
D24*
X105040000Y-40060000D03*
%TD*%
D31*
%TO.C,Q3*%
X107437500Y-82250000D03*
X107437500Y-82250000D03*
X105562500Y-81300000D03*
X105562500Y-81300000D03*
X105562500Y-83200000D03*
X105562500Y-83200000D03*
%TD*%
D32*
%TO.C,J2_RECV1*%
X43650000Y-81150000D03*
X43650000Y-82420000D03*
X43650000Y-92580000D03*
X43650000Y-93850000D03*
D33*
X50000000Y-83690000D03*
D34*
X52540000Y-84960000D03*
X50000000Y-86230000D03*
X52540000Y-87500000D03*
X50000000Y-88770000D03*
X52540000Y-90040000D03*
D33*
X50000000Y-91310000D03*
D34*
X52540000Y-82420000D03*
X52540000Y-92580000D03*
D22*
X40600000Y-79095000D03*
X40600000Y-80365000D03*
X40600000Y-94635000D03*
X40600000Y-95905000D03*
%TD*%
D11*
%TO.C,D6*%
X114500000Y-102309999D03*
D12*
X114499998Y-100274998D03*
X114500002Y-96725002D03*
D13*
X114500000Y-94690001D03*
%TD*%
D14*
%TO.C,JP7*%
X53000000Y-99275000D03*
D15*
X53000000Y-100725000D03*
%TD*%
D31*
%TO.C,Q2*%
X103437500Y-82250000D03*
X103437500Y-82250000D03*
X101562500Y-81300000D03*
X101562500Y-81300000D03*
X101562500Y-83200000D03*
X101562500Y-83200000D03*
%TD*%
D14*
%TO.C,JP4*%
X45500000Y-99275000D03*
D15*
X45500000Y-100725000D03*
%TD*%
D21*
%TO.C,SW16*%
X121500000Y-68420000D03*
D22*
X126580000Y-70960000D03*
X116420000Y-70960000D03*
D23*
X121500000Y-73500000D03*
D22*
X124040000Y-77310000D03*
X118960000Y-77310000D03*
D21*
X121500000Y-78580000D03*
D24*
X126580000Y-67210000D03*
D25*
X124040000Y-69690000D03*
X118960000Y-69690000D03*
X126580000Y-76040000D03*
X116420000Y-76040000D03*
D24*
X124040000Y-81060000D03*
%TD*%
D21*
%TO.C,SW9*%
X83500000Y-70420000D03*
D22*
X88580000Y-72960000D03*
X78420000Y-72960000D03*
D23*
X83500000Y-75500000D03*
D22*
X86040000Y-79310000D03*
X80960000Y-79310000D03*
D21*
X83500000Y-80580000D03*
D24*
X88580000Y-69210000D03*
D25*
X86040000Y-71690000D03*
X80960000Y-71690000D03*
X88580000Y-78040000D03*
X78420000Y-78040000D03*
D24*
X86040000Y-83060000D03*
%TD*%
D11*
%TO.C,D7*%
X114500001Y-91810002D03*
D12*
X114499999Y-89775001D03*
X114500003Y-86225005D03*
D13*
X114500001Y-84190004D03*
%TD*%
D21*
%TO.C,SW17*%
X140500000Y-40920000D03*
D22*
X145580000Y-43460000D03*
X135420000Y-43460000D03*
D23*
X140500000Y-46000000D03*
D22*
X143040000Y-49810000D03*
X137960000Y-49810000D03*
D21*
X140500000Y-51080000D03*
D24*
X145580000Y-39710000D03*
D25*
X143040000Y-42190000D03*
X137960000Y-42190000D03*
X145580000Y-48540000D03*
X135420000Y-48540000D03*
D24*
X143040000Y-53560000D03*
%TD*%
D11*
%TO.C,D16*%
X143999995Y-102310000D03*
D12*
X143999993Y-100274999D03*
X143999997Y-96725003D03*
D13*
X143999995Y-94690002D03*
%TD*%
D21*
%TO.C,SW1*%
X45500000Y-62920000D03*
D22*
X50580000Y-65460000D03*
X40420000Y-65460000D03*
D23*
X45500000Y-68000000D03*
D22*
X48040000Y-71810000D03*
X42960000Y-71810000D03*
D21*
X45500000Y-73080000D03*
D24*
X50580000Y-61710000D03*
D25*
X48040000Y-64190000D03*
X42960000Y-64190000D03*
X50580000Y-70540000D03*
X40420000Y-70540000D03*
D24*
X48040000Y-75560000D03*
%TD*%
D11*
%TO.C,D19*%
X146499998Y-102309997D03*
D12*
X146499996Y-100274996D03*
X146500000Y-96725000D03*
D13*
X146499998Y-94689999D03*
%TD*%
D11*
%TO.C,D9*%
X138999999Y-102309999D03*
D12*
X138999997Y-100274998D03*
X139000001Y-96725002D03*
D13*
X138999999Y-94690001D03*
%TD*%
D21*
%TO.C,SW7*%
X83500000Y-32420000D03*
D22*
X88580000Y-34960000D03*
X78420000Y-34960000D03*
D23*
X83500000Y-37500000D03*
D22*
X86040000Y-41310000D03*
X80960000Y-41310000D03*
D21*
X83500000Y-42580000D03*
D24*
X88580000Y-31210000D03*
D25*
X86040000Y-33690000D03*
X80960000Y-33690000D03*
X88580000Y-40040000D03*
X78420000Y-40040000D03*
D24*
X86040000Y-45060000D03*
%TD*%
D16*
%TO.C,Q3*%
X75270000Y-91500000D03*
X74000000Y-90230000D03*
X74000000Y-92770000D03*
D17*
X72730000Y-91500000D03*
%TD*%
D11*
%TO.C,D5*%
X136500000Y-102310002D03*
D12*
X136499998Y-100275001D03*
X136500002Y-96725005D03*
D13*
X136500000Y-94690004D03*
%TD*%
D21*
%TO.C,SW18*%
X140500000Y-59920000D03*
D22*
X145580000Y-62460000D03*
X135420000Y-62460000D03*
D23*
X140500000Y-65000000D03*
D22*
X143040000Y-68810000D03*
X137960000Y-68810000D03*
D21*
X140500000Y-70080000D03*
D24*
X145580000Y-58710000D03*
D25*
X143040000Y-61190000D03*
X137960000Y-61190000D03*
X145580000Y-67540000D03*
X135420000Y-67540000D03*
D24*
X143040000Y-72560000D03*
%TD*%
D14*
%TO.C,JP2*%
X40500000Y-99275000D03*
D15*
X40500000Y-100725000D03*
%TD*%
D21*
%TO.C,SW2*%
X42274870Y-106582690D03*
D22*
X47839174Y-107721341D03*
X38025367Y-110350942D03*
D23*
X43589671Y-111489593D03*
D22*
X47029223Y-114512370D03*
X42122320Y-115827171D03*
D21*
X44904472Y-116396496D03*
D35*
X46868602Y-104099119D03*
D25*
X45057022Y-107152015D03*
X40150119Y-108466816D03*
X49153975Y-112628244D03*
X39340168Y-115257845D03*
D35*
X47999795Y-118134592D03*
%TD*%
D21*
%TO.C,SW14*%
X121500000Y-30420000D03*
D22*
X126580000Y-32960000D03*
X116420000Y-32960000D03*
D23*
X121500000Y-35500000D03*
D22*
X124040000Y-39310000D03*
X118960000Y-39310000D03*
D21*
X121500000Y-40580000D03*
D24*
X126580000Y-29210000D03*
D25*
X124040000Y-31690000D03*
X118960000Y-31690000D03*
X126580000Y-38040000D03*
X116420000Y-38040000D03*
D24*
X124040000Y-43060000D03*
%TD*%
D14*
%TO.C,JP3*%
X43000000Y-99275000D03*
D15*
X43000000Y-100725000D03*
%TD*%
D31*
%TO.C,Q1*%
X99437500Y-82250000D03*
X99437500Y-82250000D03*
X97562500Y-81300000D03*
X97562500Y-81300000D03*
X97562500Y-83200000D03*
X97562500Y-83200000D03*
%TD*%
D11*
%TO.C,D1*%
X133999999Y-102309999D03*
D12*
X133999997Y-100274998D03*
X134000001Y-96725002D03*
D13*
X133999999Y-94690001D03*
%TD*%
D11*
%TO.C,D++1*%
X88000002Y-93810002D03*
D12*
X88000000Y-91775001D03*
X88000004Y-88225005D03*
D13*
X88000002Y-86190004D03*
%TD*%
D11*
%TO.C,D15*%
X127999999Y-102309999D03*
D12*
X127999997Y-100274998D03*
X128000001Y-96725002D03*
D13*
X127999999Y-94690001D03*
%TD*%
D11*
%TO.C,D12*%
X125500000Y-102309995D03*
D12*
X125499998Y-100274994D03*
X125500002Y-96724998D03*
D13*
X125500000Y-94689997D03*
%TD*%
D11*
%TO.C,D++2*%
X90500000Y-93809998D03*
D12*
X90499998Y-91774997D03*
X90500002Y-88225001D03*
D13*
X90500000Y-86190000D03*
%TD*%
D11*
%TO.C,D18*%
X130499999Y-102309995D03*
D12*
X130499997Y-100274994D03*
X130500001Y-96724998D03*
D13*
X130499999Y-94689997D03*
%TD*%
D11*
%TO.C,D++3*%
X93000004Y-93810000D03*
D12*
X93000002Y-91774999D03*
X93000006Y-88225003D03*
D13*
X93000004Y-86190002D03*
%TD*%
D11*
%TO.C,D2*%
X112000000Y-102309999D03*
D12*
X111999998Y-100274998D03*
X112000002Y-96725002D03*
D13*
X112000000Y-94690001D03*
%TD*%
M02*
