M48
; DRILL file {KiCad 9.0.4} date 2025-10-31T22:45:36+0900
; FORMAT={-:-/ absolute / metric / decimal}
; #@! TF.CreationDate,2025-10-31T22:45:36+09:00
; #@! TF.GenerationSoftware,Kicad,Pcbnew,9.0.4
; #@! TF.FileFunction,Plated,1,2,PTH
FMAT,2
METRIC
; #@! TA.AperFunction,Plated,PTH,ViaDrill
T1C0.300
; #@! TA.AperFunction,Plated,PTH,ComponentDrill
T2C0.700
; #@! TA.AperFunction,Plated,PTH,ComponentDrill
T3C0.813
; #@! TA.AperFunction,Plated,PTH,ComponentDrill
T4C0.850
; #@! TA.AperFunction,Plated,PTH,ComponentDrill
T5C0.900
; #@! TA.AperFunction,Plated,PTH,ComponentDrill
T6C1.000
; #@! TA.AperFunction,Plated,PTH,ComponentDrill
T7C1.499
; #@! TA.AperFunction,Plated,PTH,ComponentDrill
T8C1.500
; #@! TA.AperFunction,Plated,PTH,ComponentDrill
T9C1.600
%
G90
G05
T1
X33.0Y-105.5
X38.0Y-101.75
X39.25Y-98.0
X40.5Y-101.75
X43.0Y-101.75
X45.25Y-87.5
X45.5Y-77.75
X45.5Y-78.75
X45.5Y-101.75
X46.0Y-61.0
X48.0Y-101.75
X50.5Y-101.75
X52.75Y-68.5
X52.75Y-71.5
X53.0Y-101.75
X53.626Y-77.0
X54.0Y-117.5
X54.5Y-68.5
X54.5Y-71.5
X55.0Y-60.5
X55.25Y-92.25
X58.25Y-86.5
X63.0Y-71.5
X64.5Y-68.0
X64.5Y-74.5
X66.5Y-98.5
X67.007Y-70.507
X71.257Y-66.257
X72.0Y-86.5
X72.25Y-62.0
X72.5Y-77.0
X72.5Y-94.75
X72.5Y-95.75
X72.5Y-96.75
X72.5Y-97.75
X73.0Y-84.5
X73.5Y-77.0
X73.75Y-34.75
X74.0Y-98.5
X74.0Y-110.75
X74.5Y-41.0
X74.5Y-77.0
X75.0Y-82.5
X75.0Y-83.5
X75.5Y-77.0
X77.0Y-85.5
X77.0Y-86.5
X77.0Y-87.5
X77.5Y-92.5
X78.0Y-44.0
X78.0Y-48.0
X78.25Y-45.75
X83.5Y-64.5
X83.5Y-69.0
X89.5Y-79.5
X89.5Y-80.75
X91.0Y-65.0
X91.0Y-67.25
X91.25Y-80.75
X92.0Y-112.5
X93.5Y-31.5
X94.5Y-49.0
X94.5Y-69.0
X94.5Y-73.5
X95.75Y-89.0
X97.0Y-82.25
X98.0Y-82.25
X99.25Y-91.5
X99.5Y-94.5
X99.75Y-83.25
X100.5Y-95.5
X101.0Y-82.25
X101.5Y-96.5
X102.0Y-82.25
X103.5Y-96.5
X103.75Y-81.25
X104.0Y-64.5
X105.0Y-82.25
X106.0Y-82.25
X107.301Y-84.5
X107.5Y-97.0
X107.5Y-98.0
X107.75Y-90.0
X108.5Y-58.0
X109.5Y-75.0
X109.5Y-80.0
X109.5Y-81.25
X109.5Y-83.5
X110.0Y-67.0
X110.0Y-101.75
X110.5Y-45.0
X110.5Y-80.0
X111.5Y-45.0
X111.5Y-80.0
X112.5Y-45.0
X112.5Y-80.0
X113.5Y-45.0
X113.5Y-80.0
X114.5Y-45.0
X114.544Y-74.164
X115.5Y-62.5
X115.5Y-63.5
X115.5Y-65.0
X116.0Y-42.0
X125.0Y-84.75
X127.75Y-87.0
X128.5Y-63.75
X128.75Y-87.0
X129.5Y-63.75
X129.75Y-87.0
X130.5Y-63.75
X130.75Y-87.0
X131.5Y-37.75
X131.5Y-63.75
X131.5Y-92.75
X131.75Y-87.0
X132.5Y-63.75
X132.5Y-88.5
X132.5Y-91.75
X133.5Y-92.75
X140.5Y-92.0
X146.0Y-92.0
T2
X58.73Y-91.5
X60.0Y-90.23
X60.0Y-92.77
X61.27Y-91.5
X65.73Y-91.5
X67.0Y-90.23
X67.0Y-92.77
X68.27Y-91.5
X72.73Y-91.5
X74.0Y-90.23
X74.0Y-92.77
X75.27Y-91.5
T3
X79.5Y-86.19
X79.5Y-93.81
X82.0Y-86.19
X82.0Y-93.81
X84.5Y-86.19
X84.5Y-93.81
X88.0Y-86.19
X88.0Y-93.81
X90.5Y-86.19
X90.5Y-93.81
X93.0Y-86.19
X93.0Y-93.81
X112.0Y-94.69
X112.0Y-102.31
X112.0Y-84.19
X112.0Y-91.81
X114.5Y-94.69
X114.5Y-102.31
X114.5Y-84.19
X114.5Y-91.81
X117.0Y-84.19
X117.0Y-91.81
X117.0Y-94.69
X117.0Y-102.31
X119.5Y-84.19
X119.5Y-91.81
X120.5Y-94.69
X120.5Y-102.31
X122.0Y-84.19
X122.0Y-91.81
X123.0Y-94.69
X123.0Y-102.31
X125.5Y-94.69
X125.5Y-102.31
X128.0Y-94.69
X128.0Y-102.31
X130.5Y-94.69
X130.5Y-102.31
X134.0Y-94.69
X134.0Y-102.31
X136.5Y-94.69
X136.5Y-102.31
X139.0Y-94.69
X139.0Y-102.31
X141.5Y-94.69
X141.5Y-102.31
X144.0Y-94.69
X144.0Y-102.31
X146.5Y-94.69
X146.5Y-102.31
T4
X38.83Y-36.09
X38.83Y-38.63
X38.83Y-41.17
X38.83Y-43.71
X38.83Y-46.25
X38.83Y-48.79
X38.83Y-51.33
X38.83Y-53.87
X38.83Y-56.41
X41.42Y-56.46
X43.96Y-56.46
X46.5Y-56.46
X49.04Y-56.46
X51.58Y-56.46
X54.17Y-36.09
X54.17Y-38.63
X54.17Y-41.17
X54.17Y-43.71
X54.17Y-46.25
X54.17Y-48.79
X54.17Y-51.33
X54.17Y-53.87
X54.17Y-56.41
T5
X50.0Y-83.69
X50.0Y-86.23
X50.0Y-88.77
X50.0Y-91.31
X52.54Y-82.42
X52.54Y-84.96
X52.54Y-87.5
X52.54Y-90.04
X52.54Y-92.58
T6
X100.0Y-86.0
X100.0Y-100.5
X102.5Y-100.5
X102.5Y-100.5
X105.0Y-86.0
X105.0Y-100.5
T7
X39.34Y-115.258
X40.15Y-108.467
X40.42Y-70.54
X42.96Y-64.19
X45.057Y-107.152
X48.04Y-64.19
X49.154Y-112.628
X50.58Y-70.54
X59.42Y-42.04
X59.42Y-61.04
X59.42Y-80.04
X59.42Y-108.54
X61.96Y-35.69
X61.96Y-54.69
X61.96Y-73.69
X61.96Y-102.19
X67.04Y-35.69
X67.04Y-54.69
X67.04Y-73.69
X67.04Y-102.19
X69.58Y-42.04
X69.58Y-61.04
X69.58Y-80.04
X69.58Y-108.54
X78.42Y-40.04
X78.42Y-59.04
X78.42Y-78.04
X78.42Y-106.54
X80.96Y-33.69
X80.96Y-52.69
X80.96Y-71.69
X80.96Y-100.19
X86.04Y-33.69
X86.04Y-52.69
X86.04Y-71.69
X86.04Y-100.19
X88.58Y-40.04
X88.58Y-59.04
X88.58Y-78.04
X88.58Y-106.54
X97.42Y-35.04
X97.42Y-54.04
X97.42Y-73.04
X99.96Y-28.69
X99.96Y-47.69
X99.96Y-66.69
X105.04Y-28.69
X105.04Y-47.69
X105.04Y-66.69
X107.58Y-35.04
X107.58Y-54.04
X107.58Y-73.04
X116.42Y-38.04
X116.42Y-57.04
X116.42Y-76.04
X118.96Y-31.69
X118.96Y-50.69
X118.96Y-69.69
X124.04Y-31.69
X124.04Y-50.69
X124.04Y-69.69
X126.58Y-38.04
X126.58Y-57.04
X126.58Y-76.04
X135.42Y-48.54
X135.42Y-67.54
X135.42Y-86.54
X137.96Y-42.19
X137.96Y-61.19
X137.96Y-80.19
X143.04Y-42.19
X143.04Y-61.19
X143.04Y-80.19
X145.58Y-48.54
X145.58Y-67.54
X145.58Y-86.54
T9
X40.6Y-79.095
X40.6Y-80.365
X40.6Y-94.635
X40.6Y-95.905
T8
G00X96.9Y-92.35
M15
G01X96.9Y-93.65
M16
G05
G00X108.1Y-92.35
M15
G01X108.1Y-93.65
M16
G05
M30
