%TF.GenerationSoftware,KiCad,Pcbnew,9.0.4*%
%TF.CreationDate,2025-10-31T22:45:31+09:00*%
%TF.ProjectId,KeeNoard-SMD,4b65654e-6f61-4726-942d-534d442e6b69,rev?*%
%TF.SameCoordinates,Original*%
%TF.FileFunction,Legend,Top*%
%TF.FilePolarity,Positive*%
%FSLAX46Y46*%
G04 Gerber Fmt 4.6, Leading zero omitted, Abs format (unit mm)*
G04 Created by KiCad (PCBNEW 9.0.4) date 2025-10-31 22:45:31*
%MOMM*%
%LPD*%
G01*
G04 APERTURE LIST*
%ADD10C,0.250000*%
%ADD11C,0.150000*%
%ADD12C,0.300000*%
%ADD13C,0.000000*%
%ADD14C,0.120000*%
G04 APERTURE END LIST*
D10*
X63973996Y-96949619D02*
X63640663Y-96473428D01*
X63402568Y-96949619D02*
X63402568Y-95949619D01*
X63402568Y-95949619D02*
X63783520Y-95949619D01*
X63783520Y-95949619D02*
X63878758Y-95997238D01*
X63878758Y-95997238D02*
X63926377Y-96044857D01*
X63926377Y-96044857D02*
X63973996Y-96140095D01*
X63973996Y-96140095D02*
X63973996Y-96282952D01*
X63973996Y-96282952D02*
X63926377Y-96378190D01*
X63926377Y-96378190D02*
X63878758Y-96425809D01*
X63878758Y-96425809D02*
X63783520Y-96473428D01*
X63783520Y-96473428D02*
X63402568Y-96473428D01*
X64402568Y-96949619D02*
X64402568Y-96282952D01*
X64402568Y-95949619D02*
X64354949Y-95997238D01*
X64354949Y-95997238D02*
X64402568Y-96044857D01*
X64402568Y-96044857D02*
X64450187Y-95997238D01*
X64450187Y-95997238D02*
X64402568Y-95949619D01*
X64402568Y-95949619D02*
X64402568Y-96044857D01*
X65307329Y-96282952D02*
X65307329Y-97092476D01*
X65307329Y-97092476D02*
X65259710Y-97187714D01*
X65259710Y-97187714D02*
X65212091Y-97235333D01*
X65212091Y-97235333D02*
X65116853Y-97282952D01*
X65116853Y-97282952D02*
X64973996Y-97282952D01*
X64973996Y-97282952D02*
X64878758Y-97235333D01*
X65307329Y-96902000D02*
X65212091Y-96949619D01*
X65212091Y-96949619D02*
X65021615Y-96949619D01*
X65021615Y-96949619D02*
X64926377Y-96902000D01*
X64926377Y-96902000D02*
X64878758Y-96854380D01*
X64878758Y-96854380D02*
X64831139Y-96759142D01*
X64831139Y-96759142D02*
X64831139Y-96473428D01*
X64831139Y-96473428D02*
X64878758Y-96378190D01*
X64878758Y-96378190D02*
X64926377Y-96330571D01*
X64926377Y-96330571D02*
X65021615Y-96282952D01*
X65021615Y-96282952D02*
X65212091Y-96282952D01*
X65212091Y-96282952D02*
X65307329Y-96330571D01*
X65783520Y-96949619D02*
X65783520Y-95949619D01*
X66212091Y-96949619D02*
X66212091Y-96425809D01*
X66212091Y-96425809D02*
X66164472Y-96330571D01*
X66164472Y-96330571D02*
X66069234Y-96282952D01*
X66069234Y-96282952D02*
X65926377Y-96282952D01*
X65926377Y-96282952D02*
X65831139Y-96330571D01*
X65831139Y-96330571D02*
X65783520Y-96378190D01*
X66545425Y-96282952D02*
X66926377Y-96282952D01*
X66688282Y-95949619D02*
X66688282Y-96806761D01*
X66688282Y-96806761D02*
X66735901Y-96902000D01*
X66735901Y-96902000D02*
X66831139Y-96949619D01*
X66831139Y-96949619D02*
X66926377Y-96949619D01*
X67973997Y-96902000D02*
X68116854Y-96949619D01*
X68116854Y-96949619D02*
X68354949Y-96949619D01*
X68354949Y-96949619D02*
X68450187Y-96902000D01*
X68450187Y-96902000D02*
X68497806Y-96854380D01*
X68497806Y-96854380D02*
X68545425Y-96759142D01*
X68545425Y-96759142D02*
X68545425Y-96663904D01*
X68545425Y-96663904D02*
X68497806Y-96568666D01*
X68497806Y-96568666D02*
X68450187Y-96521047D01*
X68450187Y-96521047D02*
X68354949Y-96473428D01*
X68354949Y-96473428D02*
X68164473Y-96425809D01*
X68164473Y-96425809D02*
X68069235Y-96378190D01*
X68069235Y-96378190D02*
X68021616Y-96330571D01*
X68021616Y-96330571D02*
X67973997Y-96235333D01*
X67973997Y-96235333D02*
X67973997Y-96140095D01*
X67973997Y-96140095D02*
X68021616Y-96044857D01*
X68021616Y-96044857D02*
X68069235Y-95997238D01*
X68069235Y-95997238D02*
X68164473Y-95949619D01*
X68164473Y-95949619D02*
X68402568Y-95949619D01*
X68402568Y-95949619D02*
X68545425Y-95997238D01*
X68973997Y-96949619D02*
X68973997Y-96282952D01*
X68973997Y-95949619D02*
X68926378Y-95997238D01*
X68926378Y-95997238D02*
X68973997Y-96044857D01*
X68973997Y-96044857D02*
X69021616Y-95997238D01*
X69021616Y-95997238D02*
X68973997Y-95949619D01*
X68973997Y-95949619D02*
X68973997Y-96044857D01*
X69878758Y-96949619D02*
X69878758Y-95949619D01*
X69878758Y-96902000D02*
X69783520Y-96949619D01*
X69783520Y-96949619D02*
X69593044Y-96949619D01*
X69593044Y-96949619D02*
X69497806Y-96902000D01*
X69497806Y-96902000D02*
X69450187Y-96854380D01*
X69450187Y-96854380D02*
X69402568Y-96759142D01*
X69402568Y-96759142D02*
X69402568Y-96473428D01*
X69402568Y-96473428D02*
X69450187Y-96378190D01*
X69450187Y-96378190D02*
X69497806Y-96330571D01*
X69497806Y-96330571D02*
X69593044Y-96282952D01*
X69593044Y-96282952D02*
X69783520Y-96282952D01*
X69783520Y-96282952D02*
X69878758Y-96330571D01*
X70735901Y-96902000D02*
X70640663Y-96949619D01*
X70640663Y-96949619D02*
X70450187Y-96949619D01*
X70450187Y-96949619D02*
X70354949Y-96902000D01*
X70354949Y-96902000D02*
X70307330Y-96806761D01*
X70307330Y-96806761D02*
X70307330Y-96425809D01*
X70307330Y-96425809D02*
X70354949Y-96330571D01*
X70354949Y-96330571D02*
X70450187Y-96282952D01*
X70450187Y-96282952D02*
X70640663Y-96282952D01*
X70640663Y-96282952D02*
X70735901Y-96330571D01*
X70735901Y-96330571D02*
X70783520Y-96425809D01*
X70783520Y-96425809D02*
X70783520Y-96521047D01*
X70783520Y-96521047D02*
X70307330Y-96616285D01*
D11*
X98342800Y-91190476D02*
X98295180Y-91333333D01*
X98295180Y-91333333D02*
X98295180Y-91571428D01*
X98295180Y-91571428D02*
X98342800Y-91666666D01*
X98342800Y-91666666D02*
X98390419Y-91714285D01*
X98390419Y-91714285D02*
X98485657Y-91761904D01*
X98485657Y-91761904D02*
X98580895Y-91761904D01*
X98580895Y-91761904D02*
X98676133Y-91714285D01*
X98676133Y-91714285D02*
X98723752Y-91666666D01*
X98723752Y-91666666D02*
X98771371Y-91571428D01*
X98771371Y-91571428D02*
X98818990Y-91380952D01*
X98818990Y-91380952D02*
X98866609Y-91285714D01*
X98866609Y-91285714D02*
X98914228Y-91238095D01*
X98914228Y-91238095D02*
X99009466Y-91190476D01*
X99009466Y-91190476D02*
X99104704Y-91190476D01*
X99104704Y-91190476D02*
X99199942Y-91238095D01*
X99199942Y-91238095D02*
X99247561Y-91285714D01*
X99247561Y-91285714D02*
X99295180Y-91380952D01*
X99295180Y-91380952D02*
X99295180Y-91619047D01*
X99295180Y-91619047D02*
X99247561Y-91761904D01*
X99295180Y-92095238D02*
X98295180Y-92333333D01*
X98295180Y-92333333D02*
X99009466Y-92523809D01*
X99009466Y-92523809D02*
X98295180Y-92714285D01*
X98295180Y-92714285D02*
X99295180Y-92952381D01*
X99199942Y-93285714D02*
X99247561Y-93333333D01*
X99247561Y-93333333D02*
X99295180Y-93428571D01*
X99295180Y-93428571D02*
X99295180Y-93666666D01*
X99295180Y-93666666D02*
X99247561Y-93761904D01*
X99247561Y-93761904D02*
X99199942Y-93809523D01*
X99199942Y-93809523D02*
X99104704Y-93857142D01*
X99104704Y-93857142D02*
X99009466Y-93857142D01*
X99009466Y-93857142D02*
X98866609Y-93809523D01*
X98866609Y-93809523D02*
X98295180Y-93238095D01*
X98295180Y-93238095D02*
X98295180Y-93857142D01*
X99295180Y-94476190D02*
X99295180Y-94571428D01*
X99295180Y-94571428D02*
X99247561Y-94666666D01*
X99247561Y-94666666D02*
X99199942Y-94714285D01*
X99199942Y-94714285D02*
X99104704Y-94761904D01*
X99104704Y-94761904D02*
X98914228Y-94809523D01*
X98914228Y-94809523D02*
X98676133Y-94809523D01*
X98676133Y-94809523D02*
X98485657Y-94761904D01*
X98485657Y-94761904D02*
X98390419Y-94714285D01*
X98390419Y-94714285D02*
X98342800Y-94666666D01*
X98342800Y-94666666D02*
X98295180Y-94571428D01*
X98295180Y-94571428D02*
X98295180Y-94476190D01*
X98295180Y-94476190D02*
X98342800Y-94380952D01*
X98342800Y-94380952D02*
X98390419Y-94333333D01*
X98390419Y-94333333D02*
X98485657Y-94285714D01*
X98485657Y-94285714D02*
X98676133Y-94238095D01*
X98676133Y-94238095D02*
X98914228Y-94238095D01*
X98914228Y-94238095D02*
X99104704Y-94285714D01*
X99104704Y-94285714D02*
X99199942Y-94333333D01*
X99199942Y-94333333D02*
X99247561Y-94380952D01*
X99247561Y-94380952D02*
X99295180Y-94476190D01*
D10*
X42438282Y-96864619D02*
X42438282Y-97578904D01*
X42438282Y-97578904D02*
X42390663Y-97721761D01*
X42390663Y-97721761D02*
X42295425Y-97817000D01*
X42295425Y-97817000D02*
X42152568Y-97864619D01*
X42152568Y-97864619D02*
X42057330Y-97864619D01*
X43343044Y-97197952D02*
X43343044Y-97864619D01*
X42914473Y-97197952D02*
X42914473Y-97721761D01*
X42914473Y-97721761D02*
X42962092Y-97817000D01*
X42962092Y-97817000D02*
X43057330Y-97864619D01*
X43057330Y-97864619D02*
X43200187Y-97864619D01*
X43200187Y-97864619D02*
X43295425Y-97817000D01*
X43295425Y-97817000D02*
X43343044Y-97769380D01*
X43819235Y-97864619D02*
X43819235Y-97197952D01*
X43819235Y-97293190D02*
X43866854Y-97245571D01*
X43866854Y-97245571D02*
X43962092Y-97197952D01*
X43962092Y-97197952D02*
X44104949Y-97197952D01*
X44104949Y-97197952D02*
X44200187Y-97245571D01*
X44200187Y-97245571D02*
X44247806Y-97340809D01*
X44247806Y-97340809D02*
X44247806Y-97864619D01*
X44247806Y-97340809D02*
X44295425Y-97245571D01*
X44295425Y-97245571D02*
X44390663Y-97197952D01*
X44390663Y-97197952D02*
X44533520Y-97197952D01*
X44533520Y-97197952D02*
X44628759Y-97245571D01*
X44628759Y-97245571D02*
X44676378Y-97340809D01*
X44676378Y-97340809D02*
X44676378Y-97864619D01*
X45152568Y-97197952D02*
X45152568Y-98197952D01*
X45152568Y-97245571D02*
X45247806Y-97197952D01*
X45247806Y-97197952D02*
X45438282Y-97197952D01*
X45438282Y-97197952D02*
X45533520Y-97245571D01*
X45533520Y-97245571D02*
X45581139Y-97293190D01*
X45581139Y-97293190D02*
X45628758Y-97388428D01*
X45628758Y-97388428D02*
X45628758Y-97674142D01*
X45628758Y-97674142D02*
X45581139Y-97769380D01*
X45581139Y-97769380D02*
X45533520Y-97817000D01*
X45533520Y-97817000D02*
X45438282Y-97864619D01*
X45438282Y-97864619D02*
X45247806Y-97864619D01*
X45247806Y-97864619D02*
X45152568Y-97817000D01*
X46723997Y-96864619D02*
X46962092Y-97864619D01*
X46962092Y-97864619D02*
X47152568Y-97150333D01*
X47152568Y-97150333D02*
X47343044Y-97864619D01*
X47343044Y-97864619D02*
X47581140Y-96864619D01*
X47962092Y-97864619D02*
X47962092Y-96864619D01*
X48390663Y-97864619D02*
X48390663Y-97340809D01*
X48390663Y-97340809D02*
X48343044Y-97245571D01*
X48343044Y-97245571D02*
X48247806Y-97197952D01*
X48247806Y-97197952D02*
X48104949Y-97197952D01*
X48104949Y-97197952D02*
X48009711Y-97245571D01*
X48009711Y-97245571D02*
X47962092Y-97293190D01*
X49247806Y-97817000D02*
X49152568Y-97864619D01*
X49152568Y-97864619D02*
X48962092Y-97864619D01*
X48962092Y-97864619D02*
X48866854Y-97817000D01*
X48866854Y-97817000D02*
X48819235Y-97721761D01*
X48819235Y-97721761D02*
X48819235Y-97340809D01*
X48819235Y-97340809D02*
X48866854Y-97245571D01*
X48866854Y-97245571D02*
X48962092Y-97197952D01*
X48962092Y-97197952D02*
X49152568Y-97197952D01*
X49152568Y-97197952D02*
X49247806Y-97245571D01*
X49247806Y-97245571D02*
X49295425Y-97340809D01*
X49295425Y-97340809D02*
X49295425Y-97436047D01*
X49295425Y-97436047D02*
X48819235Y-97531285D01*
X49723997Y-97197952D02*
X49723997Y-97864619D01*
X49723997Y-97293190D02*
X49771616Y-97245571D01*
X49771616Y-97245571D02*
X49866854Y-97197952D01*
X49866854Y-97197952D02*
X50009711Y-97197952D01*
X50009711Y-97197952D02*
X50104949Y-97245571D01*
X50104949Y-97245571D02*
X50152568Y-97340809D01*
X50152568Y-97340809D02*
X50152568Y-97864619D01*
X51343045Y-97578904D02*
X51819235Y-97578904D01*
X51247807Y-97864619D02*
X51581140Y-96864619D01*
X51581140Y-96864619D02*
X51914473Y-97864619D01*
X52247807Y-96864619D02*
X52247807Y-97674142D01*
X52247807Y-97674142D02*
X52295426Y-97769380D01*
X52295426Y-97769380D02*
X52343045Y-97817000D01*
X52343045Y-97817000D02*
X52438283Y-97864619D01*
X52438283Y-97864619D02*
X52628759Y-97864619D01*
X52628759Y-97864619D02*
X52723997Y-97817000D01*
X52723997Y-97817000D02*
X52771616Y-97769380D01*
X52771616Y-97769380D02*
X52819235Y-97674142D01*
X52819235Y-97674142D02*
X52819235Y-96864619D01*
X53200188Y-96864619D02*
X53866854Y-97864619D01*
X53866854Y-96864619D02*
X53200188Y-97864619D01*
X54962093Y-97817000D02*
X55104950Y-97864619D01*
X55104950Y-97864619D02*
X55343045Y-97864619D01*
X55343045Y-97864619D02*
X55438283Y-97817000D01*
X55438283Y-97817000D02*
X55485902Y-97769380D01*
X55485902Y-97769380D02*
X55533521Y-97674142D01*
X55533521Y-97674142D02*
X55533521Y-97578904D01*
X55533521Y-97578904D02*
X55485902Y-97483666D01*
X55485902Y-97483666D02*
X55438283Y-97436047D01*
X55438283Y-97436047D02*
X55343045Y-97388428D01*
X55343045Y-97388428D02*
X55152569Y-97340809D01*
X55152569Y-97340809D02*
X55057331Y-97293190D01*
X55057331Y-97293190D02*
X55009712Y-97245571D01*
X55009712Y-97245571D02*
X54962093Y-97150333D01*
X54962093Y-97150333D02*
X54962093Y-97055095D01*
X54962093Y-97055095D02*
X55009712Y-96959857D01*
X55009712Y-96959857D02*
X55057331Y-96912238D01*
X55057331Y-96912238D02*
X55152569Y-96864619D01*
X55152569Y-96864619D02*
X55390664Y-96864619D01*
X55390664Y-96864619D02*
X55533521Y-96912238D01*
X55962093Y-97864619D02*
X55962093Y-97197952D01*
X55962093Y-96864619D02*
X55914474Y-96912238D01*
X55914474Y-96912238D02*
X55962093Y-96959857D01*
X55962093Y-96959857D02*
X56009712Y-96912238D01*
X56009712Y-96912238D02*
X55962093Y-96864619D01*
X55962093Y-96864619D02*
X55962093Y-96959857D01*
X56866854Y-97864619D02*
X56866854Y-96864619D01*
X56866854Y-97817000D02*
X56771616Y-97864619D01*
X56771616Y-97864619D02*
X56581140Y-97864619D01*
X56581140Y-97864619D02*
X56485902Y-97817000D01*
X56485902Y-97817000D02*
X56438283Y-97769380D01*
X56438283Y-97769380D02*
X56390664Y-97674142D01*
X56390664Y-97674142D02*
X56390664Y-97388428D01*
X56390664Y-97388428D02*
X56438283Y-97293190D01*
X56438283Y-97293190D02*
X56485902Y-97245571D01*
X56485902Y-97245571D02*
X56581140Y-97197952D01*
X56581140Y-97197952D02*
X56771616Y-97197952D01*
X56771616Y-97197952D02*
X56866854Y-97245571D01*
X57723997Y-97817000D02*
X57628759Y-97864619D01*
X57628759Y-97864619D02*
X57438283Y-97864619D01*
X57438283Y-97864619D02*
X57343045Y-97817000D01*
X57343045Y-97817000D02*
X57295426Y-97721761D01*
X57295426Y-97721761D02*
X57295426Y-97340809D01*
X57295426Y-97340809D02*
X57343045Y-97245571D01*
X57343045Y-97245571D02*
X57438283Y-97197952D01*
X57438283Y-97197952D02*
X57628759Y-97197952D01*
X57628759Y-97197952D02*
X57723997Y-97245571D01*
X57723997Y-97245571D02*
X57771616Y-97340809D01*
X57771616Y-97340809D02*
X57771616Y-97436047D01*
X57771616Y-97436047D02*
X57295426Y-97531285D01*
X132083332Y-35199619D02*
X132083332Y-34199619D01*
X132083332Y-34199619D02*
X132464284Y-34199619D01*
X132464284Y-34199619D02*
X132559522Y-34247238D01*
X132559522Y-34247238D02*
X132607141Y-34294857D01*
X132607141Y-34294857D02*
X132654760Y-34390095D01*
X132654760Y-34390095D02*
X132654760Y-34532952D01*
X132654760Y-34532952D02*
X132607141Y-34628190D01*
X132607141Y-34628190D02*
X132559522Y-34675809D01*
X132559522Y-34675809D02*
X132464284Y-34723428D01*
X132464284Y-34723428D02*
X132083332Y-34723428D01*
X133083332Y-35199619D02*
X133083332Y-34532952D01*
X133083332Y-34723428D02*
X133130951Y-34628190D01*
X133130951Y-34628190D02*
X133178570Y-34580571D01*
X133178570Y-34580571D02*
X133273808Y-34532952D01*
X133273808Y-34532952D02*
X133369046Y-34532952D01*
X134083332Y-35152000D02*
X133988094Y-35199619D01*
X133988094Y-35199619D02*
X133797618Y-35199619D01*
X133797618Y-35199619D02*
X133702380Y-35152000D01*
X133702380Y-35152000D02*
X133654761Y-35056761D01*
X133654761Y-35056761D02*
X133654761Y-34675809D01*
X133654761Y-34675809D02*
X133702380Y-34580571D01*
X133702380Y-34580571D02*
X133797618Y-34532952D01*
X133797618Y-34532952D02*
X133988094Y-34532952D01*
X133988094Y-34532952D02*
X134083332Y-34580571D01*
X134083332Y-34580571D02*
X134130951Y-34675809D01*
X134130951Y-34675809D02*
X134130951Y-34771047D01*
X134130951Y-34771047D02*
X133654761Y-34866285D01*
X134511904Y-35152000D02*
X134607142Y-35199619D01*
X134607142Y-35199619D02*
X134797618Y-35199619D01*
X134797618Y-35199619D02*
X134892856Y-35152000D01*
X134892856Y-35152000D02*
X134940475Y-35056761D01*
X134940475Y-35056761D02*
X134940475Y-35009142D01*
X134940475Y-35009142D02*
X134892856Y-34913904D01*
X134892856Y-34913904D02*
X134797618Y-34866285D01*
X134797618Y-34866285D02*
X134654761Y-34866285D01*
X134654761Y-34866285D02*
X134559523Y-34818666D01*
X134559523Y-34818666D02*
X134511904Y-34723428D01*
X134511904Y-34723428D02*
X134511904Y-34675809D01*
X134511904Y-34675809D02*
X134559523Y-34580571D01*
X134559523Y-34580571D02*
X134654761Y-34532952D01*
X134654761Y-34532952D02*
X134797618Y-34532952D01*
X134797618Y-34532952D02*
X134892856Y-34580571D01*
X135321428Y-35152000D02*
X135416666Y-35199619D01*
X135416666Y-35199619D02*
X135607142Y-35199619D01*
X135607142Y-35199619D02*
X135702380Y-35152000D01*
X135702380Y-35152000D02*
X135749999Y-35056761D01*
X135749999Y-35056761D02*
X135749999Y-35009142D01*
X135749999Y-35009142D02*
X135702380Y-34913904D01*
X135702380Y-34913904D02*
X135607142Y-34866285D01*
X135607142Y-34866285D02*
X135464285Y-34866285D01*
X135464285Y-34866285D02*
X135369047Y-34818666D01*
X135369047Y-34818666D02*
X135321428Y-34723428D01*
X135321428Y-34723428D02*
X135321428Y-34675809D01*
X135321428Y-34675809D02*
X135369047Y-34580571D01*
X135369047Y-34580571D02*
X135464285Y-34532952D01*
X135464285Y-34532952D02*
X135607142Y-34532952D01*
X135607142Y-34532952D02*
X135702380Y-34580571D01*
X137273809Y-34675809D02*
X137416666Y-34723428D01*
X137416666Y-34723428D02*
X137464285Y-34771047D01*
X137464285Y-34771047D02*
X137511904Y-34866285D01*
X137511904Y-34866285D02*
X137511904Y-35009142D01*
X137511904Y-35009142D02*
X137464285Y-35104380D01*
X137464285Y-35104380D02*
X137416666Y-35152000D01*
X137416666Y-35152000D02*
X137321428Y-35199619D01*
X137321428Y-35199619D02*
X136940476Y-35199619D01*
X136940476Y-35199619D02*
X136940476Y-34199619D01*
X136940476Y-34199619D02*
X137273809Y-34199619D01*
X137273809Y-34199619D02*
X137369047Y-34247238D01*
X137369047Y-34247238D02*
X137416666Y-34294857D01*
X137416666Y-34294857D02*
X137464285Y-34390095D01*
X137464285Y-34390095D02*
X137464285Y-34485333D01*
X137464285Y-34485333D02*
X137416666Y-34580571D01*
X137416666Y-34580571D02*
X137369047Y-34628190D01*
X137369047Y-34628190D02*
X137273809Y-34675809D01*
X137273809Y-34675809D02*
X136940476Y-34675809D01*
X138702381Y-34532952D02*
X138702381Y-35199619D01*
X138702381Y-34628190D02*
X138750000Y-34580571D01*
X138750000Y-34580571D02*
X138845238Y-34532952D01*
X138845238Y-34532952D02*
X138988095Y-34532952D01*
X138988095Y-34532952D02*
X139083333Y-34580571D01*
X139083333Y-34580571D02*
X139130952Y-34675809D01*
X139130952Y-34675809D02*
X139130952Y-35199619D01*
X139750000Y-35199619D02*
X139654762Y-35152000D01*
X139654762Y-35152000D02*
X139607143Y-35104380D01*
X139607143Y-35104380D02*
X139559524Y-35009142D01*
X139559524Y-35009142D02*
X139559524Y-34723428D01*
X139559524Y-34723428D02*
X139607143Y-34628190D01*
X139607143Y-34628190D02*
X139654762Y-34580571D01*
X139654762Y-34580571D02*
X139750000Y-34532952D01*
X139750000Y-34532952D02*
X139892857Y-34532952D01*
X139892857Y-34532952D02*
X139988095Y-34580571D01*
X139988095Y-34580571D02*
X140035714Y-34628190D01*
X140035714Y-34628190D02*
X140083333Y-34723428D01*
X140083333Y-34723428D02*
X140083333Y-35009142D01*
X140083333Y-35009142D02*
X140035714Y-35104380D01*
X140035714Y-35104380D02*
X139988095Y-35152000D01*
X139988095Y-35152000D02*
X139892857Y-35199619D01*
X139892857Y-35199619D02*
X139750000Y-35199619D01*
X140369048Y-34532952D02*
X140750000Y-34532952D01*
X140511905Y-34199619D02*
X140511905Y-35056761D01*
X140511905Y-35056761D02*
X140559524Y-35152000D01*
X140559524Y-35152000D02*
X140654762Y-35199619D01*
X140654762Y-35199619D02*
X140750000Y-35199619D01*
X141845239Y-35199619D02*
X141845239Y-34199619D01*
X141845239Y-34199619D02*
X142416667Y-35199619D01*
X142416667Y-35199619D02*
X142416667Y-34199619D01*
D12*
G36*
X134333278Y-37399308D02*
G01*
X134488971Y-37399308D01*
X134488971Y-37913000D01*
X133641191Y-37913000D01*
X133180293Y-36960709D01*
X133044482Y-37073012D01*
X133044482Y-37399308D01*
X133192249Y-37399308D01*
X133192249Y-37913000D01*
X132019517Y-37913000D01*
X132019517Y-37399308D01*
X132173463Y-37399308D01*
X132173463Y-36021852D01*
X132019517Y-36021852D01*
X132019517Y-35508160D01*
X133192249Y-35508160D01*
X133192249Y-36021852D01*
X133044482Y-36021852D01*
X133044482Y-36414912D01*
X133505918Y-36021852D01*
X133319194Y-36021852D01*
X133319194Y-35508160D01*
X134473522Y-35508160D01*
X134473522Y-36021852D01*
X134316889Y-36021852D01*
X133806422Y-36443659D01*
X134333278Y-37399308D01*
G37*
G36*
X135655560Y-36159740D02*
G01*
X135803592Y-36190113D01*
X135925244Y-36237118D01*
X136024886Y-36299267D01*
X136105809Y-36376492D01*
X136189444Y-36495252D01*
X136249583Y-36627265D01*
X136286653Y-36774997D01*
X136299518Y-36941633D01*
X136299518Y-37167583D01*
X135301554Y-37167583D01*
X135301554Y-37181822D01*
X135309795Y-37253348D01*
X135332287Y-37306749D01*
X135367915Y-37346515D01*
X135415519Y-37373339D01*
X135486735Y-37392041D01*
X135589968Y-37399308D01*
X135774772Y-37392233D01*
X135946355Y-37371635D01*
X136110248Y-37338626D01*
X136247128Y-37298961D01*
X136247128Y-37800428D01*
X136123086Y-37853589D01*
X135928220Y-37908298D01*
X135714730Y-37943764D01*
X135475919Y-37956121D01*
X135297467Y-37945648D01*
X135142645Y-37915927D01*
X135008103Y-37868847D01*
X134890992Y-37805368D01*
X134789072Y-37725470D01*
X134703294Y-37629319D01*
X134635307Y-37516841D01*
X134584827Y-37385537D01*
X134552831Y-37232078D01*
X134541495Y-37052459D01*
X134552831Y-36872839D01*
X134570613Y-36787553D01*
X135301554Y-36787553D01*
X135301554Y-36820196D01*
X135650284Y-36820196D01*
X135650284Y-36787553D01*
X135637897Y-36694280D01*
X135606760Y-36639786D01*
X135555246Y-36607059D01*
X135475919Y-36594784D01*
X135396713Y-36607403D01*
X135344944Y-36641264D01*
X135313747Y-36696722D01*
X135301554Y-36787553D01*
X134570613Y-36787553D01*
X134584827Y-36719380D01*
X134635307Y-36588076D01*
X134703294Y-36475598D01*
X134789072Y-36379448D01*
X134890992Y-36299549D01*
X135008103Y-36236070D01*
X135142645Y-36188991D01*
X135297467Y-36159269D01*
X135475919Y-36148797D01*
X135655560Y-36159740D01*
G37*
G36*
X137484646Y-36159740D02*
G01*
X137632678Y-36190113D01*
X137754330Y-36237118D01*
X137853971Y-36299267D01*
X137934895Y-36376492D01*
X138018530Y-36495252D01*
X138078668Y-36627265D01*
X138115739Y-36774997D01*
X138128604Y-36941633D01*
X138128604Y-37167583D01*
X137130640Y-37167583D01*
X137130640Y-37181822D01*
X137138881Y-37253348D01*
X137161372Y-37306749D01*
X137197001Y-37346515D01*
X137244605Y-37373339D01*
X137315821Y-37392041D01*
X137419054Y-37399308D01*
X137603858Y-37392233D01*
X137775441Y-37371635D01*
X137939333Y-37338626D01*
X138076214Y-37298961D01*
X138076214Y-37800428D01*
X137952172Y-37853589D01*
X137757306Y-37908298D01*
X137543815Y-37943764D01*
X137305005Y-37956121D01*
X137126553Y-37945648D01*
X136971731Y-37915927D01*
X136837189Y-37868847D01*
X136720077Y-37805368D01*
X136618158Y-37725470D01*
X136532380Y-37629319D01*
X136464393Y-37516841D01*
X136413913Y-37385537D01*
X136381917Y-37232078D01*
X136370581Y-37052459D01*
X136381917Y-36872839D01*
X136399699Y-36787553D01*
X137130640Y-36787553D01*
X137130640Y-36820196D01*
X137479370Y-36820196D01*
X137479370Y-36787553D01*
X137466983Y-36694280D01*
X137435846Y-36639786D01*
X137384332Y-36607059D01*
X137305005Y-36594784D01*
X137225799Y-36607403D01*
X137174030Y-36641264D01*
X137142832Y-36696722D01*
X137130640Y-36787553D01*
X136399699Y-36787553D01*
X136413913Y-36719380D01*
X136464393Y-36588076D01*
X136532380Y-36475598D01*
X136618158Y-36379448D01*
X136720077Y-36299549D01*
X136837189Y-36236070D01*
X136971731Y-36188991D01*
X137126553Y-36159269D01*
X137305005Y-36148797D01*
X137484646Y-36159740D01*
G37*
G36*
X139992214Y-35508160D02*
G01*
X141011000Y-35508160D01*
X141011000Y-36021852D01*
X140857053Y-36021852D01*
X140857053Y-37913000D01*
X139984960Y-37913000D01*
X139089089Y-36534065D01*
X139089089Y-37399308D01*
X139236990Y-37399308D01*
X139236990Y-37913000D01*
X138218205Y-37913000D01*
X138218205Y-37399308D01*
X138372151Y-37399308D01*
X138372151Y-36021852D01*
X138218205Y-36021852D01*
X138218205Y-35508160D01*
X139336666Y-35508160D01*
X140140115Y-36733148D01*
X140140115Y-36021852D01*
X139992214Y-36021852D01*
X139992214Y-35508160D01*
G37*
G36*
X142214789Y-36159481D02*
G01*
X142371090Y-36189725D01*
X142506047Y-36237502D01*
X142622715Y-36301774D01*
X142723484Y-36382537D01*
X142808445Y-36479818D01*
X142875683Y-36592730D01*
X142925492Y-36723623D01*
X142956979Y-36875618D01*
X142968105Y-37052459D01*
X142956764Y-37232070D01*
X142924753Y-37385525D01*
X142874248Y-37516829D01*
X142806224Y-37629312D01*
X142720394Y-37725470D01*
X142618474Y-37805368D01*
X142501363Y-37868847D01*
X142366821Y-37915927D01*
X142211999Y-37945648D01*
X142033547Y-37956121D01*
X141855094Y-37945648D01*
X141700272Y-37915927D01*
X141565730Y-37868847D01*
X141448619Y-37805368D01*
X141346699Y-37725470D01*
X141260921Y-37629319D01*
X141192934Y-37516841D01*
X141142455Y-37385537D01*
X141110458Y-37232078D01*
X141099122Y-37052459D01*
X141108838Y-36898512D01*
X141859182Y-36898512D01*
X141859182Y-37206405D01*
X141871378Y-37297354D01*
X141902571Y-37352829D01*
X141954340Y-37386689D01*
X142033547Y-37399308D01*
X142112730Y-37386684D01*
X142164388Y-37352829D01*
X142195682Y-37297340D01*
X142207912Y-37206405D01*
X142207912Y-36898512D01*
X142195682Y-36807577D01*
X142164388Y-36752089D01*
X142112730Y-36718233D01*
X142033547Y-36705609D01*
X141954340Y-36718228D01*
X141902571Y-36752089D01*
X141871378Y-36807564D01*
X141859182Y-36898512D01*
X141108838Y-36898512D01*
X141110458Y-36872839D01*
X141142455Y-36719380D01*
X141192934Y-36588076D01*
X141260921Y-36475598D01*
X141346699Y-36379448D01*
X141448619Y-36299549D01*
X141565730Y-36236070D01*
X141700272Y-36188991D01*
X141855094Y-36159269D01*
X142033547Y-36148797D01*
X142214789Y-36159481D01*
G37*
G36*
X144105780Y-36162000D02*
G01*
X144287814Y-36197370D01*
X144425053Y-36249828D01*
X144526778Y-36316311D01*
X144610115Y-36406439D01*
X144671646Y-36519112D01*
X144711071Y-36659297D01*
X144725323Y-36833764D01*
X144725323Y-37399308D01*
X144860865Y-37399308D01*
X144860865Y-37913000D01*
X144039147Y-37913000D01*
X144039147Y-37713111D01*
X143966772Y-37795177D01*
X143856050Y-37878610D01*
X143771191Y-37920615D01*
X143672425Y-37946870D01*
X143556755Y-37956121D01*
X143406373Y-37940964D01*
X143286433Y-37898799D01*
X143190293Y-37831728D01*
X143133405Y-37765493D01*
X143091976Y-37686721D01*
X143065897Y-37592892D01*
X143056631Y-37480580D01*
X143070189Y-37351056D01*
X143071221Y-37348127D01*
X143758255Y-37348127D01*
X143766304Y-37394625D01*
X143789286Y-37429802D01*
X143825284Y-37452540D01*
X143877140Y-37460833D01*
X143925312Y-37453372D01*
X143964492Y-37431794D01*
X143996966Y-37394741D01*
X144027336Y-37319988D01*
X144039147Y-37206405D01*
X144039147Y-37192300D01*
X143914056Y-37202535D01*
X143832004Y-37228436D01*
X143790735Y-37258110D01*
X143766706Y-37296993D01*
X143758255Y-37348127D01*
X143071221Y-37348127D01*
X143108987Y-37240909D01*
X143172576Y-37145893D01*
X143263636Y-37063472D01*
X143387672Y-36993131D01*
X143552515Y-36936406D01*
X143767858Y-36896683D01*
X144044923Y-36878900D01*
X144031470Y-36817789D01*
X144005422Y-36773983D01*
X143966875Y-36743357D01*
X143884495Y-36717038D01*
X143729239Y-36705609D01*
X143588917Y-36712646D01*
X143432765Y-36734894D01*
X143278067Y-36770028D01*
X143136694Y-36815360D01*
X143136694Y-36239069D01*
X143306805Y-36202692D01*
X143494558Y-36173514D01*
X143684866Y-36154888D01*
X143867871Y-36148797D01*
X144105780Y-36162000D01*
G37*
G36*
X146269621Y-36148797D02*
G01*
X146387700Y-36161290D01*
X146483346Y-36193530D01*
X146483346Y-36790911D01*
X146349022Y-36750149D01*
X146207962Y-36736506D01*
X146083648Y-36748953D01*
X145987196Y-36783171D01*
X145912294Y-36836988D01*
X145857152Y-36910369D01*
X145821827Y-37007471D01*
X145808857Y-37135611D01*
X145808857Y-37399308D01*
X146085987Y-37399308D01*
X146085987Y-37913000D01*
X144956376Y-37913000D01*
X144956376Y-37399308D01*
X145091785Y-37399308D01*
X145091785Y-36705609D01*
X144956376Y-36705609D01*
X144956376Y-36191918D01*
X145808857Y-36191918D01*
X145808857Y-36406852D01*
X145896817Y-36299864D01*
X145999476Y-36218785D01*
X146076892Y-36180765D01*
X146166101Y-36157101D01*
X146269621Y-36148797D01*
G37*
G36*
X148374091Y-37399308D02*
G01*
X148509633Y-37399308D01*
X148509633Y-37913000D01*
X147657018Y-37913000D01*
X147657018Y-37711768D01*
X147577138Y-37795494D01*
X147464787Y-37878610D01*
X147380181Y-37921271D01*
X147287254Y-37947206D01*
X147184030Y-37956121D01*
X147030504Y-37940302D01*
X146903317Y-37895544D01*
X146796887Y-37823135D01*
X146707817Y-37720634D01*
X146642628Y-37601324D01*
X146592648Y-37454056D01*
X146560043Y-37273259D01*
X146548229Y-37052459D01*
X146556467Y-36898512D01*
X147308423Y-36898512D01*
X147308423Y-37206405D01*
X147320619Y-37297354D01*
X147351812Y-37352829D01*
X147403582Y-37386689D01*
X147482788Y-37399308D01*
X147561854Y-37386689D01*
X147613494Y-37352829D01*
X147644788Y-37297340D01*
X147657018Y-37206405D01*
X147657018Y-36898512D01*
X147644788Y-36807577D01*
X147613494Y-36752089D01*
X147561854Y-36718228D01*
X147482788Y-36705609D01*
X147403582Y-36718228D01*
X147351812Y-36752089D01*
X147320619Y-36807564D01*
X147308423Y-36898512D01*
X146556467Y-36898512D01*
X146560045Y-36831651D01*
X146592653Y-36650881D01*
X146642632Y-36503662D01*
X146707817Y-36384418D01*
X146796895Y-36281851D01*
X146903329Y-36209402D01*
X147030514Y-36164623D01*
X147184030Y-36148797D01*
X147287254Y-36157712D01*
X147380181Y-36183647D01*
X147464787Y-36226307D01*
X147577138Y-36309424D01*
X147657018Y-36393150D01*
X147657018Y-36021852D01*
X147475399Y-36021852D01*
X147475399Y-35508160D01*
X148374091Y-35508160D01*
X148374091Y-37399308D01*
G37*
D11*
X59904761Y-88040057D02*
X59809523Y-87992438D01*
X59809523Y-87992438D02*
X59714285Y-87897200D01*
X59714285Y-87897200D02*
X59571428Y-87754342D01*
X59571428Y-87754342D02*
X59476190Y-87706723D01*
X59476190Y-87706723D02*
X59380952Y-87706723D01*
X59428571Y-87944819D02*
X59333333Y-87897200D01*
X59333333Y-87897200D02*
X59238095Y-87801961D01*
X59238095Y-87801961D02*
X59190476Y-87611485D01*
X59190476Y-87611485D02*
X59190476Y-87278152D01*
X59190476Y-87278152D02*
X59238095Y-87087676D01*
X59238095Y-87087676D02*
X59333333Y-86992438D01*
X59333333Y-86992438D02*
X59428571Y-86944819D01*
X59428571Y-86944819D02*
X59619047Y-86944819D01*
X59619047Y-86944819D02*
X59714285Y-86992438D01*
X59714285Y-86992438D02*
X59809523Y-87087676D01*
X59809523Y-87087676D02*
X59857142Y-87278152D01*
X59857142Y-87278152D02*
X59857142Y-87611485D01*
X59857142Y-87611485D02*
X59809523Y-87801961D01*
X59809523Y-87801961D02*
X59714285Y-87897200D01*
X59714285Y-87897200D02*
X59619047Y-87944819D01*
X59619047Y-87944819D02*
X59428571Y-87944819D01*
X60809523Y-87944819D02*
X60238095Y-87944819D01*
X60523809Y-87944819D02*
X60523809Y-86944819D01*
X60523809Y-86944819D02*
X60428571Y-87087676D01*
X60428571Y-87087676D02*
X60333333Y-87182914D01*
X60333333Y-87182914D02*
X60238095Y-87230533D01*
X73162200Y-107333332D02*
X73209819Y-107190475D01*
X73209819Y-107190475D02*
X73209819Y-106952380D01*
X73209819Y-106952380D02*
X73162200Y-106857142D01*
X73162200Y-106857142D02*
X73114580Y-106809523D01*
X73114580Y-106809523D02*
X73019342Y-106761904D01*
X73019342Y-106761904D02*
X72924104Y-106761904D01*
X72924104Y-106761904D02*
X72828866Y-106809523D01*
X72828866Y-106809523D02*
X72781247Y-106857142D01*
X72781247Y-106857142D02*
X72733628Y-106952380D01*
X72733628Y-106952380D02*
X72686009Y-107142856D01*
X72686009Y-107142856D02*
X72638390Y-107238094D01*
X72638390Y-107238094D02*
X72590771Y-107285713D01*
X72590771Y-107285713D02*
X72495533Y-107333332D01*
X72495533Y-107333332D02*
X72400295Y-107333332D01*
X72400295Y-107333332D02*
X72305057Y-107285713D01*
X72305057Y-107285713D02*
X72257438Y-107238094D01*
X72257438Y-107238094D02*
X72209819Y-107142856D01*
X72209819Y-107142856D02*
X72209819Y-106904761D01*
X72209819Y-106904761D02*
X72257438Y-106761904D01*
X72209819Y-106428570D02*
X73209819Y-106190475D01*
X73209819Y-106190475D02*
X72495533Y-105999999D01*
X72495533Y-105999999D02*
X73209819Y-105809523D01*
X73209819Y-105809523D02*
X72209819Y-105571428D01*
X72209819Y-104761904D02*
X72209819Y-104952380D01*
X72209819Y-104952380D02*
X72257438Y-105047618D01*
X72257438Y-105047618D02*
X72305057Y-105095237D01*
X72305057Y-105095237D02*
X72447914Y-105190475D01*
X72447914Y-105190475D02*
X72638390Y-105238094D01*
X72638390Y-105238094D02*
X73019342Y-105238094D01*
X73019342Y-105238094D02*
X73114580Y-105190475D01*
X73114580Y-105190475D02*
X73162200Y-105142856D01*
X73162200Y-105142856D02*
X73209819Y-105047618D01*
X73209819Y-105047618D02*
X73209819Y-104857142D01*
X73209819Y-104857142D02*
X73162200Y-104761904D01*
X73162200Y-104761904D02*
X73114580Y-104714285D01*
X73114580Y-104714285D02*
X73019342Y-104666666D01*
X73019342Y-104666666D02*
X72781247Y-104666666D01*
X72781247Y-104666666D02*
X72686009Y-104714285D01*
X72686009Y-104714285D02*
X72638390Y-104761904D01*
X72638390Y-104761904D02*
X72590771Y-104857142D01*
X72590771Y-104857142D02*
X72590771Y-105047618D01*
X72590771Y-105047618D02*
X72638390Y-105142856D01*
X72638390Y-105142856D02*
X72686009Y-105190475D01*
X72686009Y-105190475D02*
X72781247Y-105238094D01*
X66904761Y-88040057D02*
X66809523Y-87992438D01*
X66809523Y-87992438D02*
X66714285Y-87897200D01*
X66714285Y-87897200D02*
X66571428Y-87754342D01*
X66571428Y-87754342D02*
X66476190Y-87706723D01*
X66476190Y-87706723D02*
X66380952Y-87706723D01*
X66428571Y-87944819D02*
X66333333Y-87897200D01*
X66333333Y-87897200D02*
X66238095Y-87801961D01*
X66238095Y-87801961D02*
X66190476Y-87611485D01*
X66190476Y-87611485D02*
X66190476Y-87278152D01*
X66190476Y-87278152D02*
X66238095Y-87087676D01*
X66238095Y-87087676D02*
X66333333Y-86992438D01*
X66333333Y-86992438D02*
X66428571Y-86944819D01*
X66428571Y-86944819D02*
X66619047Y-86944819D01*
X66619047Y-86944819D02*
X66714285Y-86992438D01*
X66714285Y-86992438D02*
X66809523Y-87087676D01*
X66809523Y-87087676D02*
X66857142Y-87278152D01*
X66857142Y-87278152D02*
X66857142Y-87611485D01*
X66857142Y-87611485D02*
X66809523Y-87801961D01*
X66809523Y-87801961D02*
X66714285Y-87897200D01*
X66714285Y-87897200D02*
X66619047Y-87944819D01*
X66619047Y-87944819D02*
X66428571Y-87944819D01*
X67238095Y-87040057D02*
X67285714Y-86992438D01*
X67285714Y-86992438D02*
X67380952Y-86944819D01*
X67380952Y-86944819D02*
X67619047Y-86944819D01*
X67619047Y-86944819D02*
X67714285Y-86992438D01*
X67714285Y-86992438D02*
X67761904Y-87040057D01*
X67761904Y-87040057D02*
X67809523Y-87135295D01*
X67809523Y-87135295D02*
X67809523Y-87230533D01*
X67809523Y-87230533D02*
X67761904Y-87373390D01*
X67761904Y-87373390D02*
X67190476Y-87944819D01*
X67190476Y-87944819D02*
X67809523Y-87944819D01*
X73162200Y-40833332D02*
X73209819Y-40690475D01*
X73209819Y-40690475D02*
X73209819Y-40452380D01*
X73209819Y-40452380D02*
X73162200Y-40357142D01*
X73162200Y-40357142D02*
X73114580Y-40309523D01*
X73114580Y-40309523D02*
X73019342Y-40261904D01*
X73019342Y-40261904D02*
X72924104Y-40261904D01*
X72924104Y-40261904D02*
X72828866Y-40309523D01*
X72828866Y-40309523D02*
X72781247Y-40357142D01*
X72781247Y-40357142D02*
X72733628Y-40452380D01*
X72733628Y-40452380D02*
X72686009Y-40642856D01*
X72686009Y-40642856D02*
X72638390Y-40738094D01*
X72638390Y-40738094D02*
X72590771Y-40785713D01*
X72590771Y-40785713D02*
X72495533Y-40833332D01*
X72495533Y-40833332D02*
X72400295Y-40833332D01*
X72400295Y-40833332D02*
X72305057Y-40785713D01*
X72305057Y-40785713D02*
X72257438Y-40738094D01*
X72257438Y-40738094D02*
X72209819Y-40642856D01*
X72209819Y-40642856D02*
X72209819Y-40404761D01*
X72209819Y-40404761D02*
X72257438Y-40261904D01*
X72209819Y-39928570D02*
X73209819Y-39690475D01*
X73209819Y-39690475D02*
X72495533Y-39499999D01*
X72495533Y-39499999D02*
X73209819Y-39309523D01*
X73209819Y-39309523D02*
X72209819Y-39071428D01*
X72209819Y-38785713D02*
X72209819Y-38166666D01*
X72209819Y-38166666D02*
X72590771Y-38499999D01*
X72590771Y-38499999D02*
X72590771Y-38357142D01*
X72590771Y-38357142D02*
X72638390Y-38261904D01*
X72638390Y-38261904D02*
X72686009Y-38214285D01*
X72686009Y-38214285D02*
X72781247Y-38166666D01*
X72781247Y-38166666D02*
X73019342Y-38166666D01*
X73019342Y-38166666D02*
X73114580Y-38214285D01*
X73114580Y-38214285D02*
X73162200Y-38261904D01*
X73162200Y-38261904D02*
X73209819Y-38357142D01*
X73209819Y-38357142D02*
X73209819Y-38642856D01*
X73209819Y-38642856D02*
X73162200Y-38738094D01*
X73162200Y-38738094D02*
X73114580Y-38785713D01*
X73162200Y-59833332D02*
X73209819Y-59690475D01*
X73209819Y-59690475D02*
X73209819Y-59452380D01*
X73209819Y-59452380D02*
X73162200Y-59357142D01*
X73162200Y-59357142D02*
X73114580Y-59309523D01*
X73114580Y-59309523D02*
X73019342Y-59261904D01*
X73019342Y-59261904D02*
X72924104Y-59261904D01*
X72924104Y-59261904D02*
X72828866Y-59309523D01*
X72828866Y-59309523D02*
X72781247Y-59357142D01*
X72781247Y-59357142D02*
X72733628Y-59452380D01*
X72733628Y-59452380D02*
X72686009Y-59642856D01*
X72686009Y-59642856D02*
X72638390Y-59738094D01*
X72638390Y-59738094D02*
X72590771Y-59785713D01*
X72590771Y-59785713D02*
X72495533Y-59833332D01*
X72495533Y-59833332D02*
X72400295Y-59833332D01*
X72400295Y-59833332D02*
X72305057Y-59785713D01*
X72305057Y-59785713D02*
X72257438Y-59738094D01*
X72257438Y-59738094D02*
X72209819Y-59642856D01*
X72209819Y-59642856D02*
X72209819Y-59404761D01*
X72209819Y-59404761D02*
X72257438Y-59261904D01*
X72209819Y-58928570D02*
X73209819Y-58690475D01*
X73209819Y-58690475D02*
X72495533Y-58499999D01*
X72495533Y-58499999D02*
X73209819Y-58309523D01*
X73209819Y-58309523D02*
X72209819Y-58071428D01*
X72543152Y-57261904D02*
X73209819Y-57261904D01*
X72162200Y-57499999D02*
X72876485Y-57738094D01*
X72876485Y-57738094D02*
X72876485Y-57119047D01*
X111162200Y-72309523D02*
X111209819Y-72166666D01*
X111209819Y-72166666D02*
X111209819Y-71928571D01*
X111209819Y-71928571D02*
X111162200Y-71833333D01*
X111162200Y-71833333D02*
X111114580Y-71785714D01*
X111114580Y-71785714D02*
X111019342Y-71738095D01*
X111019342Y-71738095D02*
X110924104Y-71738095D01*
X110924104Y-71738095D02*
X110828866Y-71785714D01*
X110828866Y-71785714D02*
X110781247Y-71833333D01*
X110781247Y-71833333D02*
X110733628Y-71928571D01*
X110733628Y-71928571D02*
X110686009Y-72119047D01*
X110686009Y-72119047D02*
X110638390Y-72214285D01*
X110638390Y-72214285D02*
X110590771Y-72261904D01*
X110590771Y-72261904D02*
X110495533Y-72309523D01*
X110495533Y-72309523D02*
X110400295Y-72309523D01*
X110400295Y-72309523D02*
X110305057Y-72261904D01*
X110305057Y-72261904D02*
X110257438Y-72214285D01*
X110257438Y-72214285D02*
X110209819Y-72119047D01*
X110209819Y-72119047D02*
X110209819Y-71880952D01*
X110209819Y-71880952D02*
X110257438Y-71738095D01*
X110209819Y-71404761D02*
X111209819Y-71166666D01*
X111209819Y-71166666D02*
X110495533Y-70976190D01*
X110495533Y-70976190D02*
X111209819Y-70785714D01*
X111209819Y-70785714D02*
X110209819Y-70547619D01*
X111209819Y-69642857D02*
X111209819Y-70214285D01*
X111209819Y-69928571D02*
X110209819Y-69928571D01*
X110209819Y-69928571D02*
X110352676Y-70023809D01*
X110352676Y-70023809D02*
X110447914Y-70119047D01*
X110447914Y-70119047D02*
X110495533Y-70214285D01*
X110209819Y-69309523D02*
X110209819Y-68690476D01*
X110209819Y-68690476D02*
X110590771Y-69023809D01*
X110590771Y-69023809D02*
X110590771Y-68880952D01*
X110590771Y-68880952D02*
X110638390Y-68785714D01*
X110638390Y-68785714D02*
X110686009Y-68738095D01*
X110686009Y-68738095D02*
X110781247Y-68690476D01*
X110781247Y-68690476D02*
X111019342Y-68690476D01*
X111019342Y-68690476D02*
X111114580Y-68738095D01*
X111114580Y-68738095D02*
X111162200Y-68785714D01*
X111162200Y-68785714D02*
X111209819Y-68880952D01*
X111209819Y-68880952D02*
X111209819Y-69166666D01*
X111209819Y-69166666D02*
X111162200Y-69261904D01*
X111162200Y-69261904D02*
X111114580Y-69309523D01*
X41208207Y-59835819D02*
X40751064Y-59835819D01*
X40979636Y-59835819D02*
X40979636Y-58835819D01*
X40979636Y-58835819D02*
X40903445Y-58978676D01*
X40903445Y-58978676D02*
X40827255Y-59073914D01*
X40827255Y-59073914D02*
X40751064Y-59121533D01*
X41474874Y-58835819D02*
X41970112Y-58835819D01*
X41970112Y-58835819D02*
X41703446Y-59216771D01*
X41703446Y-59216771D02*
X41817731Y-59216771D01*
X41817731Y-59216771D02*
X41893922Y-59264390D01*
X41893922Y-59264390D02*
X41932017Y-59312009D01*
X41932017Y-59312009D02*
X41970112Y-59407247D01*
X41970112Y-59407247D02*
X41970112Y-59645342D01*
X41970112Y-59645342D02*
X41932017Y-59740580D01*
X41932017Y-59740580D02*
X41893922Y-59788200D01*
X41893922Y-59788200D02*
X41817731Y-59835819D01*
X41817731Y-59835819D02*
X41589160Y-59835819D01*
X41589160Y-59835819D02*
X41512969Y-59788200D01*
X41512969Y-59788200D02*
X41474874Y-59740580D01*
X48828207Y-59835819D02*
X48371064Y-59835819D01*
X48599636Y-59835819D02*
X48599636Y-58835819D01*
X48599636Y-58835819D02*
X48523445Y-58978676D01*
X48523445Y-58978676D02*
X48447255Y-59073914D01*
X48447255Y-59073914D02*
X48371064Y-59121533D01*
X49323446Y-58835819D02*
X49399636Y-58835819D01*
X49399636Y-58835819D02*
X49475827Y-58883438D01*
X49475827Y-58883438D02*
X49513922Y-58931057D01*
X49513922Y-58931057D02*
X49552017Y-59026295D01*
X49552017Y-59026295D02*
X49590112Y-59216771D01*
X49590112Y-59216771D02*
X49590112Y-59454866D01*
X49590112Y-59454866D02*
X49552017Y-59645342D01*
X49552017Y-59645342D02*
X49513922Y-59740580D01*
X49513922Y-59740580D02*
X49475827Y-59788200D01*
X49475827Y-59788200D02*
X49399636Y-59835819D01*
X49399636Y-59835819D02*
X49323446Y-59835819D01*
X49323446Y-59835819D02*
X49247255Y-59788200D01*
X49247255Y-59788200D02*
X49209160Y-59740580D01*
X49209160Y-59740580D02*
X49171065Y-59645342D01*
X49171065Y-59645342D02*
X49132969Y-59454866D01*
X49132969Y-59454866D02*
X49132969Y-59216771D01*
X49132969Y-59216771D02*
X49171065Y-59026295D01*
X49171065Y-59026295D02*
X49209160Y-58931057D01*
X49209160Y-58931057D02*
X49247255Y-58883438D01*
X49247255Y-58883438D02*
X49323446Y-58835819D01*
X57178207Y-48261569D02*
X56797255Y-48261569D01*
X56797255Y-48261569D02*
X56759159Y-48737759D01*
X56759159Y-48737759D02*
X56797255Y-48690140D01*
X56797255Y-48690140D02*
X56873445Y-48642521D01*
X56873445Y-48642521D02*
X57063921Y-48642521D01*
X57063921Y-48642521D02*
X57140112Y-48690140D01*
X57140112Y-48690140D02*
X57178207Y-48737759D01*
X57178207Y-48737759D02*
X57216302Y-48832997D01*
X57216302Y-48832997D02*
X57216302Y-49071092D01*
X57216302Y-49071092D02*
X57178207Y-49166330D01*
X57178207Y-49166330D02*
X57140112Y-49213950D01*
X57140112Y-49213950D02*
X57063921Y-49261569D01*
X57063921Y-49261569D02*
X56873445Y-49261569D01*
X56873445Y-49261569D02*
X56797255Y-49213950D01*
X56797255Y-49213950D02*
X56759159Y-49166330D01*
X51368208Y-59835819D02*
X51520589Y-59835819D01*
X51520589Y-59835819D02*
X51596779Y-59788200D01*
X51596779Y-59788200D02*
X51634875Y-59740580D01*
X51634875Y-59740580D02*
X51711065Y-59597723D01*
X51711065Y-59597723D02*
X51749160Y-59407247D01*
X51749160Y-59407247D02*
X51749160Y-59026295D01*
X51749160Y-59026295D02*
X51711065Y-58931057D01*
X51711065Y-58931057D02*
X51672970Y-58883438D01*
X51672970Y-58883438D02*
X51596779Y-58835819D01*
X51596779Y-58835819D02*
X51444398Y-58835819D01*
X51444398Y-58835819D02*
X51368208Y-58883438D01*
X51368208Y-58883438D02*
X51330113Y-58931057D01*
X51330113Y-58931057D02*
X51292017Y-59026295D01*
X51292017Y-59026295D02*
X51292017Y-59264390D01*
X51292017Y-59264390D02*
X51330113Y-59359628D01*
X51330113Y-59359628D02*
X51368208Y-59407247D01*
X51368208Y-59407247D02*
X51444398Y-59454866D01*
X51444398Y-59454866D02*
X51596779Y-59454866D01*
X51596779Y-59454866D02*
X51672970Y-59407247D01*
X51672970Y-59407247D02*
X51711065Y-59359628D01*
X51711065Y-59359628D02*
X51749160Y-59264390D01*
X56759159Y-40736807D02*
X56797255Y-40689188D01*
X56797255Y-40689188D02*
X56873445Y-40641569D01*
X56873445Y-40641569D02*
X57063921Y-40641569D01*
X57063921Y-40641569D02*
X57140112Y-40689188D01*
X57140112Y-40689188D02*
X57178207Y-40736807D01*
X57178207Y-40736807D02*
X57216302Y-40832045D01*
X57216302Y-40832045D02*
X57216302Y-40927283D01*
X57216302Y-40927283D02*
X57178207Y-41070140D01*
X57178207Y-41070140D02*
X56721064Y-41641569D01*
X56721064Y-41641569D02*
X57216302Y-41641569D01*
X56721064Y-53341569D02*
X57254398Y-53341569D01*
X57254398Y-53341569D02*
X56911540Y-54341569D01*
X56911540Y-56310140D02*
X56835350Y-56262521D01*
X56835350Y-56262521D02*
X56797255Y-56214902D01*
X56797255Y-56214902D02*
X56759159Y-56119664D01*
X56759159Y-56119664D02*
X56759159Y-56072045D01*
X56759159Y-56072045D02*
X56797255Y-55976807D01*
X56797255Y-55976807D02*
X56835350Y-55929188D01*
X56835350Y-55929188D02*
X56911540Y-55881569D01*
X56911540Y-55881569D02*
X57063921Y-55881569D01*
X57063921Y-55881569D02*
X57140112Y-55929188D01*
X57140112Y-55929188D02*
X57178207Y-55976807D01*
X57178207Y-55976807D02*
X57216302Y-56072045D01*
X57216302Y-56072045D02*
X57216302Y-56119664D01*
X57216302Y-56119664D02*
X57178207Y-56214902D01*
X57178207Y-56214902D02*
X57140112Y-56262521D01*
X57140112Y-56262521D02*
X57063921Y-56310140D01*
X57063921Y-56310140D02*
X56911540Y-56310140D01*
X56911540Y-56310140D02*
X56835350Y-56357759D01*
X56835350Y-56357759D02*
X56797255Y-56405378D01*
X56797255Y-56405378D02*
X56759159Y-56500616D01*
X56759159Y-56500616D02*
X56759159Y-56691092D01*
X56759159Y-56691092D02*
X56797255Y-56786330D01*
X56797255Y-56786330D02*
X56835350Y-56833950D01*
X56835350Y-56833950D02*
X56911540Y-56881569D01*
X56911540Y-56881569D02*
X57063921Y-56881569D01*
X57063921Y-56881569D02*
X57140112Y-56833950D01*
X57140112Y-56833950D02*
X57178207Y-56786330D01*
X57178207Y-56786330D02*
X57216302Y-56691092D01*
X57216302Y-56691092D02*
X57216302Y-56500616D01*
X57216302Y-56500616D02*
X57178207Y-56405378D01*
X57178207Y-56405378D02*
X57140112Y-56357759D01*
X57140112Y-56357759D02*
X57063921Y-56310140D01*
X43748207Y-59835819D02*
X43291064Y-59835819D01*
X43519636Y-59835819D02*
X43519636Y-58835819D01*
X43519636Y-58835819D02*
X43443445Y-58978676D01*
X43443445Y-58978676D02*
X43367255Y-59073914D01*
X43367255Y-59073914D02*
X43291064Y-59121533D01*
X44052969Y-58931057D02*
X44091065Y-58883438D01*
X44091065Y-58883438D02*
X44167255Y-58835819D01*
X44167255Y-58835819D02*
X44357731Y-58835819D01*
X44357731Y-58835819D02*
X44433922Y-58883438D01*
X44433922Y-58883438D02*
X44472017Y-58931057D01*
X44472017Y-58931057D02*
X44510112Y-59026295D01*
X44510112Y-59026295D02*
X44510112Y-59121533D01*
X44510112Y-59121533D02*
X44472017Y-59264390D01*
X44472017Y-59264390D02*
X44014874Y-59835819D01*
X44014874Y-59835819D02*
X44510112Y-59835819D01*
X56949636Y-35561569D02*
X57025826Y-35561569D01*
X57025826Y-35561569D02*
X57102017Y-35609188D01*
X57102017Y-35609188D02*
X57140112Y-35656807D01*
X57140112Y-35656807D02*
X57178207Y-35752045D01*
X57178207Y-35752045D02*
X57216302Y-35942521D01*
X57216302Y-35942521D02*
X57216302Y-36180616D01*
X57216302Y-36180616D02*
X57178207Y-36371092D01*
X57178207Y-36371092D02*
X57140112Y-36466330D01*
X57140112Y-36466330D02*
X57102017Y-36513950D01*
X57102017Y-36513950D02*
X57025826Y-36561569D01*
X57025826Y-36561569D02*
X56949636Y-36561569D01*
X56949636Y-36561569D02*
X56873445Y-36513950D01*
X56873445Y-36513950D02*
X56835350Y-36466330D01*
X56835350Y-36466330D02*
X56797255Y-36371092D01*
X56797255Y-36371092D02*
X56759159Y-36180616D01*
X56759159Y-36180616D02*
X56759159Y-35942521D01*
X56759159Y-35942521D02*
X56797255Y-35752045D01*
X56797255Y-35752045D02*
X56835350Y-35656807D01*
X56835350Y-35656807D02*
X56873445Y-35609188D01*
X56873445Y-35609188D02*
X56949636Y-35561569D01*
X46288207Y-59835819D02*
X45831064Y-59835819D01*
X46059636Y-59835819D02*
X46059636Y-58835819D01*
X46059636Y-58835819D02*
X45983445Y-58978676D01*
X45983445Y-58978676D02*
X45907255Y-59073914D01*
X45907255Y-59073914D02*
X45831064Y-59121533D01*
X47050112Y-59835819D02*
X46592969Y-59835819D01*
X46821541Y-59835819D02*
X46821541Y-58835819D01*
X46821541Y-58835819D02*
X46745350Y-58978676D01*
X46745350Y-58978676D02*
X46669160Y-59073914D01*
X46669160Y-59073914D02*
X46592969Y-59121533D01*
X56721064Y-43181569D02*
X57216302Y-43181569D01*
X57216302Y-43181569D02*
X56949636Y-43562521D01*
X56949636Y-43562521D02*
X57063921Y-43562521D01*
X57063921Y-43562521D02*
X57140112Y-43610140D01*
X57140112Y-43610140D02*
X57178207Y-43657759D01*
X57178207Y-43657759D02*
X57216302Y-43752997D01*
X57216302Y-43752997D02*
X57216302Y-43991092D01*
X57216302Y-43991092D02*
X57178207Y-44086330D01*
X57178207Y-44086330D02*
X57140112Y-44133950D01*
X57140112Y-44133950D02*
X57063921Y-44181569D01*
X57063921Y-44181569D02*
X56835350Y-44181569D01*
X56835350Y-44181569D02*
X56759159Y-44133950D01*
X56759159Y-44133950D02*
X56721064Y-44086330D01*
X57140112Y-50801569D02*
X56987731Y-50801569D01*
X56987731Y-50801569D02*
X56911540Y-50849188D01*
X56911540Y-50849188D02*
X56873445Y-50896807D01*
X56873445Y-50896807D02*
X56797255Y-51039664D01*
X56797255Y-51039664D02*
X56759159Y-51230140D01*
X56759159Y-51230140D02*
X56759159Y-51611092D01*
X56759159Y-51611092D02*
X56797255Y-51706330D01*
X56797255Y-51706330D02*
X56835350Y-51753950D01*
X56835350Y-51753950D02*
X56911540Y-51801569D01*
X56911540Y-51801569D02*
X57063921Y-51801569D01*
X57063921Y-51801569D02*
X57140112Y-51753950D01*
X57140112Y-51753950D02*
X57178207Y-51706330D01*
X57178207Y-51706330D02*
X57216302Y-51611092D01*
X57216302Y-51611092D02*
X57216302Y-51372997D01*
X57216302Y-51372997D02*
X57178207Y-51277759D01*
X57178207Y-51277759D02*
X57140112Y-51230140D01*
X57140112Y-51230140D02*
X57063921Y-51182521D01*
X57063921Y-51182521D02*
X56911540Y-51182521D01*
X56911540Y-51182521D02*
X56835350Y-51230140D01*
X56835350Y-51230140D02*
X56797255Y-51277759D01*
X56797255Y-51277759D02*
X56759159Y-51372997D01*
X57216302Y-39101569D02*
X56759159Y-39101569D01*
X56987731Y-39101569D02*
X56987731Y-38101569D01*
X56987731Y-38101569D02*
X56911540Y-38244426D01*
X56911540Y-38244426D02*
X56835350Y-38339664D01*
X56835350Y-38339664D02*
X56759159Y-38387283D01*
X57140112Y-46054902D02*
X57140112Y-46721569D01*
X56949636Y-45673950D02*
X56759159Y-46388235D01*
X56759159Y-46388235D02*
X57254398Y-46388235D01*
X73162200Y-78833332D02*
X73209819Y-78690475D01*
X73209819Y-78690475D02*
X73209819Y-78452380D01*
X73209819Y-78452380D02*
X73162200Y-78357142D01*
X73162200Y-78357142D02*
X73114580Y-78309523D01*
X73114580Y-78309523D02*
X73019342Y-78261904D01*
X73019342Y-78261904D02*
X72924104Y-78261904D01*
X72924104Y-78261904D02*
X72828866Y-78309523D01*
X72828866Y-78309523D02*
X72781247Y-78357142D01*
X72781247Y-78357142D02*
X72733628Y-78452380D01*
X72733628Y-78452380D02*
X72686009Y-78642856D01*
X72686009Y-78642856D02*
X72638390Y-78738094D01*
X72638390Y-78738094D02*
X72590771Y-78785713D01*
X72590771Y-78785713D02*
X72495533Y-78833332D01*
X72495533Y-78833332D02*
X72400295Y-78833332D01*
X72400295Y-78833332D02*
X72305057Y-78785713D01*
X72305057Y-78785713D02*
X72257438Y-78738094D01*
X72257438Y-78738094D02*
X72209819Y-78642856D01*
X72209819Y-78642856D02*
X72209819Y-78404761D01*
X72209819Y-78404761D02*
X72257438Y-78261904D01*
X72209819Y-77928570D02*
X73209819Y-77690475D01*
X73209819Y-77690475D02*
X72495533Y-77499999D01*
X72495533Y-77499999D02*
X73209819Y-77309523D01*
X73209819Y-77309523D02*
X72209819Y-77071428D01*
X72209819Y-76214285D02*
X72209819Y-76690475D01*
X72209819Y-76690475D02*
X72686009Y-76738094D01*
X72686009Y-76738094D02*
X72638390Y-76690475D01*
X72638390Y-76690475D02*
X72590771Y-76595237D01*
X72590771Y-76595237D02*
X72590771Y-76357142D01*
X72590771Y-76357142D02*
X72638390Y-76261904D01*
X72638390Y-76261904D02*
X72686009Y-76214285D01*
X72686009Y-76214285D02*
X72781247Y-76166666D01*
X72781247Y-76166666D02*
X73019342Y-76166666D01*
X73019342Y-76166666D02*
X73114580Y-76214285D01*
X73114580Y-76214285D02*
X73162200Y-76261904D01*
X73162200Y-76261904D02*
X73209819Y-76357142D01*
X73209819Y-76357142D02*
X73209819Y-76595237D01*
X73209819Y-76595237D02*
X73162200Y-76690475D01*
X73162200Y-76690475D02*
X73114580Y-76738094D01*
X111162200Y-53309523D02*
X111209819Y-53166666D01*
X111209819Y-53166666D02*
X111209819Y-52928571D01*
X111209819Y-52928571D02*
X111162200Y-52833333D01*
X111162200Y-52833333D02*
X111114580Y-52785714D01*
X111114580Y-52785714D02*
X111019342Y-52738095D01*
X111019342Y-52738095D02*
X110924104Y-52738095D01*
X110924104Y-52738095D02*
X110828866Y-52785714D01*
X110828866Y-52785714D02*
X110781247Y-52833333D01*
X110781247Y-52833333D02*
X110733628Y-52928571D01*
X110733628Y-52928571D02*
X110686009Y-53119047D01*
X110686009Y-53119047D02*
X110638390Y-53214285D01*
X110638390Y-53214285D02*
X110590771Y-53261904D01*
X110590771Y-53261904D02*
X110495533Y-53309523D01*
X110495533Y-53309523D02*
X110400295Y-53309523D01*
X110400295Y-53309523D02*
X110305057Y-53261904D01*
X110305057Y-53261904D02*
X110257438Y-53214285D01*
X110257438Y-53214285D02*
X110209819Y-53119047D01*
X110209819Y-53119047D02*
X110209819Y-52880952D01*
X110209819Y-52880952D02*
X110257438Y-52738095D01*
X110209819Y-52404761D02*
X111209819Y-52166666D01*
X111209819Y-52166666D02*
X110495533Y-51976190D01*
X110495533Y-51976190D02*
X111209819Y-51785714D01*
X111209819Y-51785714D02*
X110209819Y-51547619D01*
X111209819Y-50642857D02*
X111209819Y-51214285D01*
X111209819Y-50928571D02*
X110209819Y-50928571D01*
X110209819Y-50928571D02*
X110352676Y-51023809D01*
X110352676Y-51023809D02*
X110447914Y-51119047D01*
X110447914Y-51119047D02*
X110495533Y-51214285D01*
X110305057Y-50261904D02*
X110257438Y-50214285D01*
X110257438Y-50214285D02*
X110209819Y-50119047D01*
X110209819Y-50119047D02*
X110209819Y-49880952D01*
X110209819Y-49880952D02*
X110257438Y-49785714D01*
X110257438Y-49785714D02*
X110305057Y-49738095D01*
X110305057Y-49738095D02*
X110400295Y-49690476D01*
X110400295Y-49690476D02*
X110495533Y-49690476D01*
X110495533Y-49690476D02*
X110638390Y-49738095D01*
X110638390Y-49738095D02*
X111209819Y-50309523D01*
X111209819Y-50309523D02*
X111209819Y-49690476D01*
X130162200Y-56309523D02*
X130209819Y-56166666D01*
X130209819Y-56166666D02*
X130209819Y-55928571D01*
X130209819Y-55928571D02*
X130162200Y-55833333D01*
X130162200Y-55833333D02*
X130114580Y-55785714D01*
X130114580Y-55785714D02*
X130019342Y-55738095D01*
X130019342Y-55738095D02*
X129924104Y-55738095D01*
X129924104Y-55738095D02*
X129828866Y-55785714D01*
X129828866Y-55785714D02*
X129781247Y-55833333D01*
X129781247Y-55833333D02*
X129733628Y-55928571D01*
X129733628Y-55928571D02*
X129686009Y-56119047D01*
X129686009Y-56119047D02*
X129638390Y-56214285D01*
X129638390Y-56214285D02*
X129590771Y-56261904D01*
X129590771Y-56261904D02*
X129495533Y-56309523D01*
X129495533Y-56309523D02*
X129400295Y-56309523D01*
X129400295Y-56309523D02*
X129305057Y-56261904D01*
X129305057Y-56261904D02*
X129257438Y-56214285D01*
X129257438Y-56214285D02*
X129209819Y-56119047D01*
X129209819Y-56119047D02*
X129209819Y-55880952D01*
X129209819Y-55880952D02*
X129257438Y-55738095D01*
X129209819Y-55404761D02*
X130209819Y-55166666D01*
X130209819Y-55166666D02*
X129495533Y-54976190D01*
X129495533Y-54976190D02*
X130209819Y-54785714D01*
X130209819Y-54785714D02*
X129209819Y-54547619D01*
X130209819Y-53642857D02*
X130209819Y-54214285D01*
X130209819Y-53928571D02*
X129209819Y-53928571D01*
X129209819Y-53928571D02*
X129352676Y-54023809D01*
X129352676Y-54023809D02*
X129447914Y-54119047D01*
X129447914Y-54119047D02*
X129495533Y-54214285D01*
X129209819Y-52738095D02*
X129209819Y-53214285D01*
X129209819Y-53214285D02*
X129686009Y-53261904D01*
X129686009Y-53261904D02*
X129638390Y-53214285D01*
X129638390Y-53214285D02*
X129590771Y-53119047D01*
X129590771Y-53119047D02*
X129590771Y-52880952D01*
X129590771Y-52880952D02*
X129638390Y-52785714D01*
X129638390Y-52785714D02*
X129686009Y-52738095D01*
X129686009Y-52738095D02*
X129781247Y-52690476D01*
X129781247Y-52690476D02*
X130019342Y-52690476D01*
X130019342Y-52690476D02*
X130114580Y-52738095D01*
X130114580Y-52738095D02*
X130162200Y-52785714D01*
X130162200Y-52785714D02*
X130209819Y-52880952D01*
X130209819Y-52880952D02*
X130209819Y-53119047D01*
X130209819Y-53119047D02*
X130162200Y-53214285D01*
X130162200Y-53214285D02*
X130114580Y-53261904D01*
X92162200Y-105809523D02*
X92209819Y-105666666D01*
X92209819Y-105666666D02*
X92209819Y-105428571D01*
X92209819Y-105428571D02*
X92162200Y-105333333D01*
X92162200Y-105333333D02*
X92114580Y-105285714D01*
X92114580Y-105285714D02*
X92019342Y-105238095D01*
X92019342Y-105238095D02*
X91924104Y-105238095D01*
X91924104Y-105238095D02*
X91828866Y-105285714D01*
X91828866Y-105285714D02*
X91781247Y-105333333D01*
X91781247Y-105333333D02*
X91733628Y-105428571D01*
X91733628Y-105428571D02*
X91686009Y-105619047D01*
X91686009Y-105619047D02*
X91638390Y-105714285D01*
X91638390Y-105714285D02*
X91590771Y-105761904D01*
X91590771Y-105761904D02*
X91495533Y-105809523D01*
X91495533Y-105809523D02*
X91400295Y-105809523D01*
X91400295Y-105809523D02*
X91305057Y-105761904D01*
X91305057Y-105761904D02*
X91257438Y-105714285D01*
X91257438Y-105714285D02*
X91209819Y-105619047D01*
X91209819Y-105619047D02*
X91209819Y-105380952D01*
X91209819Y-105380952D02*
X91257438Y-105238095D01*
X91209819Y-104904761D02*
X92209819Y-104666666D01*
X92209819Y-104666666D02*
X91495533Y-104476190D01*
X91495533Y-104476190D02*
X92209819Y-104285714D01*
X92209819Y-104285714D02*
X91209819Y-104047619D01*
X92209819Y-103142857D02*
X92209819Y-103714285D01*
X92209819Y-103428571D02*
X91209819Y-103428571D01*
X91209819Y-103428571D02*
X91352676Y-103523809D01*
X91352676Y-103523809D02*
X91447914Y-103619047D01*
X91447914Y-103619047D02*
X91495533Y-103714285D01*
X91209819Y-102523809D02*
X91209819Y-102428571D01*
X91209819Y-102428571D02*
X91257438Y-102333333D01*
X91257438Y-102333333D02*
X91305057Y-102285714D01*
X91305057Y-102285714D02*
X91400295Y-102238095D01*
X91400295Y-102238095D02*
X91590771Y-102190476D01*
X91590771Y-102190476D02*
X91828866Y-102190476D01*
X91828866Y-102190476D02*
X92019342Y-102238095D01*
X92019342Y-102238095D02*
X92114580Y-102285714D01*
X92114580Y-102285714D02*
X92162200Y-102333333D01*
X92162200Y-102333333D02*
X92209819Y-102428571D01*
X92209819Y-102428571D02*
X92209819Y-102523809D01*
X92209819Y-102523809D02*
X92162200Y-102619047D01*
X92162200Y-102619047D02*
X92114580Y-102666666D01*
X92114580Y-102666666D02*
X92019342Y-102714285D01*
X92019342Y-102714285D02*
X91828866Y-102761904D01*
X91828866Y-102761904D02*
X91590771Y-102761904D01*
X91590771Y-102761904D02*
X91400295Y-102714285D01*
X91400295Y-102714285D02*
X91305057Y-102666666D01*
X91305057Y-102666666D02*
X91257438Y-102619047D01*
X91257438Y-102619047D02*
X91209819Y-102523809D01*
X149162200Y-85809523D02*
X149209819Y-85666666D01*
X149209819Y-85666666D02*
X149209819Y-85428571D01*
X149209819Y-85428571D02*
X149162200Y-85333333D01*
X149162200Y-85333333D02*
X149114580Y-85285714D01*
X149114580Y-85285714D02*
X149019342Y-85238095D01*
X149019342Y-85238095D02*
X148924104Y-85238095D01*
X148924104Y-85238095D02*
X148828866Y-85285714D01*
X148828866Y-85285714D02*
X148781247Y-85333333D01*
X148781247Y-85333333D02*
X148733628Y-85428571D01*
X148733628Y-85428571D02*
X148686009Y-85619047D01*
X148686009Y-85619047D02*
X148638390Y-85714285D01*
X148638390Y-85714285D02*
X148590771Y-85761904D01*
X148590771Y-85761904D02*
X148495533Y-85809523D01*
X148495533Y-85809523D02*
X148400295Y-85809523D01*
X148400295Y-85809523D02*
X148305057Y-85761904D01*
X148305057Y-85761904D02*
X148257438Y-85714285D01*
X148257438Y-85714285D02*
X148209819Y-85619047D01*
X148209819Y-85619047D02*
X148209819Y-85380952D01*
X148209819Y-85380952D02*
X148257438Y-85238095D01*
X148209819Y-84904761D02*
X149209819Y-84666666D01*
X149209819Y-84666666D02*
X148495533Y-84476190D01*
X148495533Y-84476190D02*
X149209819Y-84285714D01*
X149209819Y-84285714D02*
X148209819Y-84047619D01*
X149209819Y-83142857D02*
X149209819Y-83714285D01*
X149209819Y-83428571D02*
X148209819Y-83428571D01*
X148209819Y-83428571D02*
X148352676Y-83523809D01*
X148352676Y-83523809D02*
X148447914Y-83619047D01*
X148447914Y-83619047D02*
X148495533Y-83714285D01*
X149209819Y-82666666D02*
X149209819Y-82476190D01*
X149209819Y-82476190D02*
X149162200Y-82380952D01*
X149162200Y-82380952D02*
X149114580Y-82333333D01*
X149114580Y-82333333D02*
X148971723Y-82238095D01*
X148971723Y-82238095D02*
X148781247Y-82190476D01*
X148781247Y-82190476D02*
X148400295Y-82190476D01*
X148400295Y-82190476D02*
X148305057Y-82238095D01*
X148305057Y-82238095D02*
X148257438Y-82285714D01*
X148257438Y-82285714D02*
X148209819Y-82380952D01*
X148209819Y-82380952D02*
X148209819Y-82571428D01*
X148209819Y-82571428D02*
X148257438Y-82666666D01*
X148257438Y-82666666D02*
X148305057Y-82714285D01*
X148305057Y-82714285D02*
X148400295Y-82761904D01*
X148400295Y-82761904D02*
X148638390Y-82761904D01*
X148638390Y-82761904D02*
X148733628Y-82714285D01*
X148733628Y-82714285D02*
X148781247Y-82666666D01*
X148781247Y-82666666D02*
X148828866Y-82571428D01*
X148828866Y-82571428D02*
X148828866Y-82380952D01*
X148828866Y-82380952D02*
X148781247Y-82285714D01*
X148781247Y-82285714D02*
X148733628Y-82238095D01*
X148733628Y-82238095D02*
X148638390Y-82190476D01*
X92162200Y-57833332D02*
X92209819Y-57690475D01*
X92209819Y-57690475D02*
X92209819Y-57452380D01*
X92209819Y-57452380D02*
X92162200Y-57357142D01*
X92162200Y-57357142D02*
X92114580Y-57309523D01*
X92114580Y-57309523D02*
X92019342Y-57261904D01*
X92019342Y-57261904D02*
X91924104Y-57261904D01*
X91924104Y-57261904D02*
X91828866Y-57309523D01*
X91828866Y-57309523D02*
X91781247Y-57357142D01*
X91781247Y-57357142D02*
X91733628Y-57452380D01*
X91733628Y-57452380D02*
X91686009Y-57642856D01*
X91686009Y-57642856D02*
X91638390Y-57738094D01*
X91638390Y-57738094D02*
X91590771Y-57785713D01*
X91590771Y-57785713D02*
X91495533Y-57833332D01*
X91495533Y-57833332D02*
X91400295Y-57833332D01*
X91400295Y-57833332D02*
X91305057Y-57785713D01*
X91305057Y-57785713D02*
X91257438Y-57738094D01*
X91257438Y-57738094D02*
X91209819Y-57642856D01*
X91209819Y-57642856D02*
X91209819Y-57404761D01*
X91209819Y-57404761D02*
X91257438Y-57261904D01*
X91209819Y-56928570D02*
X92209819Y-56690475D01*
X92209819Y-56690475D02*
X91495533Y-56499999D01*
X91495533Y-56499999D02*
X92209819Y-56309523D01*
X92209819Y-56309523D02*
X91209819Y-56071428D01*
X91638390Y-55547618D02*
X91590771Y-55642856D01*
X91590771Y-55642856D02*
X91543152Y-55690475D01*
X91543152Y-55690475D02*
X91447914Y-55738094D01*
X91447914Y-55738094D02*
X91400295Y-55738094D01*
X91400295Y-55738094D02*
X91305057Y-55690475D01*
X91305057Y-55690475D02*
X91257438Y-55642856D01*
X91257438Y-55642856D02*
X91209819Y-55547618D01*
X91209819Y-55547618D02*
X91209819Y-55357142D01*
X91209819Y-55357142D02*
X91257438Y-55261904D01*
X91257438Y-55261904D02*
X91305057Y-55214285D01*
X91305057Y-55214285D02*
X91400295Y-55166666D01*
X91400295Y-55166666D02*
X91447914Y-55166666D01*
X91447914Y-55166666D02*
X91543152Y-55214285D01*
X91543152Y-55214285D02*
X91590771Y-55261904D01*
X91590771Y-55261904D02*
X91638390Y-55357142D01*
X91638390Y-55357142D02*
X91638390Y-55547618D01*
X91638390Y-55547618D02*
X91686009Y-55642856D01*
X91686009Y-55642856D02*
X91733628Y-55690475D01*
X91733628Y-55690475D02*
X91828866Y-55738094D01*
X91828866Y-55738094D02*
X92019342Y-55738094D01*
X92019342Y-55738094D02*
X92114580Y-55690475D01*
X92114580Y-55690475D02*
X92162200Y-55642856D01*
X92162200Y-55642856D02*
X92209819Y-55547618D01*
X92209819Y-55547618D02*
X92209819Y-55357142D01*
X92209819Y-55357142D02*
X92162200Y-55261904D01*
X92162200Y-55261904D02*
X92114580Y-55214285D01*
X92114580Y-55214285D02*
X92019342Y-55166666D01*
X92019342Y-55166666D02*
X91828866Y-55166666D01*
X91828866Y-55166666D02*
X91733628Y-55214285D01*
X91733628Y-55214285D02*
X91686009Y-55261904D01*
X91686009Y-55261904D02*
X91638390Y-55357142D01*
X111162200Y-34309523D02*
X111209819Y-34166666D01*
X111209819Y-34166666D02*
X111209819Y-33928571D01*
X111209819Y-33928571D02*
X111162200Y-33833333D01*
X111162200Y-33833333D02*
X111114580Y-33785714D01*
X111114580Y-33785714D02*
X111019342Y-33738095D01*
X111019342Y-33738095D02*
X110924104Y-33738095D01*
X110924104Y-33738095D02*
X110828866Y-33785714D01*
X110828866Y-33785714D02*
X110781247Y-33833333D01*
X110781247Y-33833333D02*
X110733628Y-33928571D01*
X110733628Y-33928571D02*
X110686009Y-34119047D01*
X110686009Y-34119047D02*
X110638390Y-34214285D01*
X110638390Y-34214285D02*
X110590771Y-34261904D01*
X110590771Y-34261904D02*
X110495533Y-34309523D01*
X110495533Y-34309523D02*
X110400295Y-34309523D01*
X110400295Y-34309523D02*
X110305057Y-34261904D01*
X110305057Y-34261904D02*
X110257438Y-34214285D01*
X110257438Y-34214285D02*
X110209819Y-34119047D01*
X110209819Y-34119047D02*
X110209819Y-33880952D01*
X110209819Y-33880952D02*
X110257438Y-33738095D01*
X110209819Y-33404761D02*
X111209819Y-33166666D01*
X111209819Y-33166666D02*
X110495533Y-32976190D01*
X110495533Y-32976190D02*
X111209819Y-32785714D01*
X111209819Y-32785714D02*
X110209819Y-32547619D01*
X111209819Y-31642857D02*
X111209819Y-32214285D01*
X111209819Y-31928571D02*
X110209819Y-31928571D01*
X110209819Y-31928571D02*
X110352676Y-32023809D01*
X110352676Y-32023809D02*
X110447914Y-32119047D01*
X110447914Y-32119047D02*
X110495533Y-32214285D01*
X111209819Y-30690476D02*
X111209819Y-31261904D01*
X111209819Y-30976190D02*
X110209819Y-30976190D01*
X110209819Y-30976190D02*
X110352676Y-31071428D01*
X110352676Y-31071428D02*
X110447914Y-31166666D01*
X110447914Y-31166666D02*
X110495533Y-31261904D01*
X108404761Y-85300057D02*
X108309523Y-85252438D01*
X108309523Y-85252438D02*
X108214285Y-85157200D01*
X108214285Y-85157200D02*
X108071428Y-85014342D01*
X108071428Y-85014342D02*
X107976190Y-84966723D01*
X107976190Y-84966723D02*
X107880952Y-84966723D01*
X107928571Y-85204819D02*
X107833333Y-85157200D01*
X107833333Y-85157200D02*
X107738095Y-85061961D01*
X107738095Y-85061961D02*
X107690476Y-84871485D01*
X107690476Y-84871485D02*
X107690476Y-84538152D01*
X107690476Y-84538152D02*
X107738095Y-84347676D01*
X107738095Y-84347676D02*
X107833333Y-84252438D01*
X107833333Y-84252438D02*
X107928571Y-84204819D01*
X107928571Y-84204819D02*
X108119047Y-84204819D01*
X108119047Y-84204819D02*
X108214285Y-84252438D01*
X108214285Y-84252438D02*
X108309523Y-84347676D01*
X108309523Y-84347676D02*
X108357142Y-84538152D01*
X108357142Y-84538152D02*
X108357142Y-84871485D01*
X108357142Y-84871485D02*
X108309523Y-85061961D01*
X108309523Y-85061961D02*
X108214285Y-85157200D01*
X108214285Y-85157200D02*
X108119047Y-85204819D01*
X108119047Y-85204819D02*
X107928571Y-85204819D01*
X108690476Y-84204819D02*
X109309523Y-84204819D01*
X109309523Y-84204819D02*
X108976190Y-84585771D01*
X108976190Y-84585771D02*
X109119047Y-84585771D01*
X109119047Y-84585771D02*
X109214285Y-84633390D01*
X109214285Y-84633390D02*
X109261904Y-84681009D01*
X109261904Y-84681009D02*
X109309523Y-84776247D01*
X109309523Y-84776247D02*
X109309523Y-85014342D01*
X109309523Y-85014342D02*
X109261904Y-85109580D01*
X109261904Y-85109580D02*
X109214285Y-85157200D01*
X109214285Y-85157200D02*
X109119047Y-85204819D01*
X109119047Y-85204819D02*
X108833333Y-85204819D01*
X108833333Y-85204819D02*
X108738095Y-85157200D01*
X108738095Y-85157200D02*
X108690476Y-85109580D01*
X102404761Y-85300057D02*
X102309523Y-85252438D01*
X102309523Y-85252438D02*
X102214285Y-85157200D01*
X102214285Y-85157200D02*
X102071428Y-85014342D01*
X102071428Y-85014342D02*
X101976190Y-84966723D01*
X101976190Y-84966723D02*
X101880952Y-84966723D01*
X101928571Y-85204819D02*
X101833333Y-85157200D01*
X101833333Y-85157200D02*
X101738095Y-85061961D01*
X101738095Y-85061961D02*
X101690476Y-84871485D01*
X101690476Y-84871485D02*
X101690476Y-84538152D01*
X101690476Y-84538152D02*
X101738095Y-84347676D01*
X101738095Y-84347676D02*
X101833333Y-84252438D01*
X101833333Y-84252438D02*
X101928571Y-84204819D01*
X101928571Y-84204819D02*
X102119047Y-84204819D01*
X102119047Y-84204819D02*
X102214285Y-84252438D01*
X102214285Y-84252438D02*
X102309523Y-84347676D01*
X102309523Y-84347676D02*
X102357142Y-84538152D01*
X102357142Y-84538152D02*
X102357142Y-84871485D01*
X102357142Y-84871485D02*
X102309523Y-85061961D01*
X102309523Y-85061961D02*
X102214285Y-85157200D01*
X102214285Y-85157200D02*
X102119047Y-85204819D01*
X102119047Y-85204819D02*
X101928571Y-85204819D01*
X102738095Y-84300057D02*
X102785714Y-84252438D01*
X102785714Y-84252438D02*
X102880952Y-84204819D01*
X102880952Y-84204819D02*
X103119047Y-84204819D01*
X103119047Y-84204819D02*
X103214285Y-84252438D01*
X103214285Y-84252438D02*
X103261904Y-84300057D01*
X103261904Y-84300057D02*
X103309523Y-84395295D01*
X103309523Y-84395295D02*
X103309523Y-84490533D01*
X103309523Y-84490533D02*
X103261904Y-84633390D01*
X103261904Y-84633390D02*
X102690476Y-85204819D01*
X102690476Y-85204819D02*
X103309523Y-85204819D01*
X92162200Y-76833332D02*
X92209819Y-76690475D01*
X92209819Y-76690475D02*
X92209819Y-76452380D01*
X92209819Y-76452380D02*
X92162200Y-76357142D01*
X92162200Y-76357142D02*
X92114580Y-76309523D01*
X92114580Y-76309523D02*
X92019342Y-76261904D01*
X92019342Y-76261904D02*
X91924104Y-76261904D01*
X91924104Y-76261904D02*
X91828866Y-76309523D01*
X91828866Y-76309523D02*
X91781247Y-76357142D01*
X91781247Y-76357142D02*
X91733628Y-76452380D01*
X91733628Y-76452380D02*
X91686009Y-76642856D01*
X91686009Y-76642856D02*
X91638390Y-76738094D01*
X91638390Y-76738094D02*
X91590771Y-76785713D01*
X91590771Y-76785713D02*
X91495533Y-76833332D01*
X91495533Y-76833332D02*
X91400295Y-76833332D01*
X91400295Y-76833332D02*
X91305057Y-76785713D01*
X91305057Y-76785713D02*
X91257438Y-76738094D01*
X91257438Y-76738094D02*
X91209819Y-76642856D01*
X91209819Y-76642856D02*
X91209819Y-76404761D01*
X91209819Y-76404761D02*
X91257438Y-76261904D01*
X91209819Y-75928570D02*
X92209819Y-75690475D01*
X92209819Y-75690475D02*
X91495533Y-75499999D01*
X91495533Y-75499999D02*
X92209819Y-75309523D01*
X92209819Y-75309523D02*
X91209819Y-75071428D01*
X92209819Y-74642856D02*
X92209819Y-74452380D01*
X92209819Y-74452380D02*
X92162200Y-74357142D01*
X92162200Y-74357142D02*
X92114580Y-74309523D01*
X92114580Y-74309523D02*
X91971723Y-74214285D01*
X91971723Y-74214285D02*
X91781247Y-74166666D01*
X91781247Y-74166666D02*
X91400295Y-74166666D01*
X91400295Y-74166666D02*
X91305057Y-74214285D01*
X91305057Y-74214285D02*
X91257438Y-74261904D01*
X91257438Y-74261904D02*
X91209819Y-74357142D01*
X91209819Y-74357142D02*
X91209819Y-74547618D01*
X91209819Y-74547618D02*
X91257438Y-74642856D01*
X91257438Y-74642856D02*
X91305057Y-74690475D01*
X91305057Y-74690475D02*
X91400295Y-74738094D01*
X91400295Y-74738094D02*
X91638390Y-74738094D01*
X91638390Y-74738094D02*
X91733628Y-74690475D01*
X91733628Y-74690475D02*
X91781247Y-74642856D01*
X91781247Y-74642856D02*
X91828866Y-74547618D01*
X91828866Y-74547618D02*
X91828866Y-74357142D01*
X91828866Y-74357142D02*
X91781247Y-74261904D01*
X91781247Y-74261904D02*
X91733628Y-74214285D01*
X91733628Y-74214285D02*
X91638390Y-74166666D01*
X149162200Y-47809523D02*
X149209819Y-47666666D01*
X149209819Y-47666666D02*
X149209819Y-47428571D01*
X149209819Y-47428571D02*
X149162200Y-47333333D01*
X149162200Y-47333333D02*
X149114580Y-47285714D01*
X149114580Y-47285714D02*
X149019342Y-47238095D01*
X149019342Y-47238095D02*
X148924104Y-47238095D01*
X148924104Y-47238095D02*
X148828866Y-47285714D01*
X148828866Y-47285714D02*
X148781247Y-47333333D01*
X148781247Y-47333333D02*
X148733628Y-47428571D01*
X148733628Y-47428571D02*
X148686009Y-47619047D01*
X148686009Y-47619047D02*
X148638390Y-47714285D01*
X148638390Y-47714285D02*
X148590771Y-47761904D01*
X148590771Y-47761904D02*
X148495533Y-47809523D01*
X148495533Y-47809523D02*
X148400295Y-47809523D01*
X148400295Y-47809523D02*
X148305057Y-47761904D01*
X148305057Y-47761904D02*
X148257438Y-47714285D01*
X148257438Y-47714285D02*
X148209819Y-47619047D01*
X148209819Y-47619047D02*
X148209819Y-47380952D01*
X148209819Y-47380952D02*
X148257438Y-47238095D01*
X148209819Y-46904761D02*
X149209819Y-46666666D01*
X149209819Y-46666666D02*
X148495533Y-46476190D01*
X148495533Y-46476190D02*
X149209819Y-46285714D01*
X149209819Y-46285714D02*
X148209819Y-46047619D01*
X149209819Y-45142857D02*
X149209819Y-45714285D01*
X149209819Y-45428571D02*
X148209819Y-45428571D01*
X148209819Y-45428571D02*
X148352676Y-45523809D01*
X148352676Y-45523809D02*
X148447914Y-45619047D01*
X148447914Y-45619047D02*
X148495533Y-45714285D01*
X148209819Y-44809523D02*
X148209819Y-44142857D01*
X148209819Y-44142857D02*
X149209819Y-44571428D01*
X54162200Y-69333332D02*
X54209819Y-69190475D01*
X54209819Y-69190475D02*
X54209819Y-68952380D01*
X54209819Y-68952380D02*
X54162200Y-68857142D01*
X54162200Y-68857142D02*
X54114580Y-68809523D01*
X54114580Y-68809523D02*
X54019342Y-68761904D01*
X54019342Y-68761904D02*
X53924104Y-68761904D01*
X53924104Y-68761904D02*
X53828866Y-68809523D01*
X53828866Y-68809523D02*
X53781247Y-68857142D01*
X53781247Y-68857142D02*
X53733628Y-68952380D01*
X53733628Y-68952380D02*
X53686009Y-69142856D01*
X53686009Y-69142856D02*
X53638390Y-69238094D01*
X53638390Y-69238094D02*
X53590771Y-69285713D01*
X53590771Y-69285713D02*
X53495533Y-69333332D01*
X53495533Y-69333332D02*
X53400295Y-69333332D01*
X53400295Y-69333332D02*
X53305057Y-69285713D01*
X53305057Y-69285713D02*
X53257438Y-69238094D01*
X53257438Y-69238094D02*
X53209819Y-69142856D01*
X53209819Y-69142856D02*
X53209819Y-68904761D01*
X53209819Y-68904761D02*
X53257438Y-68761904D01*
X53209819Y-68428570D02*
X54209819Y-68190475D01*
X54209819Y-68190475D02*
X53495533Y-67999999D01*
X53495533Y-67999999D02*
X54209819Y-67809523D01*
X54209819Y-67809523D02*
X53209819Y-67571428D01*
X54209819Y-66666666D02*
X54209819Y-67238094D01*
X54209819Y-66952380D02*
X53209819Y-66952380D01*
X53209819Y-66952380D02*
X53352676Y-67047618D01*
X53352676Y-67047618D02*
X53447914Y-67142856D01*
X53447914Y-67142856D02*
X53495533Y-67238094D01*
X92162200Y-38833332D02*
X92209819Y-38690475D01*
X92209819Y-38690475D02*
X92209819Y-38452380D01*
X92209819Y-38452380D02*
X92162200Y-38357142D01*
X92162200Y-38357142D02*
X92114580Y-38309523D01*
X92114580Y-38309523D02*
X92019342Y-38261904D01*
X92019342Y-38261904D02*
X91924104Y-38261904D01*
X91924104Y-38261904D02*
X91828866Y-38309523D01*
X91828866Y-38309523D02*
X91781247Y-38357142D01*
X91781247Y-38357142D02*
X91733628Y-38452380D01*
X91733628Y-38452380D02*
X91686009Y-38642856D01*
X91686009Y-38642856D02*
X91638390Y-38738094D01*
X91638390Y-38738094D02*
X91590771Y-38785713D01*
X91590771Y-38785713D02*
X91495533Y-38833332D01*
X91495533Y-38833332D02*
X91400295Y-38833332D01*
X91400295Y-38833332D02*
X91305057Y-38785713D01*
X91305057Y-38785713D02*
X91257438Y-38738094D01*
X91257438Y-38738094D02*
X91209819Y-38642856D01*
X91209819Y-38642856D02*
X91209819Y-38404761D01*
X91209819Y-38404761D02*
X91257438Y-38261904D01*
X91209819Y-37928570D02*
X92209819Y-37690475D01*
X92209819Y-37690475D02*
X91495533Y-37499999D01*
X91495533Y-37499999D02*
X92209819Y-37309523D01*
X92209819Y-37309523D02*
X91209819Y-37071428D01*
X91209819Y-36785713D02*
X91209819Y-36119047D01*
X91209819Y-36119047D02*
X92209819Y-36547618D01*
X73904761Y-88040057D02*
X73809523Y-87992438D01*
X73809523Y-87992438D02*
X73714285Y-87897200D01*
X73714285Y-87897200D02*
X73571428Y-87754342D01*
X73571428Y-87754342D02*
X73476190Y-87706723D01*
X73476190Y-87706723D02*
X73380952Y-87706723D01*
X73428571Y-87944819D02*
X73333333Y-87897200D01*
X73333333Y-87897200D02*
X73238095Y-87801961D01*
X73238095Y-87801961D02*
X73190476Y-87611485D01*
X73190476Y-87611485D02*
X73190476Y-87278152D01*
X73190476Y-87278152D02*
X73238095Y-87087676D01*
X73238095Y-87087676D02*
X73333333Y-86992438D01*
X73333333Y-86992438D02*
X73428571Y-86944819D01*
X73428571Y-86944819D02*
X73619047Y-86944819D01*
X73619047Y-86944819D02*
X73714285Y-86992438D01*
X73714285Y-86992438D02*
X73809523Y-87087676D01*
X73809523Y-87087676D02*
X73857142Y-87278152D01*
X73857142Y-87278152D02*
X73857142Y-87611485D01*
X73857142Y-87611485D02*
X73809523Y-87801961D01*
X73809523Y-87801961D02*
X73714285Y-87897200D01*
X73714285Y-87897200D02*
X73619047Y-87944819D01*
X73619047Y-87944819D02*
X73428571Y-87944819D01*
X74190476Y-86944819D02*
X74809523Y-86944819D01*
X74809523Y-86944819D02*
X74476190Y-87325771D01*
X74476190Y-87325771D02*
X74619047Y-87325771D01*
X74619047Y-87325771D02*
X74714285Y-87373390D01*
X74714285Y-87373390D02*
X74761904Y-87421009D01*
X74761904Y-87421009D02*
X74809523Y-87516247D01*
X74809523Y-87516247D02*
X74809523Y-87754342D01*
X74809523Y-87754342D02*
X74761904Y-87849580D01*
X74761904Y-87849580D02*
X74714285Y-87897200D01*
X74714285Y-87897200D02*
X74619047Y-87944819D01*
X74619047Y-87944819D02*
X74333333Y-87944819D01*
X74333333Y-87944819D02*
X74238095Y-87897200D01*
X74238095Y-87897200D02*
X74190476Y-87849580D01*
X149162200Y-66809523D02*
X149209819Y-66666666D01*
X149209819Y-66666666D02*
X149209819Y-66428571D01*
X149209819Y-66428571D02*
X149162200Y-66333333D01*
X149162200Y-66333333D02*
X149114580Y-66285714D01*
X149114580Y-66285714D02*
X149019342Y-66238095D01*
X149019342Y-66238095D02*
X148924104Y-66238095D01*
X148924104Y-66238095D02*
X148828866Y-66285714D01*
X148828866Y-66285714D02*
X148781247Y-66333333D01*
X148781247Y-66333333D02*
X148733628Y-66428571D01*
X148733628Y-66428571D02*
X148686009Y-66619047D01*
X148686009Y-66619047D02*
X148638390Y-66714285D01*
X148638390Y-66714285D02*
X148590771Y-66761904D01*
X148590771Y-66761904D02*
X148495533Y-66809523D01*
X148495533Y-66809523D02*
X148400295Y-66809523D01*
X148400295Y-66809523D02*
X148305057Y-66761904D01*
X148305057Y-66761904D02*
X148257438Y-66714285D01*
X148257438Y-66714285D02*
X148209819Y-66619047D01*
X148209819Y-66619047D02*
X148209819Y-66380952D01*
X148209819Y-66380952D02*
X148257438Y-66238095D01*
X148209819Y-65904761D02*
X149209819Y-65666666D01*
X149209819Y-65666666D02*
X148495533Y-65476190D01*
X148495533Y-65476190D02*
X149209819Y-65285714D01*
X149209819Y-65285714D02*
X148209819Y-65047619D01*
X149209819Y-64142857D02*
X149209819Y-64714285D01*
X149209819Y-64428571D02*
X148209819Y-64428571D01*
X148209819Y-64428571D02*
X148352676Y-64523809D01*
X148352676Y-64523809D02*
X148447914Y-64619047D01*
X148447914Y-64619047D02*
X148495533Y-64714285D01*
X148638390Y-63571428D02*
X148590771Y-63666666D01*
X148590771Y-63666666D02*
X148543152Y-63714285D01*
X148543152Y-63714285D02*
X148447914Y-63761904D01*
X148447914Y-63761904D02*
X148400295Y-63761904D01*
X148400295Y-63761904D02*
X148305057Y-63714285D01*
X148305057Y-63714285D02*
X148257438Y-63666666D01*
X148257438Y-63666666D02*
X148209819Y-63571428D01*
X148209819Y-63571428D02*
X148209819Y-63380952D01*
X148209819Y-63380952D02*
X148257438Y-63285714D01*
X148257438Y-63285714D02*
X148305057Y-63238095D01*
X148305057Y-63238095D02*
X148400295Y-63190476D01*
X148400295Y-63190476D02*
X148447914Y-63190476D01*
X148447914Y-63190476D02*
X148543152Y-63238095D01*
X148543152Y-63238095D02*
X148590771Y-63285714D01*
X148590771Y-63285714D02*
X148638390Y-63380952D01*
X148638390Y-63380952D02*
X148638390Y-63571428D01*
X148638390Y-63571428D02*
X148686009Y-63666666D01*
X148686009Y-63666666D02*
X148733628Y-63714285D01*
X148733628Y-63714285D02*
X148828866Y-63761904D01*
X148828866Y-63761904D02*
X149019342Y-63761904D01*
X149019342Y-63761904D02*
X149114580Y-63714285D01*
X149114580Y-63714285D02*
X149162200Y-63666666D01*
X149162200Y-63666666D02*
X149209819Y-63571428D01*
X149209819Y-63571428D02*
X149209819Y-63380952D01*
X149209819Y-63380952D02*
X149162200Y-63285714D01*
X149162200Y-63285714D02*
X149114580Y-63238095D01*
X149114580Y-63238095D02*
X149019342Y-63190476D01*
X149019342Y-63190476D02*
X148828866Y-63190476D01*
X148828866Y-63190476D02*
X148733628Y-63238095D01*
X148733628Y-63238095D02*
X148686009Y-63285714D01*
X148686009Y-63285714D02*
X148638390Y-63380952D01*
X50824972Y-108170532D02*
X50815949Y-108320846D01*
X50815949Y-108320846D02*
X50877573Y-108550828D01*
X50877573Y-108550828D02*
X50948219Y-108630497D01*
X50948219Y-108630497D02*
X51006540Y-108664168D01*
X51006540Y-108664168D02*
X51110858Y-108685515D01*
X51110858Y-108685515D02*
X51202851Y-108660866D01*
X51202851Y-108660866D02*
X51282519Y-108590220D01*
X51282519Y-108590220D02*
X51316190Y-108531899D01*
X51316190Y-108531899D02*
X51337538Y-108427581D01*
X51337538Y-108427581D02*
X51334235Y-108231271D01*
X51334235Y-108231271D02*
X51355582Y-108126953D01*
X51355582Y-108126953D02*
X51389254Y-108068632D01*
X51389254Y-108068632D02*
X51468922Y-107997986D01*
X51468922Y-107997986D02*
X51560915Y-107973337D01*
X51560915Y-107973337D02*
X51665233Y-107994684D01*
X51665233Y-107994684D02*
X51723554Y-108028355D01*
X51723554Y-108028355D02*
X51794200Y-108108024D01*
X51794200Y-108108024D02*
X51855823Y-108338006D01*
X51855823Y-108338006D02*
X51846801Y-108488320D01*
X51979071Y-108797971D02*
X51074768Y-109286772D01*
X51074768Y-109286772D02*
X51814014Y-109285887D01*
X51814014Y-109285887D02*
X51173366Y-109654744D01*
X51173366Y-109654744D02*
X52200915Y-109625907D01*
X52195195Y-109972532D02*
X52253517Y-110006203D01*
X52253517Y-110006203D02*
X52324163Y-110085872D01*
X52324163Y-110085872D02*
X52385786Y-110315854D01*
X52385786Y-110315854D02*
X52364439Y-110420172D01*
X52364439Y-110420172D02*
X52330767Y-110478493D01*
X52330767Y-110478493D02*
X52251099Y-110549139D01*
X52251099Y-110549139D02*
X52159106Y-110573788D01*
X52159106Y-110573788D02*
X52008792Y-110564766D01*
X52008792Y-110564766D02*
X51308938Y-110160705D01*
X51308938Y-110160705D02*
X51469159Y-110758659D01*
X130162200Y-37309523D02*
X130209819Y-37166666D01*
X130209819Y-37166666D02*
X130209819Y-36928571D01*
X130209819Y-36928571D02*
X130162200Y-36833333D01*
X130162200Y-36833333D02*
X130114580Y-36785714D01*
X130114580Y-36785714D02*
X130019342Y-36738095D01*
X130019342Y-36738095D02*
X129924104Y-36738095D01*
X129924104Y-36738095D02*
X129828866Y-36785714D01*
X129828866Y-36785714D02*
X129781247Y-36833333D01*
X129781247Y-36833333D02*
X129733628Y-36928571D01*
X129733628Y-36928571D02*
X129686009Y-37119047D01*
X129686009Y-37119047D02*
X129638390Y-37214285D01*
X129638390Y-37214285D02*
X129590771Y-37261904D01*
X129590771Y-37261904D02*
X129495533Y-37309523D01*
X129495533Y-37309523D02*
X129400295Y-37309523D01*
X129400295Y-37309523D02*
X129305057Y-37261904D01*
X129305057Y-37261904D02*
X129257438Y-37214285D01*
X129257438Y-37214285D02*
X129209819Y-37119047D01*
X129209819Y-37119047D02*
X129209819Y-36880952D01*
X129209819Y-36880952D02*
X129257438Y-36738095D01*
X129209819Y-36404761D02*
X130209819Y-36166666D01*
X130209819Y-36166666D02*
X129495533Y-35976190D01*
X129495533Y-35976190D02*
X130209819Y-35785714D01*
X130209819Y-35785714D02*
X129209819Y-35547619D01*
X130209819Y-34642857D02*
X130209819Y-35214285D01*
X130209819Y-34928571D02*
X129209819Y-34928571D01*
X129209819Y-34928571D02*
X129352676Y-35023809D01*
X129352676Y-35023809D02*
X129447914Y-35119047D01*
X129447914Y-35119047D02*
X129495533Y-35214285D01*
X129543152Y-33785714D02*
X130209819Y-33785714D01*
X129162200Y-34023809D02*
X129876485Y-34261904D01*
X129876485Y-34261904D02*
X129876485Y-33642857D01*
X96404761Y-85300057D02*
X96309523Y-85252438D01*
X96309523Y-85252438D02*
X96214285Y-85157200D01*
X96214285Y-85157200D02*
X96071428Y-85014342D01*
X96071428Y-85014342D02*
X95976190Y-84966723D01*
X95976190Y-84966723D02*
X95880952Y-84966723D01*
X95928571Y-85204819D02*
X95833333Y-85157200D01*
X95833333Y-85157200D02*
X95738095Y-85061961D01*
X95738095Y-85061961D02*
X95690476Y-84871485D01*
X95690476Y-84871485D02*
X95690476Y-84538152D01*
X95690476Y-84538152D02*
X95738095Y-84347676D01*
X95738095Y-84347676D02*
X95833333Y-84252438D01*
X95833333Y-84252438D02*
X95928571Y-84204819D01*
X95928571Y-84204819D02*
X96119047Y-84204819D01*
X96119047Y-84204819D02*
X96214285Y-84252438D01*
X96214285Y-84252438D02*
X96309523Y-84347676D01*
X96309523Y-84347676D02*
X96357142Y-84538152D01*
X96357142Y-84538152D02*
X96357142Y-84871485D01*
X96357142Y-84871485D02*
X96309523Y-85061961D01*
X96309523Y-85061961D02*
X96214285Y-85157200D01*
X96214285Y-85157200D02*
X96119047Y-85204819D01*
X96119047Y-85204819D02*
X95928571Y-85204819D01*
X97309523Y-85204819D02*
X96738095Y-85204819D01*
X97023809Y-85204819D02*
X97023809Y-84204819D01*
X97023809Y-84204819D02*
X96928571Y-84347676D01*
X96928571Y-84347676D02*
X96833333Y-84442914D01*
X96833333Y-84442914D02*
X96738095Y-84490533D01*
%TO.C,D10*%
X116500000Y-98000000D02*
X116999999Y-98899999D01*
X116999999Y-98899999D02*
X117500000Y-98000000D01*
X117500000Y-98000000D02*
X116500000Y-98000000D01*
X117500000Y-99000000D02*
X116500000Y-99000000D01*
D13*
G36*
X117799701Y-101698440D02*
G01*
X116199448Y-101698438D01*
X116199448Y-101135869D01*
X117799699Y-101135868D01*
X117799701Y-101698440D01*
G37*
G36*
X117800709Y-101701340D02*
G01*
X116348567Y-101701336D01*
X116199708Y-101701338D01*
X116199708Y-101553027D01*
X116348568Y-101553027D01*
X117649233Y-101553024D01*
X117649232Y-95449781D01*
X116348571Y-95449781D01*
X116348568Y-101553027D01*
X116199708Y-101553027D01*
X116199706Y-95301469D01*
X117800708Y-95301468D01*
X117800709Y-101701340D01*
G37*
D14*
%TO.C,JP1*%
X37000000Y-98600000D02*
X39000000Y-98600000D01*
X37000000Y-101400000D02*
X37000000Y-98600000D01*
X39000000Y-98600000D02*
X39000000Y-101400000D01*
X39000000Y-101400000D02*
X37000000Y-101400000D01*
D11*
%TO.C,D+2*%
X81499998Y-89500000D02*
X81999999Y-90399999D01*
X81999999Y-90399999D02*
X82499998Y-89500000D01*
X82499998Y-89500000D02*
X81499998Y-89500000D01*
X82499998Y-90500000D02*
X81499998Y-90500000D01*
D13*
G36*
X82799698Y-93198438D02*
G01*
X81199447Y-93198440D01*
X81199447Y-92635870D01*
X82799697Y-92635868D01*
X82799698Y-93198438D01*
G37*
G36*
X82800707Y-93201336D02*
G01*
X81348565Y-93201337D01*
X81199706Y-93201338D01*
X81199704Y-86949780D01*
X81348565Y-86949780D01*
X81348568Y-93053025D01*
X82649230Y-93053024D01*
X82649230Y-86949781D01*
X81348565Y-86949780D01*
X81199704Y-86949780D01*
X81199704Y-86801470D01*
X82800705Y-86801470D01*
X82800707Y-93201336D01*
G37*
D11*
%TO.C,D11*%
X116500000Y-87500000D02*
X116999999Y-88399999D01*
X116999999Y-88399999D02*
X117500000Y-87500000D01*
X117500000Y-87500000D02*
X116500000Y-87500000D01*
X117500000Y-88500000D02*
X116500000Y-88500000D01*
D13*
G36*
X117799701Y-91198440D02*
G01*
X116199448Y-91198438D01*
X116199448Y-90635869D01*
X117799699Y-90635868D01*
X117799701Y-91198440D01*
G37*
G36*
X117800709Y-91201340D02*
G01*
X116348567Y-91201336D01*
X116199708Y-91201338D01*
X116199708Y-91053027D01*
X116348568Y-91053027D01*
X117649233Y-91053024D01*
X117649232Y-84949781D01*
X116348571Y-84949781D01*
X116348568Y-91053027D01*
X116199708Y-91053027D01*
X116199706Y-84801469D01*
X117800708Y-84801468D01*
X117800709Y-91201340D01*
G37*
D14*
%TO.C,Q1*%
X56599892Y-89075699D02*
X57440382Y-89916189D01*
X57575699Y-88099892D02*
X56599892Y-89075699D01*
X58416189Y-88940382D02*
X57575699Y-88099892D01*
X58416189Y-88940382D02*
G75*
G02*
X57440382Y-89916189I1583811J-2559618D01*
G01*
%TO.C,SW20*%
X96600000Y-86900000D02*
X99000000Y-86900000D01*
X96600000Y-91000000D02*
X96600000Y-86900000D01*
X96600000Y-95000000D02*
X96600000Y-99100000D01*
X96600000Y-99100000D02*
X108400000Y-99100000D01*
X98400000Y-100200000D02*
X98700000Y-100500000D01*
X98400000Y-100800000D02*
X98400000Y-100200000D01*
X98700000Y-100500000D02*
X98400000Y-100800000D01*
X101200000Y-86900000D02*
X103800000Y-86900000D01*
X102000000Y-93000000D02*
X103000000Y-93000000D01*
X102500000Y-93500000D02*
X102500000Y-92500000D01*
X106000000Y-86900000D02*
X108400000Y-86900000D01*
X108400000Y-86900000D02*
X108400000Y-91000000D01*
X108400000Y-95000000D02*
X108400000Y-99100000D01*
X105500000Y-93000000D02*
G75*
G02*
X99500000Y-93000000I-3000000J0D01*
G01*
X99500000Y-93000000D02*
G75*
G02*
X105500000Y-93000000I3000000J0D01*
G01*
D11*
%TO.C,SW6*%
X57500000Y-99000000D02*
X58500000Y-99000000D01*
X57500000Y-100000000D02*
X57500000Y-99000000D01*
X57500000Y-113000000D02*
X57500000Y-112000000D01*
X58500000Y-113000000D02*
X57500000Y-113000000D01*
X65135000Y-111969000D02*
X65135000Y-112350000D01*
X65135000Y-112350000D02*
X65516000Y-112350000D01*
X65135001Y-108459344D02*
X65135000Y-110191000D01*
X67040000Y-103714000D02*
X67040000Y-106000000D01*
X68056000Y-100920000D02*
X67675000Y-100920000D01*
X68945000Y-112350000D02*
X68564000Y-112350000D01*
X71104000Y-99000000D02*
X71500000Y-99000000D01*
X71485000Y-100920000D02*
X71104000Y-100920000D01*
X71485000Y-109810000D02*
X71485000Y-100920000D01*
X71500000Y-99000000D02*
X71500000Y-100000000D01*
X71500000Y-112000000D02*
X71500000Y-113000000D01*
X71500000Y-113000000D02*
X70500000Y-113000000D01*
X67039999Y-106000000D02*
G75*
G02*
X65135001Y-108459343I-2539999J0D01*
G01*
X71485000Y-109810000D02*
G75*
G02*
X68945000Y-112350000I-2540000J0D01*
G01*
D14*
%TO.C,Q2*%
X63599892Y-89075699D02*
X64440382Y-89916189D01*
X64575699Y-88099892D02*
X63599892Y-89075699D01*
X65416189Y-88940382D02*
X64575699Y-88099892D01*
X65416189Y-88940382D02*
G75*
G02*
X64440382Y-89916189I1583811J-2559618D01*
G01*
D11*
%TO.C,SW3*%
X57500000Y-32500000D02*
X58500000Y-32500000D01*
X57500000Y-33500000D02*
X57500000Y-32500000D01*
X57500000Y-46500000D02*
X57500000Y-45500000D01*
X58500000Y-46500000D02*
X57500000Y-46500000D01*
X65135000Y-45469000D02*
X65135000Y-45850000D01*
X65135000Y-45850000D02*
X65516000Y-45850000D01*
X65135001Y-41959344D02*
X65135000Y-43691000D01*
X67040000Y-37214000D02*
X67040000Y-39500000D01*
X68056000Y-34420000D02*
X67675000Y-34420000D01*
X68945000Y-45850000D02*
X68564000Y-45850000D01*
X71104000Y-32500000D02*
X71500000Y-32500000D01*
X71485000Y-34420000D02*
X71104000Y-34420000D01*
X71485000Y-43310000D02*
X71485000Y-34420000D01*
X71500000Y-32500000D02*
X71500000Y-33500000D01*
X71500000Y-45500000D02*
X71500000Y-46500000D01*
X71500000Y-46500000D02*
X70500000Y-46500000D01*
X67039999Y-39500000D02*
G75*
G02*
X65135001Y-41959343I-2539999J0D01*
G01*
X71485000Y-43310000D02*
G75*
G02*
X68945000Y-45850000I-2540000J0D01*
G01*
%TO.C,D13*%
X140999996Y-97999997D02*
X141499995Y-98899996D01*
X141499995Y-98899996D02*
X141999996Y-97999997D01*
X141999996Y-97999997D02*
X140999996Y-97999997D01*
X141999996Y-98999997D02*
X140999996Y-98999997D01*
D13*
G36*
X142299697Y-101698437D02*
G01*
X140699444Y-101698435D01*
X140699444Y-101135866D01*
X142299695Y-101135865D01*
X142299697Y-101698437D01*
G37*
G36*
X142300705Y-101701337D02*
G01*
X140848563Y-101701333D01*
X140699704Y-101701335D01*
X140699704Y-101553024D01*
X140848564Y-101553024D01*
X142149229Y-101553021D01*
X142149228Y-95449778D01*
X140848567Y-95449778D01*
X140848564Y-101553024D01*
X140699704Y-101553024D01*
X140699702Y-95301466D01*
X142300704Y-95301465D01*
X142300705Y-101701337D01*
G37*
D11*
%TO.C,SW4*%
X57500000Y-51500000D02*
X58500000Y-51500000D01*
X57500000Y-52500000D02*
X57500000Y-51500000D01*
X57500000Y-65500000D02*
X57500000Y-64500000D01*
X58500000Y-65500000D02*
X57500000Y-65500000D01*
X65135000Y-64469000D02*
X65135000Y-64850000D01*
X65135000Y-64850000D02*
X65516000Y-64850000D01*
X65135001Y-60959344D02*
X65135000Y-62691000D01*
X67040000Y-56214000D02*
X67040000Y-58500000D01*
X68056000Y-53420000D02*
X67675000Y-53420000D01*
X68945000Y-64850000D02*
X68564000Y-64850000D01*
X71104000Y-51500000D02*
X71500000Y-51500000D01*
X71485000Y-53420000D02*
X71104000Y-53420000D01*
X71485000Y-62310000D02*
X71485000Y-53420000D01*
X71500000Y-51500000D02*
X71500000Y-52500000D01*
X71500000Y-64500000D02*
X71500000Y-65500000D01*
X71500000Y-65500000D02*
X70500000Y-65500000D01*
X67039999Y-58500000D02*
G75*
G02*
X65135001Y-60959343I-2539999J0D01*
G01*
X71485000Y-62310000D02*
G75*
G02*
X68945000Y-64850000I-2540000J0D01*
G01*
%TO.C,D14*%
X118999997Y-87500005D02*
X119499996Y-88400004D01*
X119499996Y-88400004D02*
X119999997Y-87500005D01*
X119999997Y-87500005D02*
X118999997Y-87500005D01*
X119999997Y-88500005D02*
X118999997Y-88500005D01*
D13*
G36*
X120299698Y-91198445D02*
G01*
X118699445Y-91198443D01*
X118699445Y-90635874D01*
X120299696Y-90635873D01*
X120299698Y-91198445D01*
G37*
G36*
X120300706Y-91201345D02*
G01*
X118848564Y-91201341D01*
X118699705Y-91201343D01*
X118699705Y-91053032D01*
X118848565Y-91053032D01*
X120149230Y-91053029D01*
X120149229Y-84949786D01*
X118848568Y-84949786D01*
X118848565Y-91053032D01*
X118699705Y-91053032D01*
X118699703Y-84801474D01*
X120300705Y-84801473D01*
X120300706Y-91201345D01*
G37*
D11*
%TO.C,SW13*%
X95500000Y-63500000D02*
X96500000Y-63500000D01*
X95500000Y-64500000D02*
X95500000Y-63500000D01*
X95500000Y-77500000D02*
X95500000Y-76500000D01*
X96500000Y-77500000D02*
X95500000Y-77500000D01*
X103135000Y-76469000D02*
X103135000Y-76850000D01*
X103135000Y-76850000D02*
X103516000Y-76850000D01*
X103135001Y-72959344D02*
X103135000Y-74691000D01*
X105040000Y-68214000D02*
X105040000Y-70500000D01*
X106056000Y-65420000D02*
X105675000Y-65420000D01*
X106945000Y-76850000D02*
X106564000Y-76850000D01*
X109104000Y-63500000D02*
X109500000Y-63500000D01*
X109485000Y-65420000D02*
X109104000Y-65420000D01*
X109485000Y-74310000D02*
X109485000Y-65420000D01*
X109500000Y-63500000D02*
X109500000Y-64500000D01*
X109500000Y-76500000D02*
X109500000Y-77500000D01*
X109500000Y-77500000D02*
X108500000Y-77500000D01*
X105039999Y-70500000D02*
G75*
G02*
X103135001Y-72959343I-2539999J0D01*
G01*
X109485000Y-74310000D02*
G75*
G02*
X106945000Y-76850000I-2540000J0D01*
G01*
D14*
%TO.C,JP6*%
X49500000Y-98600000D02*
X51500000Y-98600000D01*
X49500000Y-101400000D02*
X49500000Y-98600000D01*
X51500000Y-98600000D02*
X51500000Y-101400000D01*
X51500000Y-101400000D02*
X49500000Y-101400000D01*
D11*
%TO.C,D8*%
X122500000Y-98000000D02*
X122999999Y-98899999D01*
X122999999Y-98899999D02*
X123500000Y-98000000D01*
X123500000Y-98000000D02*
X122500000Y-98000000D01*
X123500000Y-99000000D02*
X122500000Y-99000000D01*
D13*
G36*
X123799701Y-101698440D02*
G01*
X122199448Y-101698438D01*
X122199448Y-101135869D01*
X123799699Y-101135868D01*
X123799701Y-101698440D01*
G37*
G36*
X123800709Y-101701340D02*
G01*
X122348567Y-101701336D01*
X122199708Y-101701338D01*
X122199708Y-101553027D01*
X122348568Y-101553027D01*
X123649233Y-101553024D01*
X123649232Y-95449781D01*
X122348571Y-95449781D01*
X122348568Y-101553027D01*
X122199708Y-101553027D01*
X122199706Y-95301469D01*
X123800708Y-95301468D01*
X123800709Y-101701340D01*
G37*
D11*
%TO.C,SW5*%
X57500000Y-70500000D02*
X58500000Y-70500000D01*
X57500000Y-71500000D02*
X57500000Y-70500000D01*
X57500000Y-84500000D02*
X57500000Y-83500000D01*
X58500000Y-84500000D02*
X57500000Y-84500000D01*
X65135000Y-83469000D02*
X65135000Y-83850000D01*
X65135000Y-83850000D02*
X65516000Y-83850000D01*
X65135001Y-79959344D02*
X65135000Y-81691000D01*
X67040000Y-75214000D02*
X67040000Y-77500000D01*
X68056000Y-72420000D02*
X67675000Y-72420000D01*
X68945000Y-83850000D02*
X68564000Y-83850000D01*
X71104000Y-70500000D02*
X71500000Y-70500000D01*
X71485000Y-72420000D02*
X71104000Y-72420000D01*
X71485000Y-81310000D02*
X71485000Y-72420000D01*
X71500000Y-70500000D02*
X71500000Y-71500000D01*
X71500000Y-83500000D02*
X71500000Y-84500000D01*
X71500000Y-84500000D02*
X70500000Y-84500000D01*
X67039999Y-77500000D02*
G75*
G02*
X65135001Y-79959343I-2539999J0D01*
G01*
X71485000Y-81310000D02*
G75*
G02*
X68945000Y-83850000I-2540000J0D01*
G01*
%TO.C,D3*%
X111500001Y-87500003D02*
X112000000Y-88400002D01*
X112000000Y-88400002D02*
X112500001Y-87500003D01*
X112500001Y-87500003D02*
X111500001Y-87500003D01*
X112500001Y-88500003D02*
X111500001Y-88500003D01*
D13*
G36*
X112799702Y-91198443D02*
G01*
X111199449Y-91198441D01*
X111199449Y-90635872D01*
X112799700Y-90635871D01*
X112799702Y-91198443D01*
G37*
G36*
X112800710Y-91201343D02*
G01*
X111348568Y-91201339D01*
X111199709Y-91201341D01*
X111199709Y-91053030D01*
X111348569Y-91053030D01*
X112649234Y-91053027D01*
X112649233Y-84949784D01*
X111348572Y-84949784D01*
X111348569Y-91053030D01*
X111199709Y-91053030D01*
X111199707Y-84801472D01*
X112800709Y-84801471D01*
X112800710Y-91201343D01*
G37*
D11*
%TO.C,D4*%
X120000000Y-98000000D02*
X120499999Y-98899999D01*
X120499999Y-98899999D02*
X121000000Y-98000000D01*
X121000000Y-98000000D02*
X120000000Y-98000000D01*
X121000000Y-99000000D02*
X120000000Y-99000000D01*
D13*
G36*
X121299701Y-101698440D02*
G01*
X119699448Y-101698438D01*
X119699448Y-101135869D01*
X121299699Y-101135868D01*
X121299701Y-101698440D01*
G37*
G36*
X121300709Y-101701340D02*
G01*
X119848567Y-101701336D01*
X119699708Y-101701338D01*
X119699708Y-101553027D01*
X119848568Y-101553027D01*
X121149233Y-101553024D01*
X121149232Y-95449781D01*
X119848571Y-95449781D01*
X119848568Y-101553027D01*
X119699708Y-101553027D01*
X119699706Y-95301469D01*
X121300708Y-95301468D01*
X121300709Y-101701340D01*
G37*
D11*
%TO.C,D+3*%
X78999996Y-89500000D02*
X79499997Y-90399999D01*
X79499997Y-90399999D02*
X79999996Y-89500000D01*
X79999996Y-89500000D02*
X78999996Y-89500000D01*
X79999996Y-90500000D02*
X78999996Y-90500000D01*
D13*
G36*
X80299696Y-93198438D02*
G01*
X78699445Y-93198440D01*
X78699445Y-92635870D01*
X80299695Y-92635868D01*
X80299696Y-93198438D01*
G37*
G36*
X80300705Y-93201336D02*
G01*
X78848563Y-93201337D01*
X78699704Y-93201338D01*
X78699702Y-86949780D01*
X78848563Y-86949780D01*
X78848566Y-93053025D01*
X80149228Y-93053024D01*
X80149228Y-86949781D01*
X78848563Y-86949780D01*
X78699702Y-86949780D01*
X78699702Y-86801470D01*
X80300703Y-86801470D01*
X80300705Y-93201336D01*
G37*
D11*
%TO.C,SW12*%
X95500000Y-44500000D02*
X96500000Y-44500000D01*
X95500000Y-45500000D02*
X95500000Y-44500000D01*
X95500000Y-58500000D02*
X95500000Y-57500000D01*
X96500000Y-58500000D02*
X95500000Y-58500000D01*
X103135000Y-57469000D02*
X103135000Y-57850000D01*
X103135000Y-57850000D02*
X103516000Y-57850000D01*
X103135001Y-53959344D02*
X103135000Y-55691000D01*
X105040000Y-49214000D02*
X105040000Y-51500000D01*
X106056000Y-46420000D02*
X105675000Y-46420000D01*
X106945000Y-57850000D02*
X106564000Y-57850000D01*
X109104000Y-44500000D02*
X109500000Y-44500000D01*
X109485000Y-46420000D02*
X109104000Y-46420000D01*
X109485000Y-55310000D02*
X109485000Y-46420000D01*
X109500000Y-44500000D02*
X109500000Y-45500000D01*
X109500000Y-57500000D02*
X109500000Y-58500000D01*
X109500000Y-58500000D02*
X108500000Y-58500000D01*
X105039999Y-51500000D02*
G75*
G02*
X103135001Y-53959343I-2539999J0D01*
G01*
X109485000Y-55310000D02*
G75*
G02*
X106945000Y-57850000I-2540000J0D01*
G01*
%TO.C,SW15*%
X114500000Y-47500000D02*
X115500000Y-47500000D01*
X114500000Y-48500000D02*
X114500000Y-47500000D01*
X114500000Y-61500000D02*
X114500000Y-60500000D01*
X115500000Y-61500000D02*
X114500000Y-61500000D01*
X122135000Y-60469000D02*
X122135000Y-60850000D01*
X122135000Y-60850000D02*
X122516000Y-60850000D01*
X122135001Y-56959344D02*
X122135000Y-58691000D01*
X124040000Y-52214000D02*
X124040000Y-54500000D01*
X125056000Y-49420000D02*
X124675000Y-49420000D01*
X125945000Y-60850000D02*
X125564000Y-60850000D01*
X128104000Y-47500000D02*
X128500000Y-47500000D01*
X128485000Y-49420000D02*
X128104000Y-49420000D01*
X128485000Y-58310000D02*
X128485000Y-49420000D01*
X128500000Y-47500000D02*
X128500000Y-48500000D01*
X128500000Y-60500000D02*
X128500000Y-61500000D01*
X128500000Y-61500000D02*
X127500000Y-61500000D01*
X124039999Y-54500000D02*
G75*
G02*
X122135001Y-56959343I-2539999J0D01*
G01*
X128485000Y-58310000D02*
G75*
G02*
X125945000Y-60850000I-2540000J0D01*
G01*
%TO.C,SW10*%
X76500000Y-97000000D02*
X77500000Y-97000000D01*
X76500000Y-98000000D02*
X76500000Y-97000000D01*
X76500000Y-111000000D02*
X76500000Y-110000000D01*
X77500000Y-111000000D02*
X76500000Y-111000000D01*
X84135000Y-109969000D02*
X84135000Y-110350000D01*
X84135000Y-110350000D02*
X84516000Y-110350000D01*
X84135001Y-106459344D02*
X84135000Y-108191000D01*
X86040000Y-101714000D02*
X86040000Y-104000000D01*
X87056000Y-98920000D02*
X86675000Y-98920000D01*
X87945000Y-110350000D02*
X87564000Y-110350000D01*
X90104000Y-97000000D02*
X90500000Y-97000000D01*
X90485000Y-98920000D02*
X90104000Y-98920000D01*
X90485000Y-107810000D02*
X90485000Y-98920000D01*
X90500000Y-97000000D02*
X90500000Y-98000000D01*
X90500000Y-110000000D02*
X90500000Y-111000000D01*
X90500000Y-111000000D02*
X89500000Y-111000000D01*
X86039999Y-104000000D02*
G75*
G02*
X84135001Y-106459343I-2539999J0D01*
G01*
X90485000Y-107810000D02*
G75*
G02*
X87945000Y-110350000I-2540000J0D01*
G01*
%TO.C,SW19*%
X133500000Y-77000000D02*
X134500000Y-77000000D01*
X133500000Y-78000000D02*
X133500000Y-77000000D01*
X133500000Y-91000000D02*
X133500000Y-90000000D01*
X134500000Y-91000000D02*
X133500000Y-91000000D01*
X141135000Y-89969000D02*
X141135000Y-90350000D01*
X141135000Y-90350000D02*
X141516000Y-90350000D01*
X141135001Y-86459344D02*
X141135000Y-88191000D01*
X143040000Y-81714000D02*
X143040000Y-84000000D01*
X144056000Y-78920000D02*
X143675000Y-78920000D01*
X144945000Y-90350000D02*
X144564000Y-90350000D01*
X147104000Y-77000000D02*
X147500000Y-77000000D01*
X147485000Y-78920000D02*
X147104000Y-78920000D01*
X147485000Y-87810000D02*
X147485000Y-78920000D01*
X147500000Y-77000000D02*
X147500000Y-78000000D01*
X147500000Y-90000000D02*
X147500000Y-91000000D01*
X147500000Y-91000000D02*
X146500000Y-91000000D01*
X143039999Y-84000000D02*
G75*
G02*
X141135001Y-86459343I-2539999J0D01*
G01*
X147485000Y-87810000D02*
G75*
G02*
X144945000Y-90350000I-2540000J0D01*
G01*
D14*
%TO.C,JP5*%
X47000000Y-98600000D02*
X49000000Y-98600000D01*
X47000000Y-101400000D02*
X47000000Y-98600000D01*
X49000000Y-98600000D02*
X49000000Y-101400000D01*
X49000000Y-101400000D02*
X47000000Y-101400000D01*
D11*
%TO.C,D17*%
X121499998Y-87500004D02*
X121999997Y-88400003D01*
X121999997Y-88400003D02*
X122499998Y-87500004D01*
X122499998Y-87500004D02*
X121499998Y-87500004D01*
X122499998Y-88500004D02*
X121499998Y-88500004D01*
D13*
G36*
X122799699Y-91198444D02*
G01*
X121199446Y-91198442D01*
X121199446Y-90635873D01*
X122799697Y-90635872D01*
X122799699Y-91198444D01*
G37*
G36*
X122800707Y-91201344D02*
G01*
X121348565Y-91201340D01*
X121199706Y-91201342D01*
X121199706Y-91053031D01*
X121348566Y-91053031D01*
X122649231Y-91053028D01*
X122649230Y-84949785D01*
X121348569Y-84949785D01*
X121348566Y-91053031D01*
X121199706Y-91053031D01*
X121199704Y-84801473D01*
X122800706Y-84801472D01*
X122800707Y-91201344D01*
G37*
D11*
%TO.C,SW8*%
X76500000Y-49500000D02*
X77500000Y-49500000D01*
X76500000Y-50500000D02*
X76500000Y-49500000D01*
X76500000Y-63500000D02*
X76500000Y-62500000D01*
X77500000Y-63500000D02*
X76500000Y-63500000D01*
X84135000Y-62469000D02*
X84135000Y-62850000D01*
X84135000Y-62850000D02*
X84516000Y-62850000D01*
X84135001Y-58959344D02*
X84135000Y-60691000D01*
X86040000Y-54214000D02*
X86040000Y-56500000D01*
X87056000Y-51420000D02*
X86675000Y-51420000D01*
X87945000Y-62850000D02*
X87564000Y-62850000D01*
X90104000Y-49500000D02*
X90500000Y-49500000D01*
X90485000Y-51420000D02*
X90104000Y-51420000D01*
X90485000Y-60310000D02*
X90485000Y-51420000D01*
X90500000Y-49500000D02*
X90500000Y-50500000D01*
X90500000Y-62500000D02*
X90500000Y-63500000D01*
X90500000Y-63500000D02*
X89500000Y-63500000D01*
X86039999Y-56500000D02*
G75*
G02*
X84135001Y-58959343I-2539999J0D01*
G01*
X90485000Y-60310000D02*
G75*
G02*
X87945000Y-62850000I-2540000J0D01*
G01*
%TO.C,D+1*%
X83999997Y-89500002D02*
X84499998Y-90400001D01*
X84499998Y-90400001D02*
X84999997Y-89500002D01*
X84999997Y-89500002D02*
X83999997Y-89500002D01*
X84999997Y-90500002D02*
X83999997Y-90500002D01*
D13*
G36*
X85299697Y-93198440D02*
G01*
X83699446Y-93198442D01*
X83699446Y-92635872D01*
X85299696Y-92635870D01*
X85299697Y-93198440D01*
G37*
G36*
X85300706Y-93201338D02*
G01*
X83848564Y-93201339D01*
X83699705Y-93201340D01*
X83699703Y-86949782D01*
X83848564Y-86949782D01*
X83848567Y-93053027D01*
X85149229Y-93053026D01*
X85149229Y-86949783D01*
X83848564Y-86949782D01*
X83699703Y-86949782D01*
X83699703Y-86801472D01*
X85300704Y-86801472D01*
X85300706Y-93201338D01*
G37*
D11*
%TO.C,SW11*%
X95500000Y-25500000D02*
X96500000Y-25500000D01*
X95500000Y-26500000D02*
X95500000Y-25500000D01*
X95500000Y-39500000D02*
X95500000Y-38500000D01*
X96500000Y-39500000D02*
X95500000Y-39500000D01*
X103135000Y-38469000D02*
X103135000Y-38850000D01*
X103135000Y-38850000D02*
X103516000Y-38850000D01*
X103135001Y-34959344D02*
X103135000Y-36691000D01*
X105040000Y-30214000D02*
X105040000Y-32500000D01*
X106056000Y-27420000D02*
X105675000Y-27420000D01*
X106945000Y-38850000D02*
X106564000Y-38850000D01*
X109104000Y-25500000D02*
X109500000Y-25500000D01*
X109485000Y-27420000D02*
X109104000Y-27420000D01*
X109485000Y-36310000D02*
X109485000Y-27420000D01*
X109500000Y-25500000D02*
X109500000Y-26500000D01*
X109500000Y-38500000D02*
X109500000Y-39500000D01*
X109500000Y-39500000D02*
X108500000Y-39500000D01*
X105039999Y-32500000D02*
G75*
G02*
X103135001Y-34959343I-2539999J0D01*
G01*
X109485000Y-36310000D02*
G75*
G02*
X106945000Y-38850000I-2540000J0D01*
G01*
D14*
%TO.C,Q3*%
X106500000Y-80690000D02*
X105850000Y-80690000D01*
X106500000Y-80690000D02*
X107150000Y-80690000D01*
X106500000Y-83810000D02*
X105850000Y-83810000D01*
X106500000Y-83810000D02*
X105850000Y-83810000D01*
X106500000Y-83810000D02*
X107150000Y-83810000D01*
X105337500Y-80740000D02*
X105097500Y-80410000D01*
X105577500Y-80410000D01*
X105337500Y-80740000D01*
G36*
X105337500Y-80740000D02*
G01*
X105097500Y-80410000D01*
X105577500Y-80410000D01*
X105337500Y-80740000D01*
G37*
%TO.C,J2_RECV1*%
X49492000Y-79249000D02*
X50000000Y-79757000D01*
X50000000Y-79757000D02*
X50508000Y-79249000D01*
X50508000Y-79249000D02*
X49492000Y-79249000D01*
X54280000Y-80125000D02*
X45290000Y-80125000D01*
X54280000Y-96145000D02*
X42350000Y-96145000D01*
X54280000Y-96145000D02*
X54280000Y-80125000D01*
D11*
%TO.C,D6*%
X114000000Y-98000000D02*
X114499999Y-98899999D01*
X114499999Y-98899999D02*
X115000000Y-98000000D01*
X115000000Y-98000000D02*
X114000000Y-98000000D01*
X115000000Y-99000000D02*
X114000000Y-99000000D01*
D13*
G36*
X115299701Y-101698440D02*
G01*
X113699448Y-101698438D01*
X113699448Y-101135869D01*
X115299699Y-101135868D01*
X115299701Y-101698440D01*
G37*
G36*
X115300709Y-101701340D02*
G01*
X113848567Y-101701336D01*
X113699708Y-101701338D01*
X113699708Y-101553027D01*
X113848568Y-101553027D01*
X115149233Y-101553024D01*
X115149232Y-95449781D01*
X113848571Y-95449781D01*
X113848568Y-101553027D01*
X113699708Y-101553027D01*
X113699706Y-95301469D01*
X115300708Y-95301468D01*
X115300709Y-101701340D01*
G37*
D14*
%TO.C,JP7*%
X52000000Y-98600000D02*
X54000000Y-98600000D01*
X52000000Y-101400000D02*
X52000000Y-98600000D01*
X54000000Y-98600000D02*
X54000000Y-101400000D01*
X54000000Y-101400000D02*
X52000000Y-101400000D01*
%TO.C,Q2*%
X102500000Y-80690000D02*
X101850000Y-80690000D01*
X102500000Y-80690000D02*
X103150000Y-80690000D01*
X102500000Y-83810000D02*
X101850000Y-83810000D01*
X102500000Y-83810000D02*
X101850000Y-83810000D01*
X102500000Y-83810000D02*
X103150000Y-83810000D01*
X101337500Y-80740000D02*
X101097500Y-80410000D01*
X101577500Y-80410000D01*
X101337500Y-80740000D01*
G36*
X101337500Y-80740000D02*
G01*
X101097500Y-80410000D01*
X101577500Y-80410000D01*
X101337500Y-80740000D01*
G37*
%TO.C,JP4*%
X44500000Y-98600000D02*
X46500000Y-98600000D01*
X44500000Y-101400000D02*
X44500000Y-98600000D01*
X46500000Y-98600000D02*
X46500000Y-101400000D01*
X46500000Y-101400000D02*
X44500000Y-101400000D01*
D11*
%TO.C,SW16*%
X114500000Y-66500000D02*
X115500000Y-66500000D01*
X114500000Y-67500000D02*
X114500000Y-66500000D01*
X114500000Y-80500000D02*
X114500000Y-79500000D01*
X115500000Y-80500000D02*
X114500000Y-80500000D01*
X122135000Y-79469000D02*
X122135000Y-79850000D01*
X122135000Y-79850000D02*
X122516000Y-79850000D01*
X122135001Y-75959344D02*
X122135000Y-77691000D01*
X124040000Y-71214000D02*
X124040000Y-73500000D01*
X125056000Y-68420000D02*
X124675000Y-68420000D01*
X125945000Y-79850000D02*
X125564000Y-79850000D01*
X128104000Y-66500000D02*
X128500000Y-66500000D01*
X128485000Y-68420000D02*
X128104000Y-68420000D01*
X128485000Y-77310000D02*
X128485000Y-68420000D01*
X128500000Y-66500000D02*
X128500000Y-67500000D01*
X128500000Y-79500000D02*
X128500000Y-80500000D01*
X128500000Y-80500000D02*
X127500000Y-80500000D01*
X124039999Y-73500000D02*
G75*
G02*
X122135001Y-75959343I-2539999J0D01*
G01*
X128485000Y-77310000D02*
G75*
G02*
X125945000Y-79850000I-2540000J0D01*
G01*
%TO.C,SW9*%
X76500000Y-68500000D02*
X77500000Y-68500000D01*
X76500000Y-69500000D02*
X76500000Y-68500000D01*
X76500000Y-82500000D02*
X76500000Y-81500000D01*
X77500000Y-82500000D02*
X76500000Y-82500000D01*
X84135000Y-81469000D02*
X84135000Y-81850000D01*
X84135000Y-81850000D02*
X84516000Y-81850000D01*
X84135001Y-77959344D02*
X84135000Y-79691000D01*
X86040000Y-73214000D02*
X86040000Y-75500000D01*
X87056000Y-70420000D02*
X86675000Y-70420000D01*
X87945000Y-81850000D02*
X87564000Y-81850000D01*
X90104000Y-68500000D02*
X90500000Y-68500000D01*
X90485000Y-70420000D02*
X90104000Y-70420000D01*
X90485000Y-79310000D02*
X90485000Y-70420000D01*
X90500000Y-68500000D02*
X90500000Y-69500000D01*
X90500000Y-81500000D02*
X90500000Y-82500000D01*
X90500000Y-82500000D02*
X89500000Y-82500000D01*
X86039999Y-75500000D02*
G75*
G02*
X84135001Y-77959343I-2539999J0D01*
G01*
X90485000Y-79310000D02*
G75*
G02*
X87945000Y-81850000I-2540000J0D01*
G01*
%TO.C,D7*%
X114000001Y-87500003D02*
X114500000Y-88400002D01*
X114500000Y-88400002D02*
X115000001Y-87500003D01*
X115000001Y-87500003D02*
X114000001Y-87500003D01*
X115000001Y-88500003D02*
X114000001Y-88500003D01*
D13*
G36*
X115299702Y-91198443D02*
G01*
X113699449Y-91198441D01*
X113699449Y-90635872D01*
X115299700Y-90635871D01*
X115299702Y-91198443D01*
G37*
G36*
X115300710Y-91201343D02*
G01*
X113848568Y-91201339D01*
X113699709Y-91201341D01*
X113699709Y-91053030D01*
X113848569Y-91053030D01*
X115149234Y-91053027D01*
X115149233Y-84949784D01*
X113848572Y-84949784D01*
X113848569Y-91053030D01*
X113699709Y-91053030D01*
X113699707Y-84801472D01*
X115300709Y-84801471D01*
X115300710Y-91201343D01*
G37*
D11*
%TO.C,SW17*%
X133500000Y-39000000D02*
X134500000Y-39000000D01*
X133500000Y-40000000D02*
X133500000Y-39000000D01*
X133500000Y-53000000D02*
X133500000Y-52000000D01*
X134500000Y-53000000D02*
X133500000Y-53000000D01*
X141135000Y-51969000D02*
X141135000Y-52350000D01*
X141135000Y-52350000D02*
X141516000Y-52350000D01*
X141135001Y-48459344D02*
X141135000Y-50191000D01*
X143040000Y-43714000D02*
X143040000Y-46000000D01*
X144056000Y-40920000D02*
X143675000Y-40920000D01*
X144945000Y-52350000D02*
X144564000Y-52350000D01*
X147104000Y-39000000D02*
X147500000Y-39000000D01*
X147485000Y-40920000D02*
X147104000Y-40920000D01*
X147485000Y-49810000D02*
X147485000Y-40920000D01*
X147500000Y-39000000D02*
X147500000Y-40000000D01*
X147500000Y-52000000D02*
X147500000Y-53000000D01*
X147500000Y-53000000D02*
X146500000Y-53000000D01*
X143039999Y-46000000D02*
G75*
G02*
X141135001Y-48459343I-2539999J0D01*
G01*
X147485000Y-49810000D02*
G75*
G02*
X144945000Y-52350000I-2540000J0D01*
G01*
%TO.C,D16*%
X143499995Y-98000001D02*
X143999994Y-98900000D01*
X143999994Y-98900000D02*
X144499995Y-98000001D01*
X144499995Y-98000001D02*
X143499995Y-98000001D01*
X144499995Y-99000001D02*
X143499995Y-99000001D01*
D13*
G36*
X144799696Y-101698441D02*
G01*
X143199443Y-101698439D01*
X143199443Y-101135870D01*
X144799694Y-101135869D01*
X144799696Y-101698441D01*
G37*
G36*
X144800704Y-101701341D02*
G01*
X143348562Y-101701337D01*
X143199703Y-101701339D01*
X143199703Y-101553028D01*
X143348563Y-101553028D01*
X144649228Y-101553025D01*
X144649227Y-95449782D01*
X143348566Y-95449782D01*
X143348563Y-101553028D01*
X143199703Y-101553028D01*
X143199701Y-95301470D01*
X144800703Y-95301469D01*
X144800704Y-101701341D01*
G37*
D11*
%TO.C,SW1*%
X38500000Y-61000000D02*
X39500000Y-61000000D01*
X38500000Y-62000000D02*
X38500000Y-61000000D01*
X38500000Y-75000000D02*
X38500000Y-74000000D01*
X39500000Y-75000000D02*
X38500000Y-75000000D01*
X46135000Y-73969000D02*
X46135000Y-74350000D01*
X46135000Y-74350000D02*
X46516000Y-74350000D01*
X46135001Y-70459344D02*
X46135000Y-72191000D01*
X48040000Y-65714000D02*
X48040000Y-68000000D01*
X49056000Y-62920000D02*
X48675000Y-62920000D01*
X49945000Y-74350000D02*
X49564000Y-74350000D01*
X52104000Y-61000000D02*
X52500000Y-61000000D01*
X52485000Y-62920000D02*
X52104000Y-62920000D01*
X52485000Y-71810000D02*
X52485000Y-62920000D01*
X52500000Y-61000000D02*
X52500000Y-62000000D01*
X52500000Y-74000000D02*
X52500000Y-75000000D01*
X52500000Y-75000000D02*
X51500000Y-75000000D01*
X48039999Y-68000000D02*
G75*
G02*
X46135001Y-70459343I-2539999J0D01*
G01*
X52485000Y-71810000D02*
G75*
G02*
X49945000Y-74350000I-2540000J0D01*
G01*
%TO.C,D19*%
X145999998Y-97999998D02*
X146499997Y-98899997D01*
X146499997Y-98899997D02*
X146999998Y-97999998D01*
X146999998Y-97999998D02*
X145999998Y-97999998D01*
X146999998Y-98999998D02*
X145999998Y-98999998D01*
D13*
G36*
X147299699Y-101698438D02*
G01*
X145699446Y-101698436D01*
X145699446Y-101135867D01*
X147299697Y-101135866D01*
X147299699Y-101698438D01*
G37*
G36*
X147300707Y-101701338D02*
G01*
X145848565Y-101701334D01*
X145699706Y-101701336D01*
X145699706Y-101553025D01*
X145848566Y-101553025D01*
X147149231Y-101553022D01*
X147149230Y-95449779D01*
X145848569Y-95449779D01*
X145848566Y-101553025D01*
X145699706Y-101553025D01*
X145699704Y-95301467D01*
X147300706Y-95301466D01*
X147300707Y-101701338D01*
G37*
D11*
%TO.C,D9*%
X138499999Y-98000000D02*
X138999998Y-98899999D01*
X138999998Y-98899999D02*
X139499999Y-98000000D01*
X139499999Y-98000000D02*
X138499999Y-98000000D01*
X139499999Y-99000000D02*
X138499999Y-99000000D01*
D13*
G36*
X139799700Y-101698440D02*
G01*
X138199447Y-101698438D01*
X138199447Y-101135869D01*
X139799698Y-101135868D01*
X139799700Y-101698440D01*
G37*
G36*
X139800708Y-101701340D02*
G01*
X138348566Y-101701336D01*
X138199707Y-101701338D01*
X138199707Y-101553027D01*
X138348567Y-101553027D01*
X139649232Y-101553024D01*
X139649231Y-95449781D01*
X138348570Y-95449781D01*
X138348567Y-101553027D01*
X138199707Y-101553027D01*
X138199705Y-95301469D01*
X139800707Y-95301468D01*
X139800708Y-101701340D01*
G37*
D11*
%TO.C,SW7*%
X76500000Y-30500000D02*
X77500000Y-30500000D01*
X76500000Y-31500000D02*
X76500000Y-30500000D01*
X76500000Y-44500000D02*
X76500000Y-43500000D01*
X77500000Y-44500000D02*
X76500000Y-44500000D01*
X84135000Y-43469000D02*
X84135000Y-43850000D01*
X84135000Y-43850000D02*
X84516000Y-43850000D01*
X84135001Y-39959344D02*
X84135000Y-41691000D01*
X86040000Y-35214000D02*
X86040000Y-37500000D01*
X87056000Y-32420000D02*
X86675000Y-32420000D01*
X87945000Y-43850000D02*
X87564000Y-43850000D01*
X90104000Y-30500000D02*
X90500000Y-30500000D01*
X90485000Y-32420000D02*
X90104000Y-32420000D01*
X90485000Y-41310000D02*
X90485000Y-32420000D01*
X90500000Y-30500000D02*
X90500000Y-31500000D01*
X90500000Y-43500000D02*
X90500000Y-44500000D01*
X90500000Y-44500000D02*
X89500000Y-44500000D01*
X86039999Y-37500000D02*
G75*
G02*
X84135001Y-39959343I-2539999J0D01*
G01*
X90485000Y-41310000D02*
G75*
G02*
X87945000Y-43850000I-2540000J0D01*
G01*
D14*
%TO.C,Q3*%
X70599892Y-89075699D02*
X71440382Y-89916189D01*
X71575699Y-88099892D02*
X70599892Y-89075699D01*
X72416189Y-88940382D02*
X71575699Y-88099892D01*
X72416189Y-88940382D02*
G75*
G02*
X71440382Y-89916189I1583811J-2559618D01*
G01*
D11*
%TO.C,D5*%
X136000000Y-98000003D02*
X136499999Y-98900002D01*
X136499999Y-98900002D02*
X137000000Y-98000003D01*
X137000000Y-98000003D02*
X136000000Y-98000003D01*
X137000000Y-99000003D02*
X136000000Y-99000003D01*
D13*
G36*
X137299701Y-101698443D02*
G01*
X135699448Y-101698441D01*
X135699448Y-101135872D01*
X137299699Y-101135871D01*
X137299701Y-101698443D01*
G37*
G36*
X137300709Y-101701343D02*
G01*
X135848567Y-101701339D01*
X135699708Y-101701341D01*
X135699708Y-101553030D01*
X135848568Y-101553030D01*
X137149233Y-101553027D01*
X137149232Y-95449784D01*
X135848571Y-95449784D01*
X135848568Y-101553030D01*
X135699708Y-101553030D01*
X135699706Y-95301472D01*
X137300708Y-95301471D01*
X137300709Y-101701343D01*
G37*
D11*
%TO.C,SW18*%
X133500000Y-58000000D02*
X134500000Y-58000000D01*
X133500000Y-59000000D02*
X133500000Y-58000000D01*
X133500000Y-72000000D02*
X133500000Y-71000000D01*
X134500000Y-72000000D02*
X133500000Y-72000000D01*
X141135000Y-70969000D02*
X141135000Y-71350000D01*
X141135000Y-71350000D02*
X141516000Y-71350000D01*
X141135001Y-67459344D02*
X141135000Y-69191000D01*
X143040000Y-62714000D02*
X143040000Y-65000000D01*
X144056000Y-59920000D02*
X143675000Y-59920000D01*
X144945000Y-71350000D02*
X144564000Y-71350000D01*
X147104000Y-58000000D02*
X147500000Y-58000000D01*
X147485000Y-59920000D02*
X147104000Y-59920000D01*
X147485000Y-68810000D02*
X147485000Y-59920000D01*
X147500000Y-58000000D02*
X147500000Y-59000000D01*
X147500000Y-71000000D02*
X147500000Y-72000000D01*
X147500000Y-72000000D02*
X146500000Y-72000000D01*
X143039999Y-65000000D02*
G75*
G02*
X141135001Y-67459343I-2539999J0D01*
G01*
X147485000Y-68810000D02*
G75*
G02*
X144945000Y-71350000I-2540000J0D01*
G01*
D14*
%TO.C,JP2*%
X39500000Y-98600000D02*
X41500000Y-98600000D01*
X39500000Y-101400000D02*
X39500000Y-98600000D01*
X41500000Y-98600000D02*
X41500000Y-101400000D01*
X41500000Y-101400000D02*
X39500000Y-101400000D01*
D11*
%TO.C,SW2*%
X35016457Y-106539846D02*
X35982383Y-106281026D01*
X35275276Y-107505771D02*
X35016457Y-106539846D01*
X38639924Y-120062807D02*
X38381104Y-119096881D01*
X39605849Y-119803988D02*
X38639924Y-120062807D01*
X44839560Y-113700787D02*
X45287745Y-115373438D01*
X45451462Y-108624086D02*
X46043123Y-110832193D01*
X45709702Y-105662329D02*
X45341685Y-105760939D01*
X45747925Y-117090854D02*
X45846535Y-117458872D01*
X45846535Y-117458872D02*
X46214553Y-117360262D01*
X48156912Y-103018871D02*
X48539418Y-102916379D01*
X48539418Y-102916379D02*
X48798238Y-103882305D01*
X49021862Y-104774839D02*
X48653844Y-104873449D01*
X49526712Y-116472771D02*
X49158694Y-116571380D01*
X51322763Y-113361919D02*
X49021862Y-104774839D01*
X51904066Y-115473415D02*
X52162885Y-116439340D01*
X52162885Y-116439340D02*
X51196959Y-116698160D01*
X46043122Y-110832193D02*
G75*
G02*
X44839560Y-113700787I-2453452J-657400D01*
G01*
X51322763Y-113361919D02*
G75*
G02*
X49526712Y-116472771I-2453451J-657401D01*
G01*
%TO.C,SW14*%
X114500000Y-28500000D02*
X115500000Y-28500000D01*
X114500000Y-29500000D02*
X114500000Y-28500000D01*
X114500000Y-42500000D02*
X114500000Y-41500000D01*
X115500000Y-42500000D02*
X114500000Y-42500000D01*
X122135000Y-41469000D02*
X122135000Y-41850000D01*
X122135000Y-41850000D02*
X122516000Y-41850000D01*
X122135001Y-37959344D02*
X122135000Y-39691000D01*
X124040000Y-33214000D02*
X124040000Y-35500000D01*
X125056000Y-30420000D02*
X124675000Y-30420000D01*
X125945000Y-41850000D02*
X125564000Y-41850000D01*
X128104000Y-28500000D02*
X128500000Y-28500000D01*
X128485000Y-30420000D02*
X128104000Y-30420000D01*
X128485000Y-39310000D02*
X128485000Y-30420000D01*
X128500000Y-28500000D02*
X128500000Y-29500000D01*
X128500000Y-41500000D02*
X128500000Y-42500000D01*
X128500000Y-42500000D02*
X127500000Y-42500000D01*
X124039999Y-35500000D02*
G75*
G02*
X122135001Y-37959343I-2539999J0D01*
G01*
X128485000Y-39310000D02*
G75*
G02*
X125945000Y-41850000I-2540000J0D01*
G01*
D14*
%TO.C,JP3*%
X42000000Y-98600000D02*
X44000000Y-98600000D01*
X42000000Y-101400000D02*
X42000000Y-98600000D01*
X44000000Y-98600000D02*
X44000000Y-101400000D01*
X44000000Y-101400000D02*
X42000000Y-101400000D01*
%TO.C,Q1*%
X98500000Y-80690000D02*
X97850000Y-80690000D01*
X98500000Y-80690000D02*
X99150000Y-80690000D01*
X98500000Y-83810000D02*
X97850000Y-83810000D01*
X98500000Y-83810000D02*
X97850000Y-83810000D01*
X98500000Y-83810000D02*
X99150000Y-83810000D01*
X97337500Y-80740000D02*
X97097500Y-80410000D01*
X97577500Y-80410000D01*
X97337500Y-80740000D01*
G36*
X97337500Y-80740000D02*
G01*
X97097500Y-80410000D01*
X97577500Y-80410000D01*
X97337500Y-80740000D01*
G37*
D11*
%TO.C,D1*%
X133499999Y-98000000D02*
X133999998Y-98899999D01*
X133999998Y-98899999D02*
X134499999Y-98000000D01*
X134499999Y-98000000D02*
X133499999Y-98000000D01*
X134499999Y-99000000D02*
X133499999Y-99000000D01*
D13*
G36*
X134799700Y-101698440D02*
G01*
X133199447Y-101698438D01*
X133199447Y-101135869D01*
X134799698Y-101135868D01*
X134799700Y-101698440D01*
G37*
G36*
X134800708Y-101701340D02*
G01*
X133348566Y-101701336D01*
X133199707Y-101701338D01*
X133199707Y-101553027D01*
X133348567Y-101553027D01*
X134649232Y-101553024D01*
X134649231Y-95449781D01*
X133348570Y-95449781D01*
X133348567Y-101553027D01*
X133199707Y-101553027D01*
X133199705Y-95301469D01*
X134800707Y-95301468D01*
X134800708Y-101701340D01*
G37*
D11*
%TO.C,D++1*%
X87500002Y-89500003D02*
X88000001Y-90400002D01*
X88000001Y-90400002D02*
X88500002Y-89500003D01*
X88500002Y-89500003D02*
X87500002Y-89500003D01*
X88500002Y-90500003D02*
X87500002Y-90500003D01*
D13*
G36*
X88799703Y-93198443D02*
G01*
X87199450Y-93198441D01*
X87199450Y-92635872D01*
X88799701Y-92635871D01*
X88799703Y-93198443D01*
G37*
G36*
X88800711Y-93201343D02*
G01*
X87348569Y-93201339D01*
X87199710Y-93201341D01*
X87199710Y-93053030D01*
X87348570Y-93053030D01*
X88649235Y-93053027D01*
X88649234Y-86949784D01*
X87348573Y-86949784D01*
X87348570Y-93053030D01*
X87199710Y-93053030D01*
X87199708Y-86801472D01*
X88800710Y-86801471D01*
X88800711Y-93201343D01*
G37*
D11*
%TO.C,D15*%
X127499999Y-98000000D02*
X127999998Y-98899999D01*
X127999998Y-98899999D02*
X128499999Y-98000000D01*
X128499999Y-98000000D02*
X127499999Y-98000000D01*
X128499999Y-99000000D02*
X127499999Y-99000000D01*
D13*
G36*
X128799700Y-101698440D02*
G01*
X127199447Y-101698438D01*
X127199447Y-101135869D01*
X128799698Y-101135868D01*
X128799700Y-101698440D01*
G37*
G36*
X128800708Y-101701340D02*
G01*
X127348566Y-101701336D01*
X127199707Y-101701338D01*
X127199707Y-101553027D01*
X127348567Y-101553027D01*
X128649232Y-101553024D01*
X128649231Y-95449781D01*
X127348570Y-95449781D01*
X127348567Y-101553027D01*
X127199707Y-101553027D01*
X127199705Y-95301469D01*
X128800707Y-95301468D01*
X128800708Y-101701340D01*
G37*
D11*
%TO.C,D12*%
X125000000Y-97999996D02*
X125499999Y-98899995D01*
X125499999Y-98899995D02*
X126000000Y-97999996D01*
X126000000Y-97999996D02*
X125000000Y-97999996D01*
X126000000Y-98999996D02*
X125000000Y-98999996D01*
D13*
G36*
X126299701Y-101698436D02*
G01*
X124699448Y-101698434D01*
X124699448Y-101135865D01*
X126299699Y-101135864D01*
X126299701Y-101698436D01*
G37*
G36*
X126300709Y-101701336D02*
G01*
X124848567Y-101701332D01*
X124699708Y-101701334D01*
X124699708Y-101553023D01*
X124848568Y-101553023D01*
X126149233Y-101553020D01*
X126149232Y-95449777D01*
X124848571Y-95449777D01*
X124848568Y-101553023D01*
X124699708Y-101553023D01*
X124699706Y-95301465D01*
X126300708Y-95301464D01*
X126300709Y-101701336D01*
G37*
D11*
%TO.C,D++2*%
X90000000Y-89499999D02*
X90499999Y-90399998D01*
X90499999Y-90399998D02*
X91000000Y-89499999D01*
X91000000Y-89499999D02*
X90000000Y-89499999D01*
X91000000Y-90499999D02*
X90000000Y-90499999D01*
D13*
G36*
X91299701Y-93198439D02*
G01*
X89699448Y-93198437D01*
X89699448Y-92635868D01*
X91299699Y-92635867D01*
X91299701Y-93198439D01*
G37*
G36*
X91300709Y-93201339D02*
G01*
X89848567Y-93201335D01*
X89699708Y-93201337D01*
X89699708Y-93053026D01*
X89848568Y-93053026D01*
X91149233Y-93053023D01*
X91149232Y-86949780D01*
X89848571Y-86949780D01*
X89848568Y-93053026D01*
X89699708Y-93053026D01*
X89699706Y-86801468D01*
X91300708Y-86801467D01*
X91300709Y-93201339D01*
G37*
D11*
%TO.C,D18*%
X129999999Y-97999996D02*
X130499998Y-98899995D01*
X130499998Y-98899995D02*
X130999999Y-97999996D01*
X130999999Y-97999996D02*
X129999999Y-97999996D01*
X130999999Y-98999996D02*
X129999999Y-98999996D01*
D13*
G36*
X131299700Y-101698436D02*
G01*
X129699447Y-101698434D01*
X129699447Y-101135865D01*
X131299698Y-101135864D01*
X131299700Y-101698436D01*
G37*
G36*
X131300708Y-101701336D02*
G01*
X129848566Y-101701332D01*
X129699707Y-101701334D01*
X129699707Y-101553023D01*
X129848567Y-101553023D01*
X131149232Y-101553020D01*
X131149231Y-95449777D01*
X129848570Y-95449777D01*
X129848567Y-101553023D01*
X129699707Y-101553023D01*
X129699705Y-95301465D01*
X131300707Y-95301464D01*
X131300708Y-101701336D01*
G37*
D11*
%TO.C,D++3*%
X92500004Y-89500001D02*
X93000003Y-90400000D01*
X93000003Y-90400000D02*
X93500004Y-89500001D01*
X93500004Y-89500001D02*
X92500004Y-89500001D01*
X93500004Y-90500001D02*
X92500004Y-90500001D01*
D13*
G36*
X93799705Y-93198441D02*
G01*
X92199452Y-93198439D01*
X92199452Y-92635870D01*
X93799703Y-92635869D01*
X93799705Y-93198441D01*
G37*
G36*
X93800713Y-93201341D02*
G01*
X92348571Y-93201337D01*
X92199712Y-93201339D01*
X92199712Y-93053028D01*
X92348572Y-93053028D01*
X93649237Y-93053025D01*
X93649236Y-86949782D01*
X92348575Y-86949782D01*
X92348572Y-93053028D01*
X92199712Y-93053028D01*
X92199710Y-86801470D01*
X93800712Y-86801469D01*
X93800713Y-93201341D01*
G37*
D11*
%TO.C,D2*%
X111500000Y-98000000D02*
X111999999Y-98899999D01*
X111999999Y-98899999D02*
X112500000Y-98000000D01*
X112500000Y-98000000D02*
X111500000Y-98000000D01*
X112500000Y-99000000D02*
X111500000Y-99000000D01*
D13*
G36*
X112799701Y-101698440D02*
G01*
X111199448Y-101698438D01*
X111199448Y-101135869D01*
X112799699Y-101135868D01*
X112799701Y-101698440D01*
G37*
G36*
X112800709Y-101701340D02*
G01*
X111348567Y-101701336D01*
X111199708Y-101701338D01*
X111199708Y-101553027D01*
X111348568Y-101553027D01*
X112649233Y-101553024D01*
X112649232Y-95449781D01*
X111348571Y-95449781D01*
X111348568Y-101553027D01*
X111199708Y-101553027D01*
X111199706Y-95301469D01*
X112800708Y-95301468D01*
X112800709Y-101701340D01*
G37*
%TD*%
M02*
